font.ufo
<glyph name="zero" format="1">
	<unicode hex="0030"/>
	<advance width="528"/>
	<outline>
		<contour>
			<point x="264" y="-12" type="curve" smooth="yes"/>
			<point x="400" y="-12"/>
			<point x="491" y="104"/>
			<point x="491" y="320" type="curve" smooth="yes"/>
			<point x="491" y="536"/>
			<point x="400" y="647"/>
			<point x="264" y="647" type="curve" smooth="yes"/>
			<point x="128" y="647"/>
			<point x="37" y="536"/>
			<point x="37" y="320" type="curve" smooth="yes"/>
			<point x="37" y="104"/>
			<point x="128" y="-12"/>
		</contour>
		<contour>
			<point x="264" y="102" type="curve" smooth="yes"/>
			<point x="215" y="102"/>
			<point x="176" y="147"/>
			<point x="176" y="320" type="curve" smooth="yes"/>
			<point x="176" y="494"/>
			<point x="215" y="533"/>
			<point x="264" y="533" type="curve" smooth="yes"/>
			<point x="314" y="533"/>
			<point x="352" y="494"/>
			<point x="352" y="320" type="curve" smooth="yes"/>
			<point x="352" y="147"/>
			<point x="314" y="102"/>
		</contour>
	</outline>
</glyph>
<glyph name="D" format="1">
	<unicode hex="0044"/>
	<advance width="635"/>
	<outline>
		<contour>
			<point x="77" y="0" type="line"/>
			<point x="269" y="0" type="line" smooth="yes"/>
			<point x="460" y="0"/>
			<point x="588" y="105"/>
			<point x="588" y="329" type="curve" smooth="yes"/>
			<point x="588" y="553"/>
			<point x="460" y="652"/>
			<point x="261" y="652" type="curve" smooth="yes"/>
			<point x="77" y="652" type="line"/>
		</contour>
		<contour>
			<point x="224" y="119" type="line"/>
			<point x="224" y="533" type="line"/>
			<point x="252" y="533" type="line" smooth="yes"/>
			<point x="363" y="533"/>
			<point x="437" y="485"/>
			<point x="437" y="329" type="curve" smooth="yes"/>
			<point x="437" y="173"/>
			<point x="363" y="119"/>
			<point x="252" y="119" type="curve" smooth="yes"/>
		</contour>
		<contour>
			<point name="aboveUC" x="318" y="674" type="move"/>
		</contour>
		<contour>
			<point name="belowLC" x="313" y="-22" type="move"/>
		</contour>
	</outline>
</glyph>
<glyph name="R" format="1">
	<unicode hex="0052"/>
	<advance width="613"/>
	<outline>
		<contour>
			<point x="77" y="0" type="line"/>
			<point x="224" y="0" type="line"/>
			<point x="224" y="235" type="line"/>
			<point x="312" y="235" type="line" smooth="yes"/>
			<point x="450" y="235"/>
			<point x="563" y="299"/>
			<point x="563" y="449" type="curve" smooth="yes"/>
			<point x="563" y="604"/>
			<point x="450" y="652"/>
			<point x="312" y="652" type="curve" smooth="yes"/>
			<point x="77" y="652" type="line"/>
		</contour>
		<contour>
			<point x="224" y="352" type="line"/>
			<point x="224" y="535" type="line"/>
			<point x="300" y="535" type="line" smooth="yes"/>
			<point x="377" y="535"/>
			<point x="419" y="513"/>
			<point x="419" y="449" type="curve" smooth="yes"/>
			<point x="419" y="385"/>
			<point x="377" y="352"/>
			<point x="300" y="352" type="curve" smooth="yes"/>
		</contour>
		<contour>
			<point x="430" y="0" type="line"/>
			<point x="595" y="0" type="line"/>
			<point x="387" y="368" type="line"/>
			<point x="285" y="273" type="line"/>
		</contour>
		<contour>
			<point name="aboveUC" x="310" y="674" type="move"/>
		</contour>
		<contour>
			<point name="belowLC" x="327" y="-22" type="move"/>
		</contour>
	</outline>
</glyph>
<glyph name="Z" format="1">
	<unicode hex="005A"/>
	<advance width="541"/>
	<outline>
		<contour>
			<point x="36" y="0" type="line"/>
			<point x="508" y="0" type="line"/>
			<point x="508" y="124" type="line"/>
			<point x="217" y="124" type="line"/>
			<point x="505" y="563" type="line"/>
			<point x="505" y="652" type="line"/>
			<point x="63" y="652" type="line"/>
			<point x="63" y="528" type="line"/>
			<point x="324" y="528" type="line"/>
			<point x="36" y="89" type="line"/>
		</contour>
		<contour>
			<point name="aboveUC" x="283" y="674" type="move"/>
		</contour>
		<contour>
			<point name="belowLC" x="282" y="-22" type="move"/>
		</contour>
	</outline>
</glyph>
<glyph name="registered" format="1">
	<unicode hex="00AE"/>
	<advance width="462"/>
	<outline>
		<contour>
			<point x="231" y="311" type="curve" smooth="yes"/>
			<point x="340" y="311"/>
			<point x="429" y="395"/>
			<point x="429" y="513" type="curve" smooth="yes"/>
			<point x="429" y="631"/>
			<point x="340" y="715"/>
			<point x="231" y="715" type="curve" smooth="yes"/>
			<point x="121" y="715"/>
			<point x="32" y="631"/>
			<point x="32" y="513" type="curve" smooth="yes"/>
			<point x="32" y="395"/>
			<point x="121" y="311"/>
		</contour>
		<contour>
			<point x="231" y="360" type="curve" smooth="yes"/>
			<point x="147" y="360"/>
			<point x="87" y="420"/>
			<point x="87" y="513" type="curve" smooth="yes"/>
			<point x="87" y="606"/>
			<point x="147" y="666"/>
			<point x="231" y="666" type="curve" smooth="yes"/>
			<point x="315" y="666"/>
			<point x="374" y="606"/>
			<point x="374" y="513" type="curve" smooth="yes"/>
			<point x="374" y="420"/>
			<point x="315" y="360"/>
		</contour>
		<contour>
			<point x="150" y="416" type="line"/>
			<point x="207" y="416" type="line"/>
			<point x="207" y="476" type="line"/>
			<point x="236" y="476" type="line"/>
			<point x="266" y="416" type="line"/>
			<point x="326" y="416" type="line"/>
			<point x="285" y="493" type="line"/>
			<point x="308" y="504"/>
			<point x="320" y="524"/>
			<point x="320" y="547" type="curve" smooth="yes"/>
			<point x="320" y="592"/>
			<point x="285" y="613"/>
			<point x="239" y="613" type="curve" smooth="yes"/>
			<point x="150" y="613" type="line"/>
		</contour>
		<contour>
			<point x="207" y="516" type="line"/>
			<point x="207" y="570" type="line"/>
			<point x="228" y="570" type="line" smooth="yes"/>
			<point x="248" y="570"/>
			<point x="258" y="558"/>
			<point x="258" y="544" type="curve" smooth="yes"/>
			<point x="258" y="529"/>
			<point x="248" y="516"/>
			<point x="228" y="516" type="curve" smooth="yes"/>
		</contour>
	</outline>
</glyph>
<glyph name="plusminus" format="1">
	<unicode hex="00B1"/>
	<advance width="528"/>
	<outline>
		<contour>
			<point x="210" y="158" type="line"/>
			<point x="318" y="158" type="line"/>
			<point x="318" y="294" type="line"/>
			<point x="494" y="294" type="line"/>
			<point x="494" y="398" type="line"/>
			<point x="318" y="398" type="line"/>
			<point x="318" y="566" type="line"/>
			<point x="210" y="566" type="line"/>
			<point x="210" y="398" type="line"/>
			<point x="34" y="398" type="line"/>
			<point x="34" y="294" type="line"/>
			<point x="210" y="294" type="line"/>
		</contour>
		<contour>
			<point x="34" y="0" type="line"/>
			<point x="494" y="0" type="line"/>
			<point x="494" y="104" type="line"/>
			<point x="34" y="104" type="line"/>
		</contour>
	</outline>
</glyph>
<glyph name="florin" format="1">
	<unicode hex="0192"/>
	<advance width="528"/>
	<outline>
		<contour>
			<point x="116" y="-96" type="curve" smooth="yes"/>
			<point x="252" y="-96"/>
			<point x="291" y="-1"/>
			<point x="305" y="118" type="curve" smooth="yes"/>
			<point x="347" y="469" type="line" smooth="yes"/>
			<point x="352" y="516"/>
			<point x="375" y="547"/>
			<point x="420" y="547" type="curve" smooth="yes"/>
			<point x="440" y="547"/>
			<point x="454" y="540"/>
			<point x="466" y="536" type="curve"/>
			<point x="494" y="646" type="line"/>
			<point x="474" y="655"/>
			<point x="433" y="664"/>
			<point x="408" y="664" type="curve" smooth="yes"/>
			<point x="276" y="664"/>
			<point x="221" y="604"/>
			<point x="205" y="457" type="curve" smooth="yes"/>
			<point x="171" y="161" type="line" smooth="yes"/>
			<point x="159" y="47"/>
			<point x="141" y="21"/>
			<point x="94" y="19" type="curve" smooth="yes"/>
			<point x="79" y="20"/>
			<point x="64" y="22"/>
			<point x="50" y="28" type="curve"/>
			<point x="30" y="-81" type="line"/>
			<point x="45" y="-90"/>
			<point x="77" y="-96"/>
		</contour>
		<contour>
			<point x="113" y="307" type="line"/>
			<point x="443" y="307" type="line"/>
			<point x="443" y="414" type="line"/>
			<point x="187" y="414" type="line"/>
			<point x="113" y="408" type="line"/>
		</contour>
	</outline>
</glyph>
<glyph name="schwahookrhotic" format="1">
	<unicode hex="025A"/>
	<advance width="707"/>
	<outline>
		<contour>
			<point x="260" y="-12" type="curve" smooth="yes"/>
			<point x="392" y="-12"/>
			<point x="482" y="100"/>
			<point x="482" y="239" type="curve" smooth="yes"/>
			<point x="482" y="397"/>
			<point x="397" y="508"/>
			<point x="244" y="508" type="curve" smooth="yes"/>
			<point x="188" y="508"/>
			<point x="123" y="494"/>
			<point x="68" y="458" type="curve"/>
			<point x="117" y="363" type="line"/>
			<point x="152" y="384"/>
			<point x="186" y="396"/>
			<point x="224" y="396" type="curve" smooth="yes"/>
			<point x="306" y="396"/>
			<point x="346" y="346"/>
			<point x="346" y="226" type="curve" smooth="yes"/>
			<point x="346" y="151"/>
			<point x="308" y="98"/>
			<point x="255" y="98" type="curve" smooth="yes"/>
			<point x="211" y="98"/>
			<point x="177" y="123"/>
			<point x="167" y="166" type="curve"/>
			<point x="530" y="323" type="line"/>
			<point x="552" y="244"/>
			<point x="604" y="226"/>
			<point x="651" y="226" type="curve" smooth="yes"/>
			<point x="681" y="226"/>
			<point x="707" y="238"/>
			<point x="727" y="251" type="curve"/>
			<point x="697" y="321" type="line"/>
			<point x="686" y="315"/>
			<point x="673" y="310"/>
			<point x="657" y="310" type="curve" smooth="yes"/>
			<point x="626" y="310"/>
			<point x="613" y="331"/>
			<point x="611" y="406" type="curve"/>
			<point x="541" y="432" type="line"/>
			<point x="36" y="217" type="line"/>
			<point x="43" y="97"/>
			<point x="109" y="-12"/>
		</contour>
		<contour>
			<point name="aboveLC" x="245" y="518" type="move"/>
		</contour>
	</outline>
</glyph>
<glyph name="istroke" format="1">
	<unicode hex="0268"/>
	<advance width="321"/>
	<outline>
		<contour>
			<point x="12" y="223" type="line"/>
			<point x="304" y="223" type="line"/>
			<point x="304" y="294" type="line"/>
			<point x="92" y="294" type="line"/>
			<point x="12" y="288" type="line"/>
		</contour>
		<component base="i" xOffset="22"/>
	</outline>
</glyph>
<glyph name="overlinecmb" format="1">
	<unicode hex="0305"/>
	<outline>
		<component base="macroncmb"/>
		<contour>
			<point name="_aboveLC" x="0" y="518" type="move"/>
		</contour>
	</outline>
</glyph>
<glyph name="caroncmb" format="1">
	<unicode hex="030C"/>
	<outline>
		<contour>
			<point x="-75" y="577" type="line"/>
			<point x="75" y="577" type="line"/>
			<point x="183" y="708" type="line"/>
			<point x="127" y="760" type="line"/>
			<point x="2" y="668" type="line"/>
			<point x="-2" y="668" type="line"/>
			<point x="-127" y="760" type="line"/>
			<point x="-183" y="708" type="line"/>
		</contour>
		<contour>
			<point name="_aboveLC" x="0" y="518" type="move"/>
		</contour>
	</outline>
</glyph>
<glyph name="ringhalfleftbelowcmb" format="1">
	<unicode hex="031C"/>
	<outline>
		<contour>
			<point x="63" y="-261" type="curve"/>
			<point x="63" y="-206" type="line"/>
			<point x="14" y="-208"/>
			<point x="-4" y="-186"/>
			<point x="-4" y="-157" type="curve" smooth="yes"/>
			<point x="-4" y="-128"/>
			<point x="14" y="-107"/>
			<point x="63" y="-108" type="curve"/>
			<point x="63" y="-54" type="line"/>
			<point x="-34" y="-50"/>
			<point x="-76" y="-94"/>
			<point x="-76" y="-157" type="curve" smooth="yes"/>
			<point x="-76" y="-221"/>
			<point x="-34" y="-265"/>
		</contour>
		<contour>
			<point name="_belowLC" x="0" y="-22" type="move"/>
		</contour>
	</outline>
</glyph>
<glyph name="pi" format="1">
	<unicode hex="03C0"/>
	<advance width="635"/>
	<outline>
		<contour>
			<point x="522" y="-12" type="curve" smooth="yes"/>
			<point x="559" y="-12"/>
			<point x="592" y="-5"/>
			<point x="611" y="3" type="curve"/>
			<point x="594" y="111" type="line"/>
			<point x="579" y="109"/>
			<point x="566" y="107"/>
			<point x="557" y="107" type="curve" smooth="yes"/>
			<point x="528" y="107"/>
			<point x="512" y="118"/>
			<point x="512" y="152" type="curve" smooth="yes"/>
			<point x="512" y="175"/>
			<point x="513" y="293"/>
			<point x="519" y="380" type="curve"/>
			<point x="612" y="380" type="line"/>
			<point x="612" y="496" type="line"/>
			<point x="92" y="496" type="line"/>
			<point x="18" y="490" type="line"/>
			<point x="18" y="380" type="line"/>
			<point x="126" y="380" type="line"/>
			<point x="126" y="270"/>
			<point x="114" y="133"/>
			<point x="90" y="0" type="curve"/>
			<point x="237" y="-9" type="line"/>
			<point x="250" y="122"/>
			<point x="263" y="262"/>
			<point x="263" y="380" type="curve"/>
			<point x="378" y="380" type="line"/>
			<point x="378" y="297"/>
			<point x="374" y="187"/>
			<point x="374" y="158" type="curve" smooth="yes"/>
			<point x="374" y="55"/>
			<point x="411" y="-12"/>
		</contour>
	</outline>
</glyph>
<glyph name="Ieukran" format="1">
	<unicode hex="0404"/>
	<advance width="582"/>
	<outline>
		<contour>
			<point x="349" y="-12" type="curve" smooth="yes"/>
			<point x="434" y="-12"/>
			<point x="506" y="21"/>
			<point x="560" y="84" type="curve"/>
			<point x="482" y="176" type="line"/>
			<point x="450" y="142"/>
			<point x="408" y="115"/>
			<point x="355" y="115" type="curve" smooth="yes"/>
			<point x="252" y="115"/>
			<point x="192" y="176"/>
			<point x="192" y="328" type="curve" smooth="yes"/>
			<point x="192" y="473"/>
			<point x="260" y="537"/>
			<point x="357" y="537" type="curve" smooth="yes"/>
			<point x="404" y="537"/>
			<point x="439" y="515"/>
			<point x="472" y="485" type="curve"/>
			<point x="550" y="579" type="line"/>
			<point x="506" y="624"/>
			<point x="438" y="664"/>
			<point x="353" y="664" type="curve" smooth="yes"/>
			<point x="185" y="664"/>
			<point x="46" y="553"/>
			<point x="46" y="322" type="curve" smooth="yes"/>
			<point x="46" y="91"/>
			<point x="180" y="-12"/>
		</contour>
		<contour>
			<point x="130" y="274" type="line"/>
			<point x="422" y="274" type="line"/>
			<point x="422" y="397" type="line"/>
			<point x="130" y="397" type="line"/>
		</contour>
	</outline>
</glyph>
<glyph name="Tse" format="1">
	<unicode hex="0426"/>
	<advance width="669"/>
	<outline>
		<contour>
			<point x="77" y="0" type="line"/>
			<point x="577" y="0" type="line"/>
			<point x="577" y="652" type="line"/>
			<point x="430" y="652" type="line"/>
			<point x="430" y="124" type="line"/>
			<point x="224" y="124" type="line"/>
			<point x="224" y="652" type="line"/>
			<point x="77" y="652" type="line"/>
		</contour>
		<contour>
			<point x="512" y="-188" type="line"/>
			<point x="644" y="-188" type="line"/>
			<point x="657" y="32" type="line"/>
			<point x="657" y="124" type="line"/>
			<point x="485" y="124" type="line"/>
			<point x="485" y="0" type="line"/>
			<point x="512" y="0" type="line"/>
		</contour>
		<contour>
			<point name="aboveUC" x="327" y="674" type="move"/>
		</contour>
	</outline>
</glyph>
<glyph name="ze" format="1">
	<unicode hex="0437"/>
	<advance width="476"/>
	<outline>
		<contour>
			<point x="220" y="-12" type="curve" smooth="yes"/>
			<point x="332" y="-12"/>
			<point x="442" y="41"/>
			<point x="442" y="141" type="curve" smooth="yes"/>
			<point x="442" y="208"/>
			<point x="405" y="243"/>
			<point x="345" y="259" type="curve"/>
			<point x="345" y="263" type="line"/>
			<point x="399" y="280"/>
			<point x="423" y="326"/>
			<point x="423" y="366" type="curve" smooth="yes"/>
			<point x="423" y="465"/>
			<point x="325" y="508"/>
			<point x="218" y="508" type="curve" smooth="yes"/>
			<point x="152" y="508"/>
			<point x="91" y="492"/>
			<point x="37" y="457" type="curve"/>
			<point x="91" y="363" type="line"/>
			<point x="129" y="388"/>
			<point x="166" y="396"/>
			<point x="208" y="396" type="curve" smooth="yes"/>
			<point x="257" y="396"/>
			<point x="283" y="379"/>
			<point x="283" y="350" type="curve" smooth="yes"/>
			<point x="283" y="319"/>
			<point x="259" y="302"/>
			<point x="213" y="302" type="curve" smooth="yes"/>
			<point x="143" y="302" type="line"/>
			<point x="143" y="205" type="line"/>
			<point x="222" y="205" type="line" smooth="yes"/>
			<point x="274" y="205"/>
			<point x="298" y="190"/>
			<point x="298" y="156" type="curve" smooth="yes"/>
			<point x="298" y="121"/>
			<point x="258" y="100"/>
			<point x="206" y="100" type="curve" smooth="yes"/>
			<point x="171" y="100"/>
			<point x="126" y="112"/>
			<point x="85" y="140" type="curve"/>
			<point x="28" y="47" type="line"/>
			<point x="92" y="0"/>
			<point x="153" y="-12"/>
		</contour>
	</outline>
</glyph>
<glyph name="shcha" format="1">
	<unicode hex="0449"/>
	<advance width="829"/>
	<outline>
		<contour>
			<point x="677" y="-172" type="line"/>
			<point x="803" y="-172" type="line"/>
			<point x="817" y="19" type="line"/>
			<point x="817" y="115" type="line"/>
			<point x="646" y="115" type="line"/>
			<point x="646" y="0" type="line"/>
			<point x="677" y="0" type="line"/>
		</contour>
		<component base="sha"/>
	</outline>
</glyph>
<glyph name="ya" format="1">
	<unicode hex="044F"/>
	<advance width="544"/>
	<outline>
		<contour>
			<point x="333" y="0" type="line"/>
			<point x="480" y="0" type="line"/>
			<point x="480" y="496" type="line"/>
			<point x="268" y="496" type="line" smooth="yes"/>
			<point x="153" y="496"/>
			<point x="61" y="456"/>
			<point x="61" y="332" type="curve" smooth="yes"/>
			<point x="61" y="208"/>
			<point x="179" y="162"/>
			<point x="277" y="162" type="curve" smooth="yes"/>
			<point x="333" y="162" type="line"/>
		</contour>
		<contour>
			<point x="286" y="261" type="line" smooth="yes"/>
			<point x="233" y="261"/>
			<point x="206" y="288"/>
			<point x="206" y="328" type="curve" smooth="yes"/>
			<point x="206" y="368"/>
			<point x="233" y="388"/>
			<point x="286" y="388" type="curve" smooth="yes"/>
			<point x="333" y="388" type="line"/>
			<point x="333" y="261" type="line"/>
		</contour>
		<contour>
			<point x="15" y="0" type="line"/>
			<point x="178" y="0" type="line"/>
			<point x="301" y="200" type="line"/>
			<point x="180" y="240" type="line"/>
		</contour>
		<contour>
			<point name="aboveLC" x="284" y="518" type="move"/>
		</contour>
	</outline>
</glyph>
<glyph name="yat" format="1">
	<unicode hex="0463"/>
	<advance width="600"/>
	<outline>
		<contour>
			<point x="155" y="0" type="line"/>
			<point x="352" y="0" type="line" smooth="yes"/>
			<point x="472" y="0"/>
			<point x="564" y="43"/>
			<point x="564" y="171" type="curve" smooth="yes"/>
			<point x="564" y="295"/>
			<point x="472" y="338"/>
			<point x="352" y="338" type="curve" smooth="yes"/>
			<point x="302" y="338" type="line"/>
			<point x="302" y="425" type="line"/>
			<point x="470" y="425" type="line"/>
			<point x="470" y="541" type="line"/>
			<point x="302" y="541" type="line"/>
			<point x="302" y="628" type="line"/>
			<point x="155" y="628" type="line"/>
			<point x="155" y="541" type="line"/>
			<point x="26" y="541" type="line"/>
			<point x="26" y="425" type="line"/>
			<point x="155" y="425" type="line"/>
		</contour>
		<contour>
			<point x="302" y="112" type="line"/>
			<point x="302" y="229" type="line"/>
			<point x="345" y="229" type="line" smooth="yes"/>
			<point x="398" y="229"/>
			<point x="424" y="210"/>
			<point x="424" y="172" type="curve" smooth="yes"/>
			<point x="424" y="131"/>
			<point x="398" y="112"/>
			<point x="345" y="112" type="curve" smooth="yes"/>
		</contour>
	</outline>
</glyph>
<glyph name="Zhedescender" format="1">
	<unicode hex="0496"/>
	<advance width="905"/>
	<outline>
		<contour>
			<point x="748" y="-188" type="line"/>
			<point x="880" y="-188" type="line"/>
			<point x="893" y="32" type="line"/>
			<point x="893" y="124" type="line"/>
			<point x="720" y="124" type="line"/>
			<point x="720" y="0" type="line"/>
			<point x="748" y="0" type="line"/>
		</contour>
		<component base="Zhe"/>
	</outline>
</glyph>
<glyph name="Kabashkir" format="1">
	<unicode hex="04A0"/>
	<advance width="749"/>
	<outline>
		<contour>
			<point x="537" y="342" type="line"/>
			<point x="609" y="467" type="line" smooth="yes"/>
			<point x="635" y="513"/>
			<point x="652" y="526"/>
			<point x="682" y="526" type="curve" smooth="yes"/>
			<point x="688" y="526"/>
			<point x="699" y="526"/>
			<point x="710" y="522" type="curve"/>
			<point x="734" y="655" type="line"/>
			<point x="720" y="662"/>
			<point x="699" y="664"/>
			<point x="681" y="664" type="curve" smooth="yes"/>
			<point x="607" y="664"/>
			<point x="558" y="634"/>
			<point x="508" y="546" type="curve" smooth="yes"/>
			<point x="410" y="371" type="line"/>
		</contour>
		<contour>
			<point x="204" y="0" type="line"/>
			<point x="352" y="0" type="line"/>
			<point x="352" y="277" type="line"/>
			<point x="423" y="277" type="line"/>
			<point x="597" y="0" type="line"/>
			<point x="752" y="0" type="line"/>
			<point x="509" y="396" type="line"/>
			<point x="352" y="396" type="line"/>
			<point x="352" y="652" type="line"/>
			<point x="25" y="652" type="line"/>
			<point x="25" y="528" type="line"/>
			<point x="204" y="528" type="line"/>
		</contour>
	</outline>
</glyph>
<glyph name="Ustraightstroke" format="1">
	<unicode hex="04B0"/>
	<advance width="525"/>
	<outline>
		<contour>
			<point x="48" y="215" type="line"/>
			<point x="477" y="215" type="line"/>
			<point x="477" y="286" type="line"/>
			<point x="141" y="286" type="line"/>
			<point x="48" y="280" type="line"/>
		</contour>
		<component base="Y"/>
		<contour>
			<point name="aboveUC" x="262" y="674" type="move"/>
		</contour>
	</outline>
</glyph>
<glyph name="Hadescender" format="1">
	<unicode hex="04B2"/>
	<advance width="605"/>
	<outline>
		<contour>
			<point x="452" y="-188" type="line"/>
			<point x="580" y="-188" type="line"/>
			<point x="592" y="32" type="line"/>
			<point x="592" y="124" type="line"/>
			<point x="419" y="124" type="line"/>
			<point x="419" y="0" type="line"/>
			<point x="452" y="0" type="line"/>
		</contour>
		<component base="X"/>
	</outline>
</glyph>
<glyph name="lenisacute" format="1">
	<unicode hex="1FCE"/>
	<advance width="555"/>
	<outline>
		<component base="lenisacutecmb" xOffset="278"/>
		<contour>
			<point name="_aboveLC" x="278" y="518" type="move"/>
		</contour>
	</outline>
</glyph>
<glyph name="lenistilde" format="1">
	<unicode hex="1FCF"/>
	<advance width="555"/>
	<outline>
		<component base="lenistildecmb" xOffset="278"/>
		<contour>
			<point name="_aboveLC" x="278" y="518" type="move"/>
		</contour>
	</outline>
</glyph>
<glyph name="aspergrave" format="1">
	<unicode hex="1FDD"/>
	<advance width="555"/>
	<outline>
		<component base="aspergravecmb" xOffset="278"/>
		<contour>
			<point name="_aboveLC" x="278" y="518" type="move"/>
		</contour>
	</outline>
</glyph>
<glyph name="prime" format="1">
	<unicode hex="2032"/>
	<advance width="300"/>
	<outline>
		<contour>
			<point x="82" y="388" type="line"/>
			<point x="178" y="388" type="line"/>
			<point x="225" y="559" type="line"/>
			<point x="248" y="685" type="line"/>
			<point x="101" y="686" type="line"/>
		</contour>
	</outline>
</glyph>
<glyph name="Euro" format="1">
	<unicode hex="20AC"/>
	<advance width="528"/>
	<outline>
		<contour>
			<point x="337" y="-12" type="curve" smooth="yes"/>
			<point x="409" y="-12"/>
			<point x="471" y="21"/>
			<point x="519" y="80" type="curve"/>
			<point x="438" y="156" type="line"/>
			<point x="412" y="121"/>
			<point x="384" y="102"/>
			<point x="346" y="102" type="curve" smooth="yes"/>
			<point x="267" y="102"/>
			<point x="222" y="181"/>
			<point x="222" y="319" type="curve" smooth="yes"/>
			<point x="222" y="453"/>
			<point x="265" y="533"/>
			<point x="343" y="533" type="curve" smooth="yes"/>
			<point x="378" y="533"/>
			<point x="404" y="515"/>
			<point x="429" y="490" type="curve"/>
			<point x="511" y="569" type="line"/>
			<point x="468" y="619"/>
			<point x="408" y="647"/>
			<point x="348" y="647" type="curve" smooth="yes"/>
			<point x="188" y="647"/>
			<point x="74" y="524"/>
			<point x="74" y="314" type="curve" smooth="yes"/>
			<point x="74" y="101"/>
			<point x="187" y="-12"/>
		</contour>
		<contour>
			<point x="21" y="215" type="line"/>
			<point x="405" y="215" type="line"/>
			<point x="405" y="290" type="line"/>
			<point x="95" y="290" type="line"/>
			<point x="21" y="284" type="line"/>
		</contour>
		<contour>
			<point x="21" y="340" type="line"/>
			<point x="445" y="340" type="line"/>
			<point x="445" y="414" type="line"/>
			<point x="95" y="414" type="line"/>
			<point x="21" y="408" type="line"/>
		</contour>
	</outline>
</glyph>
<glyph name="numero" format="1">
	<unicode hex="2116"/>
	<advance width="967"/>
	<outline>
		<contour>
			<point x="98" y="-12" type="curve" smooth="yes"/>
			<point x="180" y="-12"/>
			<point x="216" y="34"/>
			<point x="216" y="119" type="curve" smooth="yes"/>
			<point x="216" y="215" type="line" smooth="yes"/>
			<point x="216" y="281"/>
			<point x="209" y="355"/>
			<point x="195" y="476" type="curve"/>
			<point x="199" y="476" type="line"/>
			<point x="226" y="406" type="line" smooth="yes"/>
			<point x="276" y="269"/>
			<point x="329" y="135"/>
			<point x="383" y="0" type="curve"/>
			<point x="544" y="0" type="line"/>
			<point x="544" y="485" type="line" smooth="yes"/>
			<point x="544" y="520"/>
			<point x="554" y="528"/>
			<point x="584" y="528" type="curve"/>
			<point x="573" y="642" type="line"/>
			<point x="559" y="645"/>
			<point x="553" y="647"/>
			<point x="531" y="647" type="curve" smooth="yes"/>
			<point x="449" y="647"/>
			<point x="413" y="601"/>
			<point x="413" y="516" type="curve" smooth="yes"/>
			<point x="413" y="420" type="line" smooth="yes"/>
			<point x="413" y="354"/>
			<point x="420" y="280"/>
			<point x="434" y="159" type="curve"/>
			<point x="430" y="159" type="line"/>
			<point x="403" y="229" type="line"/>
			<point x="353" y="366"/>
			<point x="300" y="500"/>
			<point x="246" y="635" type="curve"/>
			<point x="85" y="635" type="line"/>
			<point x="85" y="150" type="line" smooth="yes"/>
			<point x="85" y="115"/>
			<point x="75" y="107"/>
			<point x="45" y="107" type="curve"/>
			<point x="56" y="-7" type="line"/>
			<point x="70" y="-10"/>
			<point x="76" y="-12"/>
		</contour>
		<contour>
			<point x="785" y="269" type="curve" smooth="yes"/>
			<point x="873" y="269"/>
			<point x="951" y="328"/>
			<point x="951" y="436" type="curve" smooth="yes"/>
			<point x="951" y="543"/>
			<point x="873" y="604"/>
			<point x="785" y="604" type="curve" smooth="yes"/>
			<point x="697" y="604"/>
			<point x="620" y="543"/>
			<point x="620" y="436" type="curve" smooth="yes"/>
			<point x="620" y="328"/>
			<point x="697" y="269"/>
		</contour>
		<contour>
			<point x="785" y="359" type="curve" smooth="yes"/>
			<point x="753" y="359"/>
			<point x="734" y="382"/>
			<point x="734" y="436" type="curve" smooth="yes"/>
			<point x="734" y="490"/>
			<point x="753" y="514"/>
			<point x="785" y="514" type="curve" smooth="yes"/>
			<point x="817" y="514"/>
			<point x="836" y="490"/>
			<point x="836" y="436" type="curve" smooth="yes"/>
			<point x="836" y="382"/>
			<point x="817" y="359"/>
		</contour>
		<contour>
			<point x="653" y="128" type="line"/>
			<point x="917" y="128" type="line"/>
			<point x="917" y="206" type="line"/>
			<point x="653" y="206" type="line"/>
		</contour>
	</outline>
</glyph>
<glyph name="notequal" format="1">
	<unicode hex="2260"/>
	<advance width="528"/>
	<outline>
		<contour>
			<point x="52" y="40" type="line"/>
			<point x="145" y="40" type="line"/>
			<point x="217" y="162" type="line"/>
			<point x="494" y="162" type="line"/>
			<point x="494" y="265" type="line"/>
			<point x="274" y="265" type="line"/>
			<point x="347" y="395" type="line"/>
			<point x="494" y="395" type="line"/>
			<point x="494" y="498" type="line"/>
			<point x="405" y="498" type="line"/>
			<point x="477" y="620" type="line"/>
			<point x="383" y="620" type="line"/>
			<point x="311" y="498" type="line"/>
			<point x="34" y="498" type="line"/>
			<point x="34" y="395" type="line"/>
			<point x="254" y="395" type="line"/>
			<point x="181" y="265" type="line"/>
			<point x="34" y="265" type="line"/>
			<point x="34" y="162" type="line"/>
			<point x="123" y="162" type="line"/>
		</contour>
	</outline>
</glyph>
<glyph name="triangleblackleft" format="1">
	<unicode hex="25C0"/>
	<advance width="877"/>
	<outline>
		<contour>
			<point x="832" y="725" type="line"/>
			<point x="830" y="725" type="line"/>
			<point x="25" y="336" type="line"/>
			<point x="25" y="332" type="line"/>
			<point x="830" y="-58" type="line"/>
			<point x="832" y="-58" type="line"/>
		</contour>
	</outline>
</glyph>
<glyph name="lozenge" format="1">
	<unicode hex="25CA"/>
	<advance width="548"/>
	<outline>
		<contour>
			<point x="214" y="-10" type="line"/>
			<point x="334" y="-10" type="line"/>
			<point x="496" y="330" type="line"/>
			<point x="334" y="670" type="line"/>
			<point x="214" y="670" type="line"/>
			<point x="52" y="330" type="line"/>
		</contour>
		<contour>
			<point x="272" y="113" type="line"/>
			<point x="218" y="234" type="line"/>
			<point x="173" y="330" type="line"/>
			<point x="218" y="426" type="line"/>
			<point x="272" y="547" type="line"/>
			<point x="276" y="547" type="line"/>
			<point x="330" y="426" type="line"/>
			<point x="375" y="330" type="line"/>
			<point x="330" y="234" type="line"/>
			<point x="276" y="113" type="line"/>
		</contour>
	</outline>
</glyph>
<glyph name="checkbox" format="1">
	<unicode hex="2610"/>
	<advance width="807"/>
	<outline>
		<contour>
			<point x="74" y="-10" type="line"/>
			<point x="668" y="-10" type="line"/>
			<point x="733" y="65" type="line"/>
			<point x="733" y="675" type="line"/>
			<point x="149" y="675" type="line"/>
			<point x="74" y="610" type="line"/>
		</contour>
		<contour>
			<point x="132" y="48" type="line"/>
			<point x="132" y="586" type="line"/>
			<point x="644" y="586" type="line"/>
			<point x="644" y="48" type="line"/>
		</contour>
	</outline>
</glyph>
<glyph name="eighthnote" format="1">
	<unicode hex="266A"/>
	<advance width="544"/>
	<outline>
		<contour>
			<point x="137" y="-28" type="curve" smooth="yes"/>
			<point x="257" y="-28"/>
			<point x="335" y="41"/>
			<point x="335" y="171" type="curve" smooth="yes"/>
			<point x="335" y="532" type="line"/>
			<point x="405" y="509"/>
			<point x="445" y="449"/>
			<point x="445" y="390" type="curve" smooth="yes"/>
			<point x="445" y="354"/>
			<point x="441" y="329"/>
			<point x="431" y="298" type="curve"/>
			<point x="480" y="278" type="line"/>
			<point x="505" y="313"/>
			<point x="529" y="370"/>
			<point x="529" y="426" type="curve" smooth="yes"/>
			<point x="529" y="506"/>
			<point x="498" y="564"/>
			<point x="404" y="628" type="curve" smooth="yes"/>
			<point x="354" y="662"/>
			<point x="344" y="671"/>
			<point x="332" y="694" type="curve"/>
			<point x="254" y="694" type="line"/>
			<point x="254" y="178" type="line"/>
			<point x="245" y="184"/>
			<point x="221" y="190"/>
			<point x="195" y="190" type="curve" smooth="yes"/>
			<point x="100" y="190"/>
			<point x="25" y="130"/>
			<point x="25" y="58" type="curve" smooth="yes"/>
			<point x="25" y="-2"/>
			<point x="82" y="-28"/>
		</contour>
	</outline>
</glyph>
<glyph name="bracketrightwhite" format="1">
	<unicode hex="27E7"/>
	<advance width="437"/>
	<outline>
		<contour>
			<point x="46" y="-152" type="line"/>
			<point x="350" y="-152" type="line"/>
			<point x="350" y="708" type="line"/>
			<point x="46" y="708" type="line"/>
			<point x="46" y="630" type="line"/>
			<point x="139" y="630" type="line"/>
			<point x="139" y="-74" type="line"/>
			<point x="46" y="-74" type="line"/>
		</contour>
		<contour>
			<point x="215" y="-74" type="line"/>
			<point x="215" y="630" type="line"/>
			<point x="265" y="630" type="line"/>
			<point x="265" y="-74" type="line"/>
		</contour>
	</outline>
</glyph>
<glyph name="A.sc" format="1">
  <advance width="503"/>
  <outline>
    <contour>
      <point x="248" y="564" type="move" name="aboveUC"/>
    </contour>
    <contour>
      <point x="404" y="0" type="move" name="ogonekUC"/>
    </contour>
    <contour>
      <point x="248" y="-22" type="move" name="belowLC"/>
    </contour>
    <contour>
      <point x="-6" y="0" type="line"/>
      <point x="143" y="0" type="line"/>
      <point x="208" y="255" type="line" smooth="yes"/>
      <point x="221" y="305"/>
      <point x="234" y="368"/>
      <point x="246" y="421" type="curve"/>
      <point x="250" y="421" type="line"/>
      <point x="265" y="369"/>
      <point x="277" y="305"/>
      <point x="290" y="255" type="curve" smooth="yes"/>
      <point x="356" y="0" type="line"/>
      <point x="510" y="0" type="line"/>
      <point x="339" y="528" type="line"/>
      <point x="164" y="528" type="line"/>
    </contour>
    <contour>
      <point x="114" y="108" type="line"/>
      <point x="388" y="108" type="line"/>
      <point x="388" y="214" type="line"/>
      <point x="114" y="214" type="line"/>
    </contour>
  </outline>
</glyph>
<glyph name="A.sups" format="1">
  <advance width="387"/>
  <outline>
    <contour>
      <point x="-5" y="262" type="line"/>
      <point x="101" y="262" type="line"/>
      <point x="157" y="480" type="line" smooth="yes"/>
      <point x="167" y="522"/>
      <point x="181" y="572"/>
      <point x="191" y="616" type="curve"/>
      <point x="193" y="616" type="line"/>
      <point x="205" y="573"/>
      <point x="217" y="522"/>
      <point x="228" y="480" type="curve" smooth="yes"/>
      <point x="283" y="262" type="line"/>
      <point x="394" y="262" type="line"/>
      <point x="257" y="694" type="line"/>
      <point x="132" y="694" type="line"/>
    </contour>
    <contour>
      <point x="86" y="362" type="line"/>
      <point x="299" y="362" type="line"/>
      <point x="299" y="442" type="line"/>
      <point x="86" y="442" type="line"/>
    </contour>
  </outline>
</glyph>
<glyph name="AE" format="1">
  <advance width="845"/>
  <outline>
    <contour>
      <point x="-14" y="0" type="line"/>
      <point x="141" y="0" type="line"/>
      <point x="303" y="356" type="line"/>
      <point x="329" y="413"/>
      <point x="355" y="477"/>
      <point x="382" y="541" type="curve"/>
      <point x="386" y="541" type="line"/>
      <point x="386" y="0" type="line"/>
      <point x="793" y="0" type="line"/>
      <point x="793" y="124" type="line"/>
      <point x="533" y="124" type="line"/>
      <point x="533" y="274" type="line"/>
      <point x="744" y="274" type="line"/>
      <point x="744" y="397" type="line"/>
      <point x="533" y="397" type="line"/>
      <point x="533" y="528" type="line"/>
      <point x="783" y="528" type="line"/>
      <point x="783" y="652" type="line"/>
      <point x="296" y="652" type="line"/>
    </contour>
    <contour>
      <point x="138" y="149" type="line"/>
      <point x="463" y="149" type="line"/>
      <point x="463" y="263" type="line"/>
      <point x="138" y="263" type="line"/>
    </contour>
    <contour>
      <point x="537" y="694" type="move" name="aboveUC"/>
    </contour>
  </outline>
</glyph>
<glyph name="Acyr" format="1">
  <advance width="573"/>
  <outline>
    <contour>
      <point x="283" y="674" type="move" name="aboveUC"/>
    </contour>
    <component base="A"/>
  </outline>
</glyph>
<glyph name="Alpha.sc" format="1">
  <advance width="503"/>
  <outline>
    <contour>
      <point x="248" y="564" type="move" name="aboveLC"/>
    </contour>
    <contour>
      <point x="248" y="-22" type="move" name="belowLC"/>
    </contour>
    <component base="A.sc"/>
  </outline>
</glyph>
<glyph name="Aogonek" format="1">
  <advance width="573"/>
  <outline>
    <contour>
      <point x="496" y="-223" type="curve" smooth="yes"/>
      <point x="531" y="-223"/>
      <point x="575" y="-208"/>
      <point x="601" y="-188" type="curve"/>
      <point x="567" y="-114" type="line"/>
      <point x="557" y="-121"/>
      <point x="543" y="-128"/>
      <point x="528" y="-128" type="curve" smooth="yes"/>
      <point x="507" y="-128"/>
      <point x="489" y="-115"/>
      <point x="489" y="-90" type="curve" smooth="yes"/>
      <point x="489" y="-50"/>
      <point x="524" y="-5"/>
      <point x="579" y="0" type="curve"/>
      <point x="375" y="652" type="line"/>
      <point x="198" y="652" type="line"/>
      <point x="-6" y="0" type="line"/>
      <point x="144" y="0" type="line"/>
      <point x="230" y="330" type="line" smooth="yes"/>
      <point x="248" y="395"/>
      <point x="265" y="471"/>
      <point x="281" y="540" type="curve"/>
      <point x="285" y="540" type="line"/>
      <point x="302" y="472"/>
      <point x="320" y="395"/>
      <point x="338" y="330" type="curve" smooth="yes"/>
      <point x="423" y="0" type="line"/>
      <point x="463" y="0" type="line"/>
      <point x="430" y="-19"/>
      <point x="382" y="-67"/>
      <point x="382" y="-129" type="curve" smooth="yes"/>
      <point x="382" y="-189"/>
      <point x="432" y="-223"/>
    </contour>
    <contour>
      <point x="128" y="155" type="line"/>
      <point x="442" y="155" type="line"/>
      <point x="442" y="270" type="line"/>
      <point x="128" y="270" type="line"/>
    </contour>
    <contour>
      <point x="286" y="674" type="move" name="aboveUC"/>
    </contour>
  </outline>
</glyph>
<glyph name="Aogonek.sc" format="1">
  <advance width="503"/>
  <outline>
    <contour>
      <point x="248" y="564" type="move" name="aboveUC"/>
    </contour>
    <contour>
      <point x="427" y="-223" type="curve" smooth="yes"/>
      <point x="462" y="-223"/>
      <point x="506" y="-208"/>
      <point x="531" y="-188" type="curve"/>
      <point x="498" y="-114" type="line"/>
      <point x="488" y="-121"/>
      <point x="474" y="-128"/>
      <point x="458" y="-128" type="curve" smooth="yes"/>
      <point x="437" y="-128"/>
      <point x="420" y="-115"/>
      <point x="420" y="-90" type="curve" smooth="yes"/>
      <point x="420" y="-50"/>
      <point x="455" y="-5"/>
      <point x="510" y="0" type="curve"/>
      <point x="339" y="528" type="line"/>
      <point x="164" y="528" type="line"/>
      <point x="-6" y="0" type="line"/>
      <point x="143" y="0" type="line"/>
      <point x="208" y="255" type="line" smooth="yes"/>
      <point x="221" y="305"/>
      <point x="234" y="368"/>
      <point x="246" y="421" type="curve"/>
      <point x="250" y="421" type="line"/>
      <point x="265" y="369"/>
      <point x="277" y="305"/>
      <point x="290" y="255" type="curve" smooth="yes"/>
      <point x="356" y="0" type="line"/>
      <point x="394" y="0" type="line"/>
      <point x="361" y="-19"/>
      <point x="312" y="-67"/>
      <point x="312" y="-129" type="curve" smooth="yes"/>
      <point x="312" y="-189"/>
      <point x="363" y="-223"/>
    </contour>
    <contour>
      <point x="114" y="108" type="line"/>
      <point x="388" y="108" type="line"/>
      <point x="388" y="214" type="line"/>
      <point x="114" y="214" type="line"/>
    </contour>
  </outline>
</glyph>
<glyph name="B.sups" format="1">
  <advance width="407"/>
  <outline>
    <contour>
      <point x="50" y="262" type="line"/>
      <point x="216" y="262" type="line" smooth="yes"/>
      <point x="310" y="262"/>
      <point x="386" y="302"/>
      <point x="386" y="390" type="curve" smooth="yes"/>
      <point x="386" y="447"/>
      <point x="354" y="479"/>
      <point x="292" y="491" type="curve"/>
      <point x="292" y="493" type="line"/>
      <point x="343" y="509"/>
      <point x="365" y="550"/>
      <point x="365" y="588" type="curve" smooth="yes"/>
      <point x="365" y="670"/>
      <point x="294" y="694"/>
      <point x="203" y="694" type="curve" smooth="yes"/>
      <point x="50" y="694" type="line"/>
    </contour>
    <contour>
      <point x="154" y="521" type="line"/>
      <point x="154" y="615" type="line"/>
      <point x="199" y="615" type="line" smooth="yes"/>
      <point x="243" y="615"/>
      <point x="264" y="601"/>
      <point x="264" y="572" type="curve" smooth="yes"/>
      <point x="264" y="542"/>
      <point x="244" y="521"/>
      <point x="198" y="521" type="curve" smooth="yes"/>
    </contour>
    <contour>
      <point x="154" y="341" type="line"/>
      <point x="154" y="449" type="line"/>
      <point x="207" y="449" type="line" smooth="yes"/>
      <point x="259" y="449"/>
      <point x="284" y="433"/>
      <point x="284" y="398" type="curve" smooth="yes"/>
      <point x="284" y="361"/>
      <point x="259" y="341"/>
      <point x="207" y="341" type="curve" smooth="yes"/>
    </contour>
  </outline>
</glyph>
<glyph name="Be" format="1">
  <advance width="600"/>
  <outline>
    <contour>
      <point x="77" y="0" type="line"/>
      <point x="318" y="0" type="line" smooth="yes"/>
      <point x="455" y="0"/>
      <point x="564" y="58"/>
      <point x="564" y="207" type="curve" smooth="yes"/>
      <point x="564" y="350"/>
      <point x="451" y="397"/>
      <point x="314" y="397" type="curve" smooth="yes"/>
      <point x="224" y="397" type="line"/>
      <point x="224" y="528" type="line"/>
      <point x="522" y="528" type="line"/>
      <point x="522" y="652" type="line"/>
      <point x="77" y="652" type="line"/>
    </contour>
    <contour>
      <point x="224" y="114" type="line"/>
      <point x="224" y="289" type="line"/>
      <point x="302" y="289" type="line" smooth="yes"/>
      <point x="379" y="289"/>
      <point x="420" y="266"/>
      <point x="420" y="205" type="curve" smooth="yes"/>
      <point x="420" y="142"/>
      <point x="381" y="114"/>
      <point x="303" y="114" type="curve" smooth="yes"/>
    </contour>
  </outline>
</glyph>
<glyph name="Be.sc" format="1">
  <advance width="543"/>
  <outline>
    <contour>
      <point x="77" y="0" type="line"/>
      <point x="292" y="0" type="line" smooth="yes"/>
      <point x="407" y="0"/>
      <point x="507" y="43"/>
      <point x="507" y="163" type="curve" smooth="yes"/>
      <point x="507" y="286"/>
      <point x="405" y="317"/>
      <point x="288" y="317" type="curve" smooth="yes"/>
      <point x="224" y="317" type="line"/>
      <point x="224" y="407" type="line"/>
      <point x="471" y="407" type="line"/>
      <point x="471" y="528" type="line"/>
      <point x="77" y="528" type="line"/>
    </contour>
    <contour>
      <point x="224" y="107" type="line"/>
      <point x="224" y="225" type="line"/>
      <point x="278" y="225" type="line" smooth="yes"/>
      <point x="334" y="225"/>
      <point x="365" y="211"/>
      <point x="365" y="169" type="curve" smooth="yes"/>
      <point x="365" y="129"/>
      <point x="336" y="107"/>
      <point x="278" y="107" type="curve" smooth="yes"/>
    </contour>
  </outline>
</glyph>
<glyph name="Beta.sc" format="1">
  <advance width="546"/>
  <outline>
    <contour>
      <point x="290" y="564" type="move" name="aboveLC"/>
    </contour>
    <contour>
      <point x="299" y="-22" type="move" name="belowLC"/>
    </contour>
    <component base="B.sc"/>
  </outline>
</glyph>
<glyph name="Bsmall" format="1">
  <advance width="528"/>
  <outline>
    <contour>
      <point x="262" y="502" type="move" name="aboveLC"/>
    </contour>
    <contour>
      <point x="277" y="-22" type="move" name="belowLC"/>
    </contour>
    <component base="ve"/>
  </outline>
</glyph>
<glyph name="Bstroke.sc" format="1">
  <advance width="570"/>
  <outline>
    <contour>
      <point x="101" y="0" type="line"/>
      <point x="317" y="0" type="line" smooth="yes"/>
      <point x="439" y="0"/>
      <point x="538" y="45"/>
      <point x="538" y="154" type="curve" smooth="yes"/>
      <point x="538" y="225"/>
      <point x="498" y="263"/>
      <point x="421" y="279" type="curve"/>
      <point x="421" y="283" type="line"/>
      <point x="485" y="299"/>
      <point x="512" y="351"/>
      <point x="512" y="396" type="curve" smooth="yes"/>
      <point x="512" y="501"/>
      <point x="418" y="528"/>
      <point x="301" y="528" type="curve" smooth="yes"/>
      <point x="101" y="528" type="line"/>
    </contour>
    <contour>
      <point x="249" y="314" type="line"/>
      <point x="249" y="438" type="line"/>
      <point x="302" y="438" type="line" smooth="yes"/>
      <point x="354" y="438"/>
      <point x="378" y="420"/>
      <point x="378" y="380" type="curve" smooth="yes"/>
      <point x="378" y="341"/>
      <point x="357" y="314"/>
      <point x="302" y="314" type="curve" smooth="yes"/>
    </contour>
    <contour>
      <point x="249" y="90" type="line"/>
      <point x="249" y="228" type="line"/>
      <point x="307" y="228" type="line" smooth="yes"/>
      <point x="368" y="228"/>
      <point x="396" y="205"/>
      <point x="396" y="161" type="curve" smooth="yes"/>
      <point x="396" y="118"/>
      <point x="367" y="90"/>
      <point x="307" y="90" type="curve" smooth="yes"/>
    </contour>
    <contour>
      <point x="26" y="132" type="line"/>
      <point x="343" y="132" type="line"/>
      <point x="343" y="186" type="line"/>
      <point x="103" y="186" type="line"/>
      <point x="26" y="181" type="line"/>
    </contour>
  </outline>
</glyph>
<glyph name="Be.sc" format="1">
  <advance width="538"/>
  <outline>
    <contour>
      <point x="77" y="0" type="line"/>
      <point x="286" y="0" type="line" smooth="yes"/>
      <point x="406" y="0"/>
      <point x="505" y="42"/>
      <point x="505" y="168" type="curve" smooth="yes"/>
      <point x="505" y="282"/>
      <point x="406" y="321"/>
      <point x="286" y="321" type="curve" smooth="yes"/>
      <point x="222" y="321" type="line"/>
      <point x="222" y="406" type="line"/>
      <point x="456" y="406" type="line"/>
      <point x="456" y="527" type="line"/>
      <point x="77" y="527" type="line"/>
    </contour>
    <contour>
      <point x="222" y="111" type="line"/>
      <point x="222" y="220" type="line"/>
      <point x="276" y="220" type="line" smooth="yes"/>
      <point x="336" y="220"/>
      <point x="364" y="205"/>
      <point x="364" y="168" type="curve" smooth="yes"/>
      <point x="364" y="131"/>
      <point x="336" y="111"/>
      <point x="276" y="111" type="curve" smooth="yes"/>
    </contour>
  </outline>
</glyph>
<glyph name="C" format="1">
  <advance width="582"/>
  <outline>
    <contour>
      <point x="343" y="674" type="move" name="aboveUC"/>
    </contour>
    <contour>
      <point x="350" y="0" type="move" name="baseLC"/>
    </contour>
    <contour>
      <point x="350" y="-22" type="move" name="belowLC"/>
    </contour>
    <contour>
      <point x="349" y="-12" type="curve" smooth="yes"/>
      <point x="434" y="-12"/>
      <point x="506" y="21"/>
      <point x="560" y="84" type="curve"/>
      <point x="482" y="176" type="line"/>
      <point x="450" y="142"/>
      <point x="408" y="115"/>
      <point x="355" y="115" type="curve" smooth="yes"/>
      <point x="259" y="115"/>
      <point x="197" y="193"/>
      <point x="197" y="327" type="curve" smooth="yes"/>
      <point x="197" y="458"/>
      <point x="268" y="537"/>
      <point x="357" y="537" type="curve" smooth="yes"/>
      <point x="404" y="537"/>
      <point x="439" y="515"/>
      <point x="472" y="485" type="curve"/>
      <point x="550" y="579" type="line"/>
      <point x="506" y="624"/>
      <point x="438" y="664"/>
      <point x="354" y="664" type="curve" smooth="yes"/>
      <point x="189" y="664"/>
      <point x="46" y="538"/>
      <point x="46" y="322" type="curve" smooth="yes"/>
      <point x="46" y="103"/>
      <point x="184" y="-12"/>
    </contour>
  </outline>
</glyph>
<glyph name="C.sc" format="1">
  <advance width="520"/>
  <outline>
    <contour>
      <point x="307" y="567" type="move" name="aboveUC"/>
    </contour>
    <contour>
      <point x="307" y="0" type="move" name="baseLC"/>
    </contour>
    <contour>
      <point x="307" y="-22" type="move" name="belowLC"/>
    </contour>
    <contour>
      <point x="312" y="-12" type="curve" smooth="yes"/>
      <point x="384" y="-12"/>
      <point x="450" y="13"/>
      <point x="498" y="65" type="curve"/>
      <point x="418" y="151" type="line"/>
      <point x="394" y="127"/>
      <point x="362" y="109"/>
      <point x="318" y="109" type="curve" smooth="yes"/>
      <point x="244" y="109"/>
      <point x="195" y="163"/>
      <point x="195" y="265" type="curve" smooth="yes"/>
      <point x="195" y="362"/>
      <point x="252" y="419"/>
      <point x="322" y="419" type="curve" smooth="yes"/>
      <point x="359" y="419"/>
      <point x="384" y="407"/>
      <point x="412" y="382" type="curve"/>
      <point x="492" y="470" type="line"/>
      <point x="452" y="508"/>
      <point x="391" y="540"/>
      <point x="321" y="540" type="curve" smooth="yes"/>
      <point x="175" y="540"/>
      <point x="46" y="439"/>
      <point x="46" y="260" type="curve" smooth="yes"/>
      <point x="46" y="77"/>
      <point x="168" y="-12"/>
    </contour>
  </outline>
</glyph>
<glyph name="C.sups" format="1">
  <advance width="390"/>
  <outline>
    <contour>
      <point x="233" y="254" type="curve" smooth="yes"/>
      <point x="291" y="254"/>
      <point x="340" y="275"/>
      <point x="377" y="319" type="curve"/>
      <point x="321" y="381" type="line"/>
      <point x="300" y="357"/>
      <point x="274" y="342"/>
      <point x="239" y="342" type="curve" smooth="yes"/>
      <point x="177" y="342"/>
      <point x="137" y="392"/>
      <point x="137" y="477" type="curve" smooth="yes"/>
      <point x="137" y="560"/>
      <point x="183" y="612"/>
      <point x="242" y="612" type="curve" smooth="yes"/>
      <point x="271" y="612"/>
      <point x="291" y="600"/>
      <point x="314" y="581" type="curve"/>
      <point x="370" y="644" type="line"/>
      <point x="342" y="676"/>
      <point x="296" y="702"/>
      <point x="240" y="702" type="curve" smooth="yes"/>
      <point x="127" y="702"/>
      <point x="30" y="616"/>
      <point x="30" y="474" type="curve" smooth="yes"/>
      <point x="30" y="329"/>
      <point x="122" y="254"/>
    </contour>
  </outline>
</glyph>
<glyph name="Che" format="1">
  <advance width="630"/>
  <outline>
    <contour>
      <point x="405" y="0" type="line"/>
      <point x="553" y="0" type="line"/>
      <point x="553" y="652" type="line"/>
      <point x="405" y="652" type="line"/>
      <point x="405" y="381" type="line"/>
      <point x="385" y="377"/>
      <point x="361" y="374"/>
      <point x="322" y="374" type="curve" smooth="yes"/>
      <point x="241" y="374"/>
      <point x="205" y="405"/>
      <point x="205" y="495" type="curve" smooth="yes"/>
      <point x="205" y="652" type="line"/>
      <point x="60" y="652" type="line"/>
      <point x="60" y="495" type="line" smooth="yes"/>
      <point x="60" y="320"/>
      <point x="153" y="257"/>
      <point x="307" y="257" type="curve" smooth="yes"/>
      <point x="350" y="257"/>
      <point x="376" y="259"/>
      <point x="405" y="264" type="curve"/>
    </contour>
    <contour>
      <point x="308" y="674" type="move" name="aboveUC"/>
    </contour>
  </outline>
</glyph>
<glyph name="Che.sc" format="1">
  <advance width="576"/>
  <outline>
    <contour>
      <point x="352" y="0" type="line"/>
      <point x="499" y="0" type="line"/>
      <point x="499" y="528" type="line"/>
      <point x="352" y="528" type="line"/>
      <point x="352" y="316" type="line"/>
      <point x="338" y="313"/>
      <point x="321" y="311"/>
      <point x="291" y="311" type="curve" smooth="yes"/>
      <point x="229" y="311"/>
      <point x="205" y="335"/>
      <point x="205" y="401" type="curve" smooth="yes"/>
      <point x="205" y="528" type="line"/>
      <point x="60" y="528" type="line"/>
      <point x="60" y="401" type="line" smooth="yes"/>
      <point x="60" y="251"/>
      <point x="141" y="197"/>
      <point x="274" y="197" type="curve" smooth="yes"/>
      <point x="308" y="197"/>
      <point x="329" y="200"/>
      <point x="352" y="204" type="curve"/>
    </contour>
  </outline>
</glyph>
<glyph name="Chedescender.sc" format="1">
  <advance width="552"/>
  <outline>
    <contour>
      <point x="398" y="-172" type="line"/>
      <point x="525" y="-172" type="line"/>
      <point x="539" y="22" type="line"/>
      <point x="539" y="122" type="line"/>
      <point x="367" y="122" type="line"/>
      <point x="367" y="0" type="line"/>
      <point x="398" y="0" type="line"/>
    </contour>
    <component base="Che.sc" xOffset="-40"/>
  </outline>
</glyph>
<glyph name="Chedescender.sc" format="1">
  <advance width="591"/>
  <outline>
    <contour>
      <point x="438" y="-172" type="line"/>
      <point x="564" y="-172" type="line"/>
      <point x="578" y="22" type="line"/>
      <point x="578" y="122" type="line"/>
      <point x="407" y="122" type="line"/>
      <point x="407" y="0" type="line"/>
      <point x="438" y="0" type="line"/>
    </contour>
    <component base="Che.sc"/>
  </outline>
</glyph>
<glyph name="Chi.sc" format="1">
  <advance width="509"/>
  <outline>
    <contour>
      <point x="307" y="567" type="move" name="aboveUC"/>
    </contour>
    <contour>
      <point x="307" y="0" type="move" name="baseLC"/>
    </contour>
    <contour>
      <point x="307" y="-22" type="move" name="belowLC"/>
    </contour>
    <component base="X.sc"/>
  </outline>
</glyph>
<glyph name="Che.sc" format="1">
  <advance width="574"/>
  <outline>
    <contour>
      <point x="352" y="0" type="line"/>
      <point x="498" y="0" type="line"/>
      <point x="498" y="527" type="line"/>
      <point x="352" y="527" type="line"/>
      <point x="352" y="320" type="line"/>
      <point x="333" y="310"/>
      <point x="310" y="308"/>
      <point x="289" y="308" type="curve" smooth="yes"/>
      <point x="230" y="308"/>
      <point x="202" y="337"/>
      <point x="202" y="397" type="curve"/>
      <point x="202" y="527" type="line"/>
      <point x="60" y="527" type="line"/>
      <point x="60" y="397" type="line"/>
      <point x="60" y="253"/>
      <point x="149" y="194"/>
      <point x="274" y="194" type="curve"/>
      <point x="300" y="194"/>
      <point x="323" y="197"/>
      <point x="352" y="205" type="curve"/>
    </contour>
  </outline>
</glyph>
<glyph name="Chedescender.sc" format="1">
  <advance width="617"/>
  <outline>
    <contour>
      <point x="452" y="-188" type="line"/>
      <point x="580" y="-188" type="line"/>
      <point x="593" y="32" type="line"/>
      <point x="593" y="124" type="line"/>
      <point x="421" y="124" type="line"/>
      <point x="421" y="0" type="line"/>
      <point x="452" y="0" type="line"/>
    </contour>
    <component base="Che" xOffset="-40"/>
  </outline>
</glyph>
<glyph name="D.sups" format="1">
  <advance width="427"/>
  <outline>
    <contour>
      <point x="50" y="262" type="line"/>
      <point x="181" y="262" type="line" smooth="yes"/>
      <point x="310" y="262"/>
      <point x="397" y="331"/>
      <point x="397" y="481" type="curve" smooth="yes"/>
      <point x="397" y="629"/>
      <point x="310" y="694"/>
      <point x="175" y="694" type="curve" smooth="yes"/>
      <point x="50" y="694" type="line"/>
    </contour>
    <contour>
      <point x="154" y="344" type="line"/>
      <point x="154" y="611" type="line"/>
      <point x="171" y="611" type="line" smooth="yes"/>
      <point x="243" y="611"/>
      <point x="290" y="584"/>
      <point x="290" y="480" type="curve" smooth="yes"/>
      <point x="290" y="378"/>
      <point x="243" y="344"/>
      <point x="172" y="344" type="curve" smooth="yes"/>
    </contour>
  </outline>
</glyph>
<glyph name="De" format="1">
  <advance width="670"/>
  <outline>
    <contour>
      <point x="157" y="0" type="line"/>
      <point x="513" y="0" type="line"/>
      <point x="513" y="-188" type="line"/>
      <point x="644" y="-188" type="line"/>
      <point x="657" y="32" type="line"/>
      <point x="657" y="124" type="line"/>
      <point x="13" y="124" type="line"/>
      <point x="13" y="32" type="line"/>
      <point x="26" y="-188" type="line"/>
      <point x="157" y="-188" type="line"/>
    </contour>
    <contour>
      <point x="430" y="45" type="line"/>
      <point x="577" y="45" type="line"/>
      <point x="577" y="652" type="line"/>
      <point x="190" y="652" type="line"/>
      <point x="169" y="527"/>
      <point x="158" y="464"/>
      <point x="136" y="349" type="curve" smooth="yes"/>
      <point x="106" y="191"/>
      <point x="72" y="134"/>
      <point x="43" y="124" type="curve"/>
      <point x="66" y="32" type="line"/>
      <point x="171" y="35"/>
      <point x="232" y="142"/>
      <point x="268" y="330" type="curve" smooth="yes"/>
      <point x="284" y="410"/>
      <point x="290" y="450"/>
      <point x="304" y="528" type="curve"/>
      <point x="430" y="528" type="line"/>
    </contour>
  </outline>
</glyph>
<glyph name="De.sc" format="1">
	<advance width="604"/>
	<outline>
		<contour>
			<point x="153" y="-172" type="line"/>
			<point x="153" y="0" type="line"/>
			<point x="452" y="0" type="line"/>
			<point x="452" y="-172" type="line"/>
			<point x="579" y="-172" type="line"/>
			<point x="593" y="22" type="line"/>
			<point x="593" y="122" type="line"/>
			<point x="13" y="122" type="line"/>
			<point x="13" y="22" type="line"/>
			<point x="27" y="-172" type="line"/>
		</contour>
		<contour>
			<point x="366" y="43" type="line"/>
			<point x="514" y="43" type="line"/>
			<point x="514" y="528" type="line"/>
			<point x="164" y="528" type="line"/>
			<point x="146" y="433"/>
			<point x="137" y="386"/>
			<point x="119" y="301" type="curve" smooth="yes"/>
			<point x="93" y="178"/>
			<point x="64" y="129"/>
			<point x="39" y="121" type="curve"/>
			<point x="57" y="30" type="line"/>
			<point x="160" y="30"/>
			<point x="218" y="131"/>
			<point x="249" y="282" type="curve" smooth="yes"/>
			<point x="260" y="334"/>
			<point x="265" y="357"/>
			<point x="275" y="408" type="curve"/>
			<point x="366" y="408" type="line"/>
		</contour>
	</outline>
</glyph>
<glyph name="Dje" format="1">
  <advance width="717"/>
  <outline>
    <contour>
      <point x="472" y="-12" type="curve" smooth="yes"/>
      <point x="582" y="-12"/>
      <point x="662" y="47"/>
      <point x="662" y="192" type="curve" smooth="yes"/>
      <point x="662" y="347"/>
      <point x="551" y="408"/>
      <point x="429" y="408" type="curve" smooth="yes"/>
      <point x="383" y="408"/>
      <point x="363" y="405"/>
      <point x="332" y="400" type="curve"/>
      <point x="332" y="528" type="line"/>
      <point x="539" y="528" type="line"/>
      <point x="539" y="652" type="line"/>
      <point x="25" y="652" type="line"/>
      <point x="25" y="528" type="line"/>
      <point x="184" y="528" type="line"/>
      <point x="184" y="0" type="line"/>
      <point x="332" y="0" type="line"/>
      <point x="332" y="283" type="line"/>
      <point x="354" y="287"/>
      <point x="373" y="290"/>
      <point x="407" y="290" type="curve" smooth="yes"/>
      <point x="479" y="290"/>
      <point x="518" y="258"/>
      <point x="518" y="190" type="curve" smooth="yes"/>
      <point x="518" y="129"/>
      <point x="483" y="105"/>
      <point x="454" y="105" type="curve" smooth="yes"/>
      <point x="444" y="105"/>
      <point x="437" y="106"/>
      <point x="427" y="110" type="curve"/>
      <point x="404" y="-2" type="line"/>
      <point x="423" y="-9"/>
      <point x="446" y="-12"/>
    </contour>
  </outline>
</glyph>
<glyph name="Dzhe" format="1">
  <advance width="663"/>
  <outline>
    <contour>
      <point x="77" y="0" type="line"/>
      <point x="586" y="0" type="line"/>
      <point x="586" y="652" type="line"/>
      <point x="439" y="652" type="line"/>
      <point x="439" y="124" type="line"/>
      <point x="224" y="124" type="line"/>
      <point x="224" y="652" type="line"/>
      <point x="77" y="652" type="line"/>
    </contour>
    <contour>
      <point x="267" y="-188" type="line"/>
      <point x="399" y="-188" type="line"/>
      <point x="411" y="22" type="line"/>
      <point x="267" y="0" type="line"/>
    </contour>
  </outline>
</glyph>
<glyph name="Dzhe.sc" format="1">
  <advance width="603"/>
  <outline>
    <contour>
      <point x="77" y="0" type="line"/>
      <point x="529" y="0" type="line"/>
      <point x="529" y="528" type="line"/>
      <point x="381" y="528" type="line"/>
      <point x="381" y="122" type="line"/>
      <point x="224" y="122" type="line"/>
      <point x="224" y="528" type="line"/>
      <point x="77" y="528" type="line"/>
    </contour>
    <contour>
      <point x="236" y="-172" type="line"/>
      <point x="362" y="-172" type="line"/>
      <point x="379" y="10" type="line"/>
      <point x="230" y="10" type="line"/>
    </contour>
  </outline>
</glyph>
<glyph name="De.sc" format="1">
  <advance width="575"/>
  <outline>
    <contour>
      <point x="347" y="0" type="line"/>
      <point x="493" y="0" type="line"/>
      <point x="493" y="527" type="line"/>
      <point x="117" y="527" type="line"/>
      <point x="117" y="350" type="line" smooth="yes"/>
      <point x="117" y="310"/>
      <point x="114" y="263"/>
      <point x="102" y="216" type="curve" smooth="yes"/>
      <point x="90" y="169"/>
      <point x="68" y="132"/>
      <point x="34" y="121" type="curve"/>
      <point x="36" y="40" type="line"/>
      <point x="156" y="49"/>
      <point x="217" y="110"/>
      <point x="234" y="191" type="curve" smooth="yes"/>
      <point x="245" y="246"/>
      <point x="251" y="318"/>
      <point x="251" y="367" type="curve" smooth="yes"/>
      <point x="251" y="406" type="line"/>
      <point x="347" y="406" type="line"/>
    </contour>
    <contour>
      <point x="23" y="-155" type="line"/>
      <point x="146" y="-155" type="line"/>
      <point x="146" y="0" type="line"/>
      <point x="546" y="0" type="line"/>
      <point x="546" y="121" type="line"/>
      <point x="8" y="121" type="line"/>
      <point x="8" y="20" type="line"/>
    </contour>
    <contour>
      <point x="424" y="-155" type="line"/>
      <point x="547" y="-155" type="line"/>
      <point x="562" y="20" type="line"/>
      <point x="562" y="121" type="line"/>
      <point x="33" y="121" type="line"/>
      <point x="33" y="0" type="line"/>
      <point x="424" y="0" type="line"/>
    </contour>
  </outline>
</glyph>
<glyph name="Dje.sc" format="1">
  <advance width="642"/>
  <outline>
    <contour>
      <point x="405" y="-150" type="curve" smooth="yes"/>
      <point x="514" y="-150"/>
      <point x="588" y="-61"/>
      <point x="588" y="115" type="curve" smooth="yes"/>
      <point x="588" y="277"/>
      <point x="500" y="336"/>
      <point x="371" y="336" type="curve" smooth="yes"/>
      <point x="348" y="336"/>
      <point x="327" y="333"/>
      <point x="301" y="325" type="curve"/>
      <point x="301" y="527" type="line"/>
      <point x="156" y="527" type="line"/>
      <point x="156" y="0" type="line"/>
      <point x="301" y="0" type="line"/>
      <point x="301" y="211" type="line"/>
      <point x="317" y="219"/>
      <point x="338" y="223"/>
      <point x="355" y="223" type="curve" smooth="yes"/>
      <point x="420" y="223"/>
      <point x="446" y="190"/>
      <point x="446" y="115" type="curve" smooth="yes"/>
      <point x="446" y="-15"/>
      <point x="416" y="-36"/>
      <point x="388" y="-36" type="curve" smooth="yes"/>
      <point x="375" y="-36"/>
      <point x="360" y="-35"/>
      <point x="350" y="-30" type="curve"/>
      <point x="325" y="-134" type="line"/>
      <point x="342" y="-145"/>
      <point x="370" y="-150"/>
    </contour>
    <contour>
      <point x="25" y="407" type="line"/>
      <point x="449" y="407" type="line"/>
      <point x="449" y="528" type="line"/>
      <point x="25" y="528" type="line"/>
    </contour>
  </outline>
</glyph>
<glyph name="Dzhe.sc" format="1">
  <advance width="609"/>
  <outline>
    <contour>
      <point x="77" y="0" type="line"/>
      <point x="532" y="0" type="line"/>
      <point x="532" y="528" type="line"/>
      <point x="388" y="528" type="line"/>
      <point x="388" y="121" type="line"/>
      <point x="222" y="121" type="line"/>
      <point x="222" y="528" type="line"/>
      <point x="77" y="528" type="line"/>
    </contour>
    <contour>
      <point x="245" y="-155" type="line"/>
      <point x="367" y="-155" type="line"/>
      <point x="382" y="20" type="line"/>
      <point x="245" y="0" type="line"/>
    </contour>
  </outline>
</glyph>
<glyph name="E" format="1">
  <advance width="548"/>
  <outline>
    <contour>
      <point x="77" y="0" type="line"/>
      <point x="495" y="0" type="line"/>
      <point x="495" y="124" type="line"/>
      <point x="224" y="124" type="line"/>
      <point x="224" y="274" type="line"/>
      <point x="446" y="274" type="line"/>
      <point x="446" y="397" type="line"/>
      <point x="224" y="397" type="line"/>
      <point x="224" y="528" type="line"/>
      <point x="485" y="528" type="line"/>
      <point x="485" y="652" type="line"/>
      <point x="77" y="652" type="line"/>
    </contour>
    <contour>
      <point x="289" y="674" type="move" name="aboveUC"/>
    </contour>
    <contour>
      <point x="394" y="0" type="move" name="ogonekUC"/>
    </contour>
    <contour>
      <point x="295" y="-22" type="move" name="belowLC"/>
    </contour>
  </outline>
</glyph>
<glyph name="E.sups" format="1">
  <advance width="369"/>
  <outline>
    <contour>
      <point x="50" y="262" type="line"/>
      <point x="334" y="262" type="line"/>
      <point x="334" y="348" type="line"/>
      <point x="154" y="348" type="line"/>
      <point x="154" y="441" type="line"/>
      <point x="302" y="441" type="line"/>
      <point x="302" y="527" type="line"/>
      <point x="154" y="527" type="line"/>
      <point x="154" y="608" type="line"/>
      <point x="328" y="608" type="line"/>
      <point x="328" y="694" type="line"/>
      <point x="50" y="694" type="line"/>
    </contour>
  </outline>
</glyph>
<glyph name="E.sups" format="1">
  <advance width="369"/>
  <outline>
    <contour>
      <point x="50" y="375" type="line"/>
      <point x="334" y="375" type="line"/>
      <point x="334" y="461" type="line"/>
      <point x="154" y="461" type="line"/>
      <point x="154" y="555" type="line"/>
      <point x="302" y="555" type="line"/>
      <point x="302" y="641" type="line"/>
      <point x="154" y="641" type="line"/>
      <point x="154" y="721" type="line"/>
      <point x="328" y="721" type="line"/>
      <point x="328" y="807" type="line"/>
      <point x="50" y="807" type="line"/>
    </contour>
  </outline>
</glyph>
<glyph name="Ecyr.sc" format="1">
  <advance width="516"/>
  <outline>
    <contour>
      <point x="214" y="540" type="curve" smooth="yes"/>
      <point x="143" y="540"/>
      <point x="77" y="516"/>
      <point x="29" y="468" type="curve"/>
      <point x="104" y="378" type="line"/>
      <point x="129" y="401"/>
      <point x="165" y="419"/>
      <point x="207" y="419" type="curve" smooth="yes"/>
      <point x="282" y="419"/>
      <point x="326" y="366"/>
      <point x="326" y="265" type="curve" smooth="yes"/>
      <point x="326" y="143"/>
      <point x="271" y="109"/>
      <point x="199" y="109" type="curve" smooth="yes"/>
      <point x="160" y="109"/>
      <point x="131" y="123"/>
      <point x="101" y="148" type="curve"/>
      <point x="22" y="60" type="line"/>
      <point x="63" y="21"/>
      <point x="126" y="-12"/>
      <point x="198" y="-12" type="curve" smooth="yes"/>
      <point x="344" y="-12"/>
      <point x="470" y="66"/>
      <point x="470" y="270" type="curve" smooth="yes"/>
      <point x="470" y="448"/>
      <point x="355" y="540"/>
    </contour>
    <contour>
      <point x="386" y="322" type="line"/>
      <point x="144" y="322" type="line"/>
      <point x="144" y="215" type="line"/>
      <point x="386" y="215" type="line"/>
    </contour>
  </outline>
</glyph>
<glyph name="Ef.sc" format="1">
  <advance width="677"/>
  <outline>
    <contour>
      <point x="366" y="60" type="line" smooth="yes"/>
      <point x="528" y="60"/>
      <point x="633" y="125"/>
      <point x="633" y="266" type="curve" smooth="yes"/>
      <point x="633" y="409"/>
      <point x="528" y="472"/>
      <point x="366" y="472" type="curve" smooth="yes"/>
      <point x="312" y="472" type="line" smooth="yes"/>
      <point x="150" y="472"/>
      <point x="45" y="409"/>
      <point x="45" y="266" type="curve" smooth="yes"/>
      <point x="45" y="125"/>
      <point x="150" y="60"/>
      <point x="312" y="60" type="curve" smooth="yes"/>
    </contour>
    <contour>
      <point x="301" y="167" type="line" smooth="yes"/>
      <point x="229" y="167"/>
      <point x="179" y="193"/>
      <point x="179" y="266" type="curve" smooth="yes"/>
      <point x="179" y="340"/>
      <point x="229" y="365"/>
      <point x="301" y="365" type="curve" smooth="yes"/>
      <point x="377" y="365" type="line" smooth="yes"/>
      <point x="449" y="365"/>
      <point x="499" y="340"/>
      <point x="499" y="266" type="curve" smooth="yes"/>
      <point x="499" y="193"/>
      <point x="449" y="167"/>
      <point x="377" y="167" type="curve" smooth="yes"/>
    </contour>
    <contour>
      <point x="277" y="-12" type="line"/>
      <point x="401" y="-12" type="line"/>
      <point x="401" y="540" type="line"/>
      <point x="277" y="540" type="line"/>
    </contour>
  </outline>
</glyph>
<glyph name="El" format="1">
  <advance width="657"/>
  <outline>
    <contour>
      <point x="66" y="-12" type="curve" smooth="yes"/>
      <point x="170" y="-12"/>
      <point x="224" y="47"/>
      <point x="266" y="266" type="curve" smooth="yes"/>
      <point x="282" y="352"/>
      <point x="298" y="436"/>
      <point x="314" y="528" type="curve"/>
      <point x="433" y="528" type="line"/>
      <point x="433" y="0" type="line"/>
      <point x="581" y="0" type="line"/>
      <point x="581" y="652" type="line"/>
      <point x="201" y="652" type="line"/>
      <point x="178" y="526"/>
      <point x="157" y="403"/>
      <point x="130" y="282" type="curve" smooth="yes"/>
      <point x="100" y="142"/>
      <point x="77" y="126"/>
      <point x="44" y="126" type="curve" smooth="yes"/>
      <point x="33" y="126"/>
      <point x="25" y="128"/>
      <point x="16" y="130" type="curve"/>
      <point x="-10" y="-2" type="line"/>
      <point x="11" y="-10"/>
      <point x="31" y="-12"/>
    </contour>
  </outline>
</glyph>
<glyph name="El.sc" format="1">
  <advance width="590"/>
  <outline>
    <contour>
      <point x="60" y="-12" type="curve" smooth="yes"/>
      <point x="156" y="-12"/>
      <point x="204" y="45"/>
      <point x="244" y="228" type="curve" smooth="yes"/>
      <point x="256" y="285"/>
      <point x="268" y="346"/>
      <point x="280" y="408" type="curve"/>
      <point x="365" y="408" type="line"/>
      <point x="365" y="0" type="line"/>
      <point x="513" y="0" type="line"/>
      <point x="513" y="528" type="line"/>
      <point x="170" y="528" type="line"/>
      <point x="152" y="434"/>
      <point x="132" y="336"/>
      <point x="110" y="243" type="curve" smooth="yes"/>
      <point x="84" y="136"/>
      <point x="65" y="124"/>
      <point x="38" y="124" type="curve" smooth="yes"/>
      <point x="30" y="124"/>
      <point x="23" y="126"/>
      <point x="15" y="128" type="curve"/>
      <point x="-10" y="-3" type="line"/>
      <point x="8" y="-10"/>
      <point x="30" y="-12"/>
    </contour>
  </outline>
</glyph>
<glyph name="Endescender.sc" format="1">
  <advance width="636"/>
  <outline>
    <contour>
      <point x="483" y="-172" type="line"/>
      <point x="609" y="-172" type="line"/>
      <point x="623" y="22" type="line"/>
      <point x="623" y="122" type="line"/>
      <point x="452" y="122" type="line"/>
      <point x="452" y="0" type="line"/>
      <point x="483" y="0" type="line"/>
    </contour>
    <component base="En.sc"/>
  </outline>
</glyph>
<glyph name="Eng.alt" format="1">
	<advance width="665"/>
	<outline>
		<contour>
			<point x="414" y="-182" type="curve" smooth="yes"/>
			<point x="543" y="-182"/>
			<point x="588" y="-91"/>
			<point x="588" y="18" type="curve" smooth="yes"/>
			<point x="588" y="652" type="line"/>
			<point x="448" y="652" type="line"/>
			<point x="448" y="422" type="line" smooth="yes"/>
			<point x="448" y="345"/>
			<point x="460" y="253"/>
			<point x="466" y="184" type="curve"/>
			<point x="462" y="184" type="line"/>
			<point x="398" y="328" type="line"/>
			<point x="228" y="652" type="line"/>
			<point x="77" y="652" type="line"/>
			<point x="77" y="0" type="line"/>
			<point x="217" y="0" type="line"/>
			<point x="217" y="231" type="line" smooth="yes"/>
			<point x="217" y="308"/>
			<point x="205" y="395"/>
			<point x="199" y="467" type="curve"/>
			<point x="203" y="467" type="line"/>
			<point x="267" y="325" type="line"/>
			<point x="437" y="0" type="line"/>
			<point x="444" y="0" type="line"/>
			<point x="444" y="-36"/>
			<point x="431" y="-66"/>
			<point x="392" y="-66" type="curve" smooth="yes"/>
			<point x="378" y="-66"/>
			<point x="366" y="-63"/>
			<point x="353" y="-59" type="curve"/>
			<point x="327" y="-168" type="line"/>
			<point x="347" y="-176"/>
			<point x="373" y="-182"/>
		</contour>
	</outline>
</glyph>
<glyph name="Eng.sca" format="1">
  <advance width="606"/>
  <outline>
    <contour>
      <point x="367" y="-169" type="curve" smooth="yes"/>
      <point x="488" y="-169"/>
      <point x="529" y="-84"/>
      <point x="529" y="10" type="curve" smooth="yes"/>
      <point x="529" y="528" type="line"/>
      <point x="394" y="528" type="line"/>
      <point x="394" y="383" type="line" smooth="yes"/>
      <point x="394" y="317"/>
      <point x="405" y="229"/>
      <point x="412" y="172" type="curve"/>
      <point x="408" y="172" type="line"/>
      <point x="350" y="298" type="line"/>
      <point x="225" y="528" type="line"/>
      <point x="77" y="528" type="line"/>
      <point x="77" y="0" type="line"/>
      <point x="212" y="0" type="line"/>
      <point x="212" y="145" type="line" smooth="yes"/>
      <point x="212" y="211"/>
      <point x="201" y="295"/>
      <point x="194" y="356" type="curve"/>
      <point x="198" y="356" type="line"/>
      <point x="255" y="231" type="line"/>
      <point x="385" y="0" type="line"/>
      <point x="387" y="0" type="line"/>
      <point x="387" y="-37"/>
      <point x="375" y="-57"/>
      <point x="344" y="-57" type="curve" smooth="yes"/>
      <point x="334" y="-57"/>
      <point x="324" y="-55"/>
      <point x="313" y="-52" type="curve"/>
      <point x="288" y="-158" type="line"/>
      <point x="306" y="-163"/>
      <point x="329" y="-169"/>
    </contour>
  </outline>
</glyph>
<glyph name="Eogonek" format="1">
  <advance width="548"/>
  <outline>
    <contour>
      <point x="411" y="-223" type="curve" smooth="yes"/>
      <point x="446" y="-223"/>
      <point x="490" y="-208"/>
      <point x="516" y="-188" type="curve"/>
      <point x="482" y="-114" type="line"/>
      <point x="472" y="-121"/>
      <point x="459" y="-128"/>
      <point x="446" y="-128" type="curve" smooth="yes"/>
      <point x="425" y="-128"/>
      <point x="404" y="-116"/>
      <point x="404" y="-90" type="curve" smooth="yes"/>
      <point x="404" y="-46"/>
      <point x="444" y="-2"/>
      <point x="490" y="0" type="curve" smooth="yes"/>
      <point x="495" y="0" type="line"/>
      <point x="495" y="124" type="line"/>
      <point x="224" y="124" type="line"/>
      <point x="224" y="274" type="line"/>
      <point x="446" y="274" type="line"/>
      <point x="446" y="397" type="line"/>
      <point x="224" y="397" type="line"/>
      <point x="224" y="528" type="line"/>
      <point x="485" y="528" type="line"/>
      <point x="485" y="652" type="line"/>
      <point x="77" y="652" type="line"/>
      <point x="77" y="0" type="line"/>
      <point x="375" y="0" type="line"/>
      <point x="341" y="-21"/>
      <point x="296" y="-68"/>
      <point x="296" y="-129" type="curve" smooth="yes"/>
      <point x="296" y="-189"/>
      <point x="347" y="-223"/>
    </contour>
    <contour>
      <point x="289" y="674" type="move" name="aboveUC"/>
    </contour>
  </outline>
</glyph>
<glyph name="Eogonek.sc" format="1">
	<advance width="499"/>
	<outline>
		<contour>
			<point x="362" y="-223" type="curve" smooth="yes"/>
			<point x="397" y="-223"/>
			<point x="441" y="-208"/>
			<point x="466" y="-188" type="curve"/>
			<point x="433" y="-114" type="line"/>
			<point x="423" y="-121"/>
			<point x="410" y="-128"/>
			<point x="397" y="-128" type="curve" smooth="yes"/>
			<point x="376" y="-128"/>
			<point x="355" y="-116"/>
			<point x="355" y="-90" type="curve" smooth="yes"/>
			<point x="355" y="-46"/>
			<point x="395" y="-2"/>
			<point x="441" y="0" type="curve" smooth="yes"/>
			<point x="446" y="0" type="line"/>
			<point x="446" y="114" type="line"/>
			<point x="224" y="114" type="line"/>
			<point x="224" y="215" type="line"/>
			<point x="406" y="215" type="line"/>
			<point x="406" y="322" type="line"/>
			<point x="224" y="322" type="line"/>
			<point x="224" y="414" type="line"/>
			<point x="436" y="414" type="line"/>
			<point x="436" y="528" type="line"/>
			<point x="77" y="528" type="line"/>
			<point x="77" y="0" type="line"/>
			<point x="326" y="0" type="line"/>
			<point x="292" y="-21"/>
			<point x="247" y="-68"/>
			<point x="247" y="-129" type="curve" smooth="yes"/>
			<point x="247" y="-189"/>
			<point x="298" y="-223"/>
		</contour>
		<contour>
			<point name="aboveUC" x="269" y="564" type="move"/>
		</contour>
	</outline>
</glyph>
<glyph name="Eta.sc" format="1">
	<advance width="621"/>
	<outline>
		<component base="H.sc"/>
		<contour>
			<point name="aboveLC" x="311" y="564" type="move"/>
		</contour>
		<contour>
			<point name="belowLC" x="311" y="-22" type="move"/>
		</contour>
	</outline>
</glyph>
<glyph name="Eta.sc" format="1">
  <advance width="621"/>
  <outline>
    <contour>
      <point x="311" y="564" type="move" name="aboveLC"/>
    </contour>
    <contour>
      <point x="311" y="-22" type="move" name="belowLC"/>
    </contour>
    <component base="H.sc"/>
  </outline>
</glyph>
<glyph name="Eth" format="1">
  <advance width="660"/>
  <outline>
    <contour>
      <point x="26" y="301" type="line"/>
      <point x="374" y="301" type="line"/>
      <point x="374" y="372" type="line"/>
      <point x="104" y="372" type="line"/>
      <point x="26" y="367" type="line"/>
    </contour>
    <component base="D" xOffset="25"/>
  </outline>
</glyph>
<glyph name="Eth.sc" format="1">
  <advance width="604"/>
  <outline>
    <contour>
      <point x="26" y="235" type="line"/>
      <point x="343" y="235" type="line"/>
      <point x="343" y="306" type="line"/>
      <point x="103" y="306" type="line"/>
      <point x="26" y="300" type="line"/>
    </contour>
    <component base="D.sc" xOffset="24"/>
  </outline>
</glyph>
<glyph name="Ecyr.sc" format="1">
  <advance width="515"/>
  <outline>
    <contour>
      <point x="210" y="-10" type="curve" smooth="yes"/>
      <point x="348" y="-10"/>
      <point x="470" y="82"/>
      <point x="470" y="259" type="curve" smooth="yes"/>
      <point x="470" y="437"/>
      <point x="354" y="537"/>
      <point x="213" y="537" type="curve" smooth="yes"/>
      <point x="138" y="537"/>
      <point x="71" y="504"/>
      <point x="29" y="467" type="curve"/>
      <point x="105" y="374" type="line"/>
      <point x="137" y="398"/>
      <point x="165" y="412"/>
      <point x="205" y="412" type="curve" smooth="yes"/>
      <point x="280" y="412"/>
      <point x="326" y="358"/>
      <point x="326" y="264" type="curve" smooth="yes"/>
      <point x="326" y="167"/>
      <point x="280" y="115"/>
      <point x="208" y="115" type="curve" smooth="yes"/>
      <point x="162" y="115"/>
      <point x="126" y="136"/>
      <point x="98" y="159" type="curve"/>
      <point x="22" y="68" type="line"/>
      <point x="73" y="16"/>
      <point x="138" y="-10"/>
    </contour>
    <contour>
      <point x="118" y="208" type="line"/>
      <point x="385" y="208" type="line"/>
      <point x="385" y="329" type="line"/>
      <point x="118" y="329" type="line"/>
    </contour>
  </outline>
</glyph>
<glyph name="El.sc" format="1">
  <advance width="601"/>
  <outline>
    <contour>
      <point x="72" y="-10" type="curve" smooth="yes"/>
      <point x="180" y="-10"/>
      <point x="240" y="46"/>
      <point x="264" y="167" type="curve" smooth="yes"/>
      <point x="274" y="225"/>
      <point x="279" y="315"/>
      <point x="279" y="367" type="curve" smooth="yes"/>
      <point x="279" y="406" type="line"/>
      <point x="378" y="406" type="line"/>
      <point x="378" y="0" type="line"/>
      <point x="522" y="0" type="line"/>
      <point x="522" y="527" type="line"/>
      <point x="146" y="527" type="line"/>
      <point x="146" y="350" type="line" smooth="yes"/>
      <point x="146" y="307"/>
      <point x="141" y="242"/>
      <point x="131" y="194" type="curve" smooth="yes"/>
      <point x="117" y="137"/>
      <point x="92" y="124"/>
      <point x="56" y="124" type="curve" smooth="yes"/>
      <point x="46" y="124"/>
      <point x="35" y="128"/>
      <point x="29" y="129" type="curve"/>
      <point x="4" y="0" type="line"/>
      <point x="22" y="-6"/>
      <point x="38" y="-10"/>
    </contour>
  </outline>
</glyph>
<glyph name="Endescender.sc" format="1">
  <advance width="689"/>
  <outline>
    <contour>
      <point x="532" y="-188" type="line"/>
      <point x="664" y="-188" type="line"/>
      <point x="676" y="32" type="line"/>
      <point x="676" y="124" type="line"/>
      <point x="504" y="124" type="line"/>
      <point x="504" y="0" type="line"/>
      <point x="532" y="0" type="line"/>
    </contour>
    <component base="H"/>
  </outline>
</glyph>
<glyph name="F" format="1">
  <advance width="524"/>
  <outline>
    <contour>
      <point x="289" y="674" type="move" name="aboveUC"/>
    </contour>
    <contour>
      <point x="159" y="-22" type="move" name="belowLC"/>
    </contour>
    <contour>
      <point x="77" y="0" type="line"/>
      <point x="224" y="0" type="line"/>
      <point x="224" y="253" type="line"/>
      <point x="450" y="253" type="line"/>
      <point x="450" y="377" type="line"/>
      <point x="224" y="377" type="line"/>
      <point x="224" y="528" type="line"/>
      <point x="488" y="528" type="line"/>
      <point x="488" y="652" type="line"/>
      <point x="77" y="652" type="line"/>
    </contour>
  </outline>
</glyph>
<glyph name="F.sc" format="1">
  <advance width="476"/>
  <outline>
    <contour>
      <point x="270" y="564" type="move" name="aboveUC"/>
    </contour>
    <contour>
      <point x="159" y="-22" type="move" name="belowLC"/>
    </contour>
    <contour>
      <point x="77" y="0" type="line"/>
      <point x="224" y="0" type="line"/>
      <point x="224" y="192" type="line"/>
      <point x="409" y="192" type="line"/>
      <point x="409" y="302" type="line"/>
      <point x="224" y="302" type="line"/>
      <point x="224" y="408" type="line"/>
      <point x="439" y="408" type="line"/>
      <point x="439" y="528" type="line"/>
      <point x="77" y="528" type="line"/>
    </contour>
  </outline>
</glyph>
<glyph name="F.sups" format="1">
  <advance width="354"/>
  <outline>
    <contour>
      <point x="50" y="262" type="line"/>
      <point x="154" y="262" type="line"/>
      <point x="154" y="426" type="line"/>
      <point x="304" y="426" type="line"/>
      <point x="304" y="512" type="line"/>
      <point x="154" y="512" type="line"/>
      <point x="154" y="608" type="line"/>
      <point x="330" y="608" type="line"/>
      <point x="330" y="694" type="line"/>
      <point x="50" y="694" type="line"/>
    </contour>
  </outline>
</glyph>
<glyph name="F.sups" format="1">
  <advance width="354"/>
  <outline>
    <contour>
      <point x="50" y="375" type="line"/>
      <point x="154" y="375" type="line"/>
      <point x="154" y="540" type="line"/>
      <point x="304" y="540" type="line"/>
      <point x="304" y="626" type="line"/>
      <point x="154" y="626" type="line"/>
      <point x="154" y="721" type="line"/>
      <point x="330" y="721" type="line"/>
      <point x="330" y="807" type="line"/>
      <point x="50" y="807" type="line"/>
    </contour>
  </outline>
</glyph>
<glyph name="Fita.sc" format="1">
  <advance width="616"/>
  <outline>
    <contour>
      <point x="151" y="215" type="line"/>
      <point x="481" y="215" type="line"/>
      <point x="481" y="322" type="line"/>
      <point x="151" y="322" type="line"/>
    </contour>
    <component base="O.sc"/>
  </outline>
</glyph>
<glyph name="G.sc" format="1">
  <advance width="576"/>
  <outline>
    <contour>
      <point x="326" y="-12" type="curve" smooth="yes"/>
      <point x="404" y="-12"/>
      <point x="477" y="15"/>
      <point x="518" y="53" type="curve"/>
      <point x="518" y="304" type="line"/>
      <point x="304" y="304" type="line"/>
      <point x="304" y="202" type="line"/>
      <point x="389" y="202" type="line"/>
      <point x="389" y="119" type="line"/>
      <point x="376" y="110"/>
      <point x="358" y="105"/>
      <point x="337" y="105" type="curve" smooth="yes"/>
      <point x="240" y="105"/>
      <point x="195" y="164"/>
      <point x="195" y="260" type="curve" smooth="yes"/>
      <point x="195" y="363"/>
      <point x="252" y="420"/>
      <point x="330" y="420" type="curve" smooth="yes"/>
      <point x="374" y="420"/>
      <point x="400" y="407"/>
      <point x="428" y="382" type="curve"/>
      <point x="507" y="469" type="line"/>
      <point x="467" y="506"/>
      <point x="408" y="540"/>
      <point x="329" y="540" type="curve" smooth="yes"/>
      <point x="175" y="540"/>
      <point x="46" y="439"/>
      <point x="46" y="260" type="curve" smooth="yes"/>
      <point x="46" y="77"/>
      <point x="171" y="-12"/>
    </contour>
    <contour>
      <point x="320" y="564" type="move" name="aboveUC"/>
    </contour>
    <contour>
      <point x="322" y="-22" type="move" name="belowLC"/>
    </contour>
  </outline>
</glyph>
<glyph name="G.sups" format="1">
  <advance width="431"/>
  <outline>
    <contour>
      <point x="245" y="254" type="curve" smooth="yes"/>
      <point x="305" y="254"/>
      <point x="360" y="280"/>
      <point x="394" y="307" type="curve"/>
      <point x="394" y="508" type="line"/>
      <point x="230" y="508" type="line"/>
      <point x="230" y="424" type="line"/>
      <point x="300" y="424" type="line"/>
      <point x="300" y="354" type="line"/>
      <point x="290" y="346"/>
      <point x="274" y="342"/>
      <point x="256" y="342" type="curve" smooth="yes"/>
      <point x="176" y="342"/>
      <point x="137" y="393"/>
      <point x="137" y="479" type="curve" smooth="yes"/>
      <point x="137" y="563"/>
      <point x="183" y="612"/>
      <point x="248" y="612" type="curve" smooth="yes"/>
      <point x="286" y="612"/>
      <point x="306" y="601"/>
      <point x="327" y="581" type="curve"/>
      <point x="386" y="647" type="line"/>
      <point x="353" y="676"/>
      <point x="309" y="702"/>
      <point x="248" y="702" type="curve" smooth="yes"/>
      <point x="128" y="702"/>
      <point x="30" y="619"/>
      <point x="30" y="475" type="curve" smooth="yes"/>
      <point x="30" y="330"/>
      <point x="125" y="254"/>
    </contour>
  </outline>
</glyph>
<glyph name="G.sups" format="1">
  <advance width="431"/>
  <outline>
    <contour>
      <point x="245" y="367" type="curve" smooth="yes"/>
      <point x="305" y="367"/>
      <point x="360" y="393"/>
      <point x="394" y="420" type="curve"/>
      <point x="394" y="622" type="line"/>
      <point x="230" y="622" type="line"/>
      <point x="230" y="538" type="line"/>
      <point x="300" y="538" type="line"/>
      <point x="300" y="468" type="line"/>
      <point x="290" y="460"/>
      <point x="274" y="456"/>
      <point x="256" y="456" type="curve" smooth="yes"/>
      <point x="176" y="456"/>
      <point x="137" y="507"/>
      <point x="137" y="593" type="curve" smooth="yes"/>
      <point x="137" y="676"/>
      <point x="183" y="726"/>
      <point x="248" y="726" type="curve" smooth="yes"/>
      <point x="286" y="726"/>
      <point x="306" y="714"/>
      <point x="327" y="695" type="curve"/>
      <point x="386" y="761" type="line"/>
      <point x="353" y="790"/>
      <point x="309" y="815"/>
      <point x="248" y="815" type="curve" smooth="yes"/>
      <point x="128" y="815"/>
      <point x="30" y="733"/>
      <point x="30" y="589" type="curve" smooth="yes"/>
      <point x="30" y="444"/>
      <point x="125" y="367"/>
    </contour>
  </outline>
</glyph>
<glyph name="Gamma" format="1">
  <advance width="511"/>
  <outline>
    <contour>
      <point x="77" y="0" type="line"/>
      <point x="224" y="0" type="line"/>
      <point x="224" y="528" type="line"/>
      <point x="488" y="528" type="line"/>
      <point x="488" y="652" type="line"/>
      <point x="77" y="652" type="line"/>
    </contour>
  </outline>
</glyph>
<glyph name="Gamma.sc" format="1">
  <advance width="472"/>
  <outline>
    <contour>
      <point x="77" y="0" type="line"/>
      <point x="224" y="0" type="line"/>
      <point x="224" y="406" type="line"/>
      <point x="440" y="406" type="line"/>
      <point x="440" y="528" type="line"/>
      <point x="77" y="528" type="line"/>
    </contour>
  </outline>
</glyph>
<glyph name="Ghe" format="1">
  <advance width="521"/>
  <outline>
    <component base="Gamma"/>
    <contour>
      <point x="296" y="674" type="move" name="aboveUC"/>
    </contour>
  </outline>
</glyph>
<glyph name="Ghe.sc" format="1">
  <advance width="472"/>
  <outline>
    <contour>
      <point x="274" y="550" type="move" name="aboveUC"/>
    </contour>
    <component base="Gamma.sc"/>
  </outline>
</glyph>
<glyph name="Ghestroke.sc" format="1">
  <advance width="497"/>
  <outline>
    <contour>
      <point x="26" y="210" type="line"/>
      <point x="374" y="210" type="line"/>
      <point x="374" y="281" type="line"/>
      <point x="104" y="281" type="line"/>
      <point x="26" y="276" type="line"/>
    </contour>
    <component base="Ghe.sc" xOffset="25"/>
  </outline>
</glyph>
<glyph name="Gheup" format="1">
  <advance width="521"/>
  <outline>
    <contour>
      <point x="77" y="0" type="line"/>
      <point x="224" y="0" type="line"/>
      <point x="224" y="528" type="line"/>
      <point x="488" y="528" type="line"/>
      <point x="478" y="652" type="line"/>
      <point x="77" y="652" type="line"/>
    </contour>
    <contour>
      <point x="318" y="528" type="line"/>
      <point x="488" y="528" type="line"/>
      <point x="498" y="824" type="line"/>
      <point x="372" y="824" type="line"/>
      <point x="352" y="652" type="line"/>
      <point x="318" y="652" type="line"/>
    </contour>
  </outline>
</glyph>
<glyph name="Gheup.sc" format="1">
  <advance width="472"/>
  <outline>
    <contour>
      <point x="271" y="406" type="line"/>
      <point x="440" y="406" type="line"/>
      <point x="449" y="694" type="line"/>
      <point x="326" y="694" type="line"/>
      <point x="305" y="522" type="line"/>
      <point x="271" y="522" type="line"/>
    </contour>
    <component base="Gamma.sc"/>
  </outline>
</glyph>
<glyph name="Ghook.sc" format="1">
	<advance width="576"/>
	<outline>
		<contour>
			<point x="326" y="-12" type="curve" smooth="yes"/>
			<point x="404" y="-12"/>
			<point x="477" y="15"/>
			<point x="518" y="53" type="curve"/>
			<point x="518" y="304" type="line"/>
			<point x="304" y="304" type="line"/>
			<point x="304" y="202" type="line"/>
			<point x="389" y="202" type="line"/>
			<point x="389" y="119" type="line"/>
			<point x="376" y="110"/>
			<point x="358" y="105"/>
			<point x="337" y="105" type="curve" smooth="yes"/>
			<point x="240" y="105"/>
			<point x="195" y="164"/>
			<point x="195" y="260" type="curve" smooth="yes"/>
			<point x="195" y="363"/>
			<point x="252" y="420"/>
			<point x="330" y="420" type="curve" smooth="yes"/>
			<point x="374" y="420"/>
			<point x="400" y="409"/>
			<point x="428" y="390" type="curve"/>
			<point x="507" y="477" type="line"/>
			<point x="467" y="509"/>
			<point x="408" y="540"/>
			<point x="329" y="540" type="curve" smooth="yes"/>
			<point x="175" y="540"/>
			<point x="46" y="439"/>
			<point x="46" y="260" type="curve" smooth="yes"/>
			<point x="46" y="77"/>
			<point x="171" y="-12"/>
		</contour>
		<contour>
			<point x="383" y="471" type="curve"/>
			<point x="507" y="477" type="line"/>
			<point x="495" y="488"/>
			<point x="482" y="505"/>
			<point x="482" y="524" type="curve" smooth="yes"/>
			<point x="482" y="550"/>
			<point x="500" y="560"/>
			<point x="525" y="560" type="curve" smooth="yes"/>
			<point x="534" y="560"/>
			<point x="538" y="559"/>
			<point x="547" y="556" type="curve"/>
			<point x="573" y="659" type="line"/>
			<point x="553" y="666"/>
			<point x="531" y="672"/>
			<point x="493" y="672" type="curve" smooth="yes"/>
			<point x="408" y="672"/>
			<point x="360" y="613"/>
			<point x="360" y="546" type="curve" smooth="yes"/>
			<point x="360" y="523"/>
			<point x="372" y="495"/>
		</contour>
	</outline>
</glyph>
<glyph name="Gsmall" format="1">
  <advance width="517"/>
  <outline>
    <contour>
      <point x="319" y="518" type="move" name="aboveUC"/>
    </contour>
    <contour>
      <point x="321" y="-22" type="move" name="belowLC"/>
    </contour>
    <contour>
      <point x="288" y="-12" type="curve" smooth="yes"/>
      <point x="365" y="-12"/>
      <point x="434" y="16"/>
      <point x="475" y="53" type="curve"/>
      <point x="475" y="297" type="line"/>
      <point x="266" y="297" type="line"/>
      <point x="266" y="199" type="line"/>
      <point x="350" y="199" type="line"/>
      <point x="350" y="114" type="line"/>
      <point x="337" y="105"/>
      <point x="319" y="100"/>
      <point x="299" y="100" type="curve" smooth="yes"/>
      <point x="231" y="100"/>
      <point x="185" y="153"/>
      <point x="185" y="246" type="curve" smooth="yes"/>
      <point x="185" y="350"/>
      <point x="242" y="396"/>
      <point x="301" y="396" type="curve" smooth="yes"/>
      <point x="346" y="396"/>
      <point x="367" y="381"/>
      <point x="397" y="360" type="curve"/>
      <point x="463" y="448" type="line"/>
      <point x="420" y="482"/>
      <point x="374" y="508"/>
      <point x="291" y="508" type="curve" smooth="yes"/>
      <point x="161" y="508"/>
      <point x="36" y="414"/>
      <point x="36" y="246" type="curve" smooth="yes"/>
      <point x="36" y="70"/>
      <point x="157" y="-12"/>
    </contour>
  </outline>
</glyph>
<glyph name="Ghestroke" format="1">
  <advance width="546"/>
  <outline>
    <contour>
      <point x="26" y="283" type="line"/>
      <point x="374" y="283" type="line"/>
      <point x="374" y="354" type="line"/>
      <point x="104" y="354" type="line"/>
      <point x="26" y="349" type="line"/>
    </contour>
    <component base="Gamma" xOffset="25"/>
  </outline>
</glyph>
<glyph name="Gheup" format="1">
  <advance width="521"/>
  <outline>
    <contour>
      <point x="129" y="111" type="line"/>
      <point x="281" y="111" type="line"/>
      <point x="282" y="563" type="line"/>
      <point x="485" y="563" type="line"/>
      <point x="475" y="652" type="line"/>
      <point x="129" y="652" type="line"/>
    </contour>
    <contour>
      <point x="266" y="417" type="line"/>
      <point x="432" y="417" type="line"/>
      <point x="440" y="789" type="line"/>
      <point x="375" y="789" type="line"/>
      <point x="355" y="652" type="line"/>
      <point x="266" y="652" type="line"/>
    </contour>
  </outline>
</glyph>
<glyph name="Gheup.sc" format="1">
  <advance width="470"/>
  <outline>
    <contour>
      <point x="77" y="0" type="line"/>
      <point x="222" y="0" type="line"/>
      <point x="222" y="406" type="line"/>
      <point x="439" y="406" type="line"/>
      <point x="430" y="527" type="line"/>
      <point x="77" y="527" type="line"/>
    </contour>
    <contour>
      <point x="275" y="406" type="line"/>
      <point x="439" y="406" type="line"/>
      <point x="448" y="667" type="line"/>
      <point x="327" y="667" type="line"/>
      <point x="305" y="527" type="line"/>
      <point x="275" y="527" type="line"/>
    </contour>
  </outline>
</glyph>
<glyph name="Ghook" format="1">
  <advance width="638"/>
  <outline>
    <contour>
      <point x="365" y="-12" type="curve" smooth="yes"/>
      <point x="456" y="-12"/>
      <point x="535" y="23"/>
      <point x="580" y="67" type="curve"/>
      <point x="580" y="367" type="line"/>
      <point x="342" y="367" type="line"/>
      <point x="342" y="247" type="line"/>
      <point x="450" y="247" type="line"/>
      <point x="450" y="135" type="line"/>
      <point x="434" y="122"/>
      <point x="407" y="115"/>
      <point x="380" y="115" type="curve" smooth="yes"/>
      <point x="258" y="115"/>
      <point x="197" y="193"/>
      <point x="197" y="327" type="curve" smooth="yes"/>
      <point x="197" y="458"/>
      <point x="268" y="537"/>
      <point x="369" y="537" type="curve" smooth="yes"/>
      <point x="425" y="537"/>
      <point x="459" y="519"/>
      <point x="492" y="496" type="curve"/>
      <point x="569" y="591" type="line"/>
      <point x="526" y="629"/>
      <point x="458" y="664"/>
      <point x="364" y="664" type="curve" smooth="yes"/>
      <point x="190" y="664"/>
      <point x="46" y="538"/>
      <point x="46" y="322" type="curve" smooth="yes"/>
      <point x="46" y="103"/>
      <point x="186" y="-12"/>
    </contour>
    <contour>
      <point x="447" y="586" type="curve"/>
      <point x="443" y="593"/>
      <point x="563" y="601"/>
      <point x="563" y="607" type="curve" smooth="yes"/>
      <point x="552" y="625"/>
      <point x="542" y="645"/>
      <point x="549" y="665" type="curve" smooth="yes"/>
      <point x="551" y="691"/>
      <point x="571" y="702"/>
      <point x="596" y="701" type="curve"/>
      <point x="605" y="701"/>
      <point x="611" y="704"/>
      <point x="619" y="701" type="curve"/>
      <point x="617" y="702"/>
      <point x="639" y="807"/>
      <point x="636" y="807" type="curve" smooth="yes"/>
      <point x="610" y="813"/>
      <point x="581" y="813"/>
      <point x="543" y="804" type="curve" smooth="yes"/>
      <point x="461" y="798"/>
      <point x="416" y="735"/>
      <point x="421" y="661" type="curve"/>
      <point x="421" y="638"/>
      <point x="438" y="610"/>
    </contour>
  </outline>
</glyph>
<glyph name="Ghook.sc" format="1">
  <advance width="576"/>
  <outline>
    <contour>
      <point x="326" y="-12" type="curve" smooth="yes"/>
      <point x="404" y="-12"/>
      <point x="477" y="15"/>
      <point x="518" y="53" type="curve"/>
      <point x="518" y="304" type="line"/>
      <point x="304" y="304" type="line"/>
      <point x="304" y="202" type="line"/>
      <point x="389" y="202" type="line"/>
      <point x="389" y="119" type="line"/>
      <point x="376" y="110"/>
      <point x="358" y="105"/>
      <point x="337" y="105" type="curve" smooth="yes"/>
      <point x="240" y="105"/>
      <point x="195" y="164"/>
      <point x="195" y="260" type="curve" smooth="yes"/>
      <point x="195" y="363"/>
      <point x="252" y="420"/>
      <point x="330" y="420" type="curve" smooth="yes"/>
      <point x="374" y="420"/>
      <point x="400" y="409"/>
      <point x="428" y="390" type="curve"/>
      <point x="507" y="477" type="line"/>
      <point x="467" y="509"/>
      <point x="408" y="540"/>
      <point x="329" y="540" type="curve" smooth="yes"/>
      <point x="175" y="540"/>
      <point x="46" y="439"/>
      <point x="46" y="260" type="curve" smooth="yes"/>
      <point x="46" y="77"/>
      <point x="171" y="-12"/>
    </contour>
    <contour>
      <point x="388" y="471" type="curve"/>
      <point x="384" y="476"/>
      <point x="502" y="486"/>
      <point x="502" y="490" type="curve" smooth="yes"/>
      <point x="494" y="500"/>
      <point x="484" y="517"/>
      <point x="490" y="531" type="curve" smooth="yes"/>
      <point x="492" y="554"/>
      <point x="510" y="560"/>
      <point x="530" y="559" type="curve"/>
      <point x="537" y="559"/>
      <point x="541" y="563"/>
      <point x="548" y="560" type="curve"/>
      <point x="546" y="561"/>
      <point x="569" y="660"/>
      <point x="567" y="660" type="curve" smooth="yes"/>
      <point x="541" y="667"/>
      <point x="515" y="668"/>
      <point x="479" y="660" type="curve" smooth="yes"/>
      <point x="402" y="656"/>
      <point x="361" y="597"/>
      <point x="365" y="532" type="curve"/>
      <point x="365" y="514"/>
      <point x="381" y="489"/>
    </contour>
  </outline>
</glyph>
<glyph name="H" format="1">
  <advance width="674"/>
  <outline>
    <contour>
      <point x="336" y="674" type="move" name="aboveUC"/>
    </contour>
    <contour>
      <point x="336" y="-22" type="move" name="belowLC"/>
    </contour>
    <contour>
      <point x="77" y="0" type="line"/>
      <point x="224" y="0" type="line"/>
      <point x="224" y="272" type="line"/>
      <point x="449" y="272" type="line"/>
      <point x="449" y="0" type="line"/>
      <point x="597" y="0" type="line"/>
      <point x="597" y="652" type="line"/>
      <point x="449" y="652" type="line"/>
      <point x="449" y="401" type="line"/>
      <point x="224" y="401" type="line"/>
      <point x="224" y="652" type="line"/>
      <point x="77" y="652" type="line"/>
    </contour>
  </outline>
</glyph>
<glyph name="H.sc" format="1">
	<advance width="621"/>
	<outline>
		<contour>
			<point x="77" y="0" type="line"/>
			<point x="224" y="0" type="line"/>
			<point x="224" y="207" type="line"/>
			<point x="397" y="207" type="line"/>
			<point x="397" y="0" type="line"/>
			<point x="545" y="0" type="line"/>
			<point x="545" y="528" type="line"/>
			<point x="397" y="528" type="line"/>
			<point x="397" y="334" type="line"/>
			<point x="224" y="334" type="line"/>
			<point x="224" y="528" type="line"/>
			<point x="77" y="528" type="line"/>
		</contour>
		<contour>
			<point name="aboveUC" x="311" y="564" type="move"/>
		</contour>
		<contour>
			<point name="belowLC" x="311" y="-22" type="move"/>
		</contour>
	</outline>
</glyph>
<glyph name="H.sups" format="1">
  <advance width="452"/>
  <outline>
    <contour>
      <point x="50" y="262" type="line"/>
      <point x="154" y="262" type="line"/>
      <point x="154" y="440" type="line"/>
      <point x="299" y="440" type="line"/>
      <point x="299" y="262" type="line"/>
      <point x="403" y="262" type="line"/>
      <point x="403" y="694" type="line"/>
      <point x="299" y="694" type="line"/>
      <point x="299" y="529" type="line"/>
      <point x="154" y="529" type="line"/>
      <point x="154" y="694" type="line"/>
      <point x="50" y="694" type="line"/>
    </contour>
  </outline>
</glyph>
<glyph name="Hbar" format="1">
  <advance width="712"/>
  <outline>
    <contour>
      <point x="25" y="486" type="line"/>
      <point x="687" y="486" type="line"/>
      <point x="687" y="557" type="line"/>
      <point x="102" y="557" type="line"/>
      <point x="25" y="551" type="line"/>
    </contour>
    <component base="H" xOffset="20"/>
  </outline>
</glyph>
<glyph name="Hard.sc" format="1">
  <advance width="629"/>
  <outline>
    <contour>
      <point x="173" y="0" type="line"/>
      <point x="370" y="0" type="line" smooth="yes"/>
      <point x="491" y="0"/>
      <point x="593" y="44"/>
      <point x="593" y="178" type="curve" smooth="yes"/>
      <point x="593" y="297"/>
      <point x="488" y="346"/>
      <point x="370" y="346" type="curve" smooth="yes"/>
      <point x="318" y="346" type="line"/>
      <point x="318" y="527" type="line"/>
      <point x="25" y="527" type="line"/>
      <point x="25" y="406" type="line"/>
      <point x="173" y="406" type="line"/>
    </contour>
    <contour>
      <point x="318" y="114" type="line"/>
      <point x="318" y="232" type="line"/>
      <point x="364" y="232" type="line" smooth="yes"/>
      <point x="423" y="232"/>
      <point x="451" y="212"/>
      <point x="451" y="176" type="curve" smooth="yes"/>
      <point x="451" y="131"/>
      <point x="420" y="114"/>
      <point x="364" y="114" type="curve" smooth="yes"/>
    </contour>
  </outline>
</glyph>
<glyph name="IJ.sc" format="1">
  <advance width="602"/>
  <outline>
    <contour>
      <point x="77" y="0" type="line"/>
      <point x="224" y="0" type="line"/>
      <point x="224" y="528" type="line"/>
      <point x="77" y="528" type="line"/>
    </contour>
    <contour>
      <point x="348" y="-169" type="curve" smooth="yes"/>
      <point x="483" y="-169"/>
      <point x="526" y="-78"/>
      <point x="526" y="30" type="curve" smooth="yes"/>
      <point x="526" y="528" type="line"/>
      <point x="378" y="528" type="line"/>
      <point x="378" y="27" type="line" smooth="yes"/>
      <point x="378" y="-29"/>
      <point x="365" y="-53"/>
      <point x="325" y="-53" type="curve" smooth="yes"/>
      <point x="312" y="-53"/>
      <point x="300" y="-51"/>
      <point x="287" y="-47" type="curve"/>
      <point x="260" y="-156" type="line"/>
      <point x="281" y="-163"/>
      <point x="307" y="-169"/>
    </contour>
  </outline>
</glyph>
<glyph name="I" format="1">
  <advance width="301"/>
  <outline>
    <contour>
      <point x="77" y="0" type="line"/>
      <point x="224" y="0" type="line"/>
      <point x="224" y="652" type="line"/>
      <point x="77" y="652" type="line"/>
    </contour>
    <contour>
      <point x="151" y="674" type="move" name="aboveUC"/>
    </contour>
    <contour>
      <point x="131" y="0" type="move" name="ogonekUC"/>
    </contour>
    <contour>
      <point x="151" y="-22" type="move" name="belowLC"/>
    </contour>
  </outline>
</glyph>
<glyph name="I.sc" format="1">
  <advance width="301"/>
  <outline>
    <contour>
      <point x="77" y="0" type="line"/>
      <point x="224" y="0" type="line"/>
      <point x="224" y="528" type="line"/>
      <point x="77" y="528" type="line"/>
    </contour>
    <contour>
      <point x="151" y="564" type="move" name="aboveUC"/>
    </contour>
    <contour>
      <point x="131" y="0" type="move" name="ogonekUC"/>
    </contour>
    <contour>
      <point x="151" y="-22" type="move" name="belowLC"/>
    </contour>
  </outline>
</glyph>
<glyph name="I.sups" format="1">
  <advance width="203"/>
  <outline>
    <contour>
      <point x="50" y="262" type="line"/>
      <point x="154" y="262" type="line"/>
      <point x="154" y="694" type="line"/>
      <point x="50" y="694" type="line"/>
    </contour>
  </outline>
</glyph>
<glyph name="I.alt" format="1">
  <advance width="396"/>
  <outline>
    <contour>
      <point x="198" y="674" type="move" name="aboveUC"/>
    </contour>
    <contour>
      <point x="178" y="0" type="move" name="ogonekUC"/>
    </contour>
    <contour>
      <point x="198" y="-22" type="move" name="belowLC"/>
    </contour>
    <contour>
      <point x="52" y="0" type="line"/>
      <point x="344" y="0" type="line"/>
      <point x="344" y="124" type="line"/>
      <point x="271" y="124" type="line"/>
      <point x="271" y="528" type="line"/>
      <point x="344" y="528" type="line"/>
      <point x="344" y="652" type="line"/>
      <point x="52" y="652" type="line"/>
      <point x="52" y="528" type="line"/>
      <point x="124" y="528" type="line"/>
      <point x="124" y="124" type="line"/>
      <point x="52" y="124" type="line"/>
    </contour>
  </outline>
</glyph>
<glyph name="Icyr" format="1">
  <advance width="676"/>
  <outline>
    <contour>
      <point x="77" y="0" type="line"/>
      <point x="233" y="0" type="line"/>
      <point x="404" y="325" type="line"/>
      <point x="468" y="467" type="line"/>
      <point x="472" y="467" type="line"/>
      <point x="466" y="395"/>
      <point x="454" y="308"/>
      <point x="454" y="231" type="curve" smooth="yes"/>
      <point x="454" y="0" type="line"/>
      <point x="599" y="0" type="line"/>
      <point x="599" y="652" type="line"/>
      <point x="443" y="652" type="line"/>
      <point x="272" y="327" type="line"/>
      <point x="208" y="184" type="line"/>
      <point x="204" y="184" type="line"/>
      <point x="211" y="253"/>
      <point x="223" y="345"/>
      <point x="223" y="422" type="curve" smooth="yes"/>
      <point x="223" y="652" type="line"/>
      <point x="77" y="652" type="line"/>
    </contour>
    <contour>
      <point x="342" y="682" type="move" name="aboveUC"/>
    </contour>
  </outline>
</glyph>
<glyph name="Ie" format="1">
  <advance width="548"/>
  <outline>
    <contour>
      <point x="289" y="674" type="move" name="aboveUC"/>
    </contour>
    <component base="E"/>
  </outline>
</glyph>
<glyph name="Iogonek.alt" format="1">
  <advance width="396"/>
  <outline>
    <contour>
      <point x="204" y="-223" type="curve" smooth="yes"/>
      <point x="239" y="-223"/>
      <point x="283" y="-208"/>
      <point x="308" y="-188" type="curve"/>
      <point x="275" y="-114" type="line"/>
      <point x="265" y="-121"/>
      <point x="252" y="-128"/>
      <point x="239" y="-128" type="curve" smooth="yes"/>
      <point x="218" y="-128"/>
      <point x="197" y="-116"/>
      <point x="197" y="-90" type="curve" smooth="yes"/>
      <point x="197" y="-60"/>
      <point x="217" y="-28"/>
      <point x="251" y="0" type="curve"/>
      <point x="344" y="0" type="line"/>
      <point x="344" y="124" type="line"/>
      <point x="271" y="124" type="line"/>
      <point x="271" y="528" type="line"/>
      <point x="344" y="528" type="line"/>
      <point x="344" y="652" type="line"/>
      <point x="52" y="652" type="line"/>
      <point x="52" y="528" type="line"/>
      <point x="124" y="528" type="line"/>
      <point x="124" y="124" type="line"/>
      <point x="52" y="124" type="line"/>
      <point x="52" y="0" type="line"/>
      <point x="161" y="0" type="line"/>
      <point x="134" y="-20"/>
      <point x="89" y="-68"/>
      <point x="89" y="-129" type="curve" smooth="yes"/>
      <point x="89" y="-189"/>
      <point x="140" y="-223"/>
    </contour>
    <contour>
      <point x="198" y="674" type="move" name="aboveUC"/>
    </contour>
  </outline>
</glyph>
<glyph name="Iogonek" format="1">
  <advance width="301"/>
  <outline>
    <contour>
      <point x="151" y="674" type="move" name="aboveUC"/>
    </contour>
    <contour>
      <point x="157" y="-223" type="curve" smooth="yes"/>
      <point x="192" y="-223"/>
      <point x="236" y="-208"/>
      <point x="261" y="-188" type="curve"/>
      <point x="228" y="-114" type="line"/>
      <point x="219" y="-121"/>
      <point x="205" y="-128"/>
      <point x="191" y="-128" type="curve" smooth="yes"/>
      <point x="171" y="-128"/>
      <point x="150" y="-116"/>
      <point x="150" y="-90" type="curve" smooth="yes"/>
      <point x="150" y="-56"/>
      <point x="171" y="-22"/>
      <point x="224" y="0" type="curve"/>
      <point x="224" y="652" type="line"/>
      <point x="77" y="652" type="line"/>
      <point x="77" y="0" type="line"/>
      <point x="116" y="0" type="line"/>
      <point x="87" y="-21"/>
      <point x="42" y="-65"/>
      <point x="42" y="-129" type="curve" smooth="yes"/>
      <point x="42" y="-189"/>
      <point x="93" y="-223"/>
    </contour>
  </outline>
</glyph>
<glyph name="Iota.sc" format="1">
  <advance width="301"/>
  <outline>
    <contour>
      <point x="151" y="564" type="move" name="aboveLC"/>
    </contour>
    <contour>
      <point x="151" y="-22" type="move" name="belowLC"/>
    </contour>
    <component base="I.sc"/>
  </outline>
</glyph>
<glyph name="Izhitsa" format="1">
  <advance width="574"/>
  <outline>
    <contour>
      <point x="190" y="0" type="line"/>
      <point x="374" y="0" type="line"/>
      <point x="496" y="462" type="line" smooth="yes"/>
      <point x="506" y="500"/>
      <point x="523" y="526"/>
      <point x="553" y="526" type="curve" smooth="yes"/>
      <point x="564" y="526"/>
      <point x="575" y="522"/>
      <point x="583" y="520" type="curve"/>
      <point x="609" y="652" type="line"/>
      <point x="589" y="660"/>
      <point x="573" y="664"/>
      <point x="538" y="664" type="curve" smooth="yes"/>
      <point x="442" y="664"/>
      <point x="395" y="612"/>
      <point x="365" y="489" type="curve" smooth="yes"/>
      <point x="328" y="348" type="line"/>
      <point x="311" y="276"/>
      <point x="300" y="211"/>
      <point x="284" y="139" type="curve"/>
      <point x="280" y="139" type="line"/>
      <point x="260" y="211"/>
      <point x="246" y="276"/>
      <point x="227" y="348" type="curve" smooth="yes"/>
      <point x="149" y="652" type="line"/>
      <point x="-7" y="652" type="line"/>
    </contour>
  </outline>
</glyph>
<glyph name="Ieukran.sc" format="1">
  <advance width="515"/>
  <outline>
    <contour>
      <point x="311" y="-10" type="curve" smooth="yes"/>
      <point x="383" y="-10"/>
      <point x="447" y="16"/>
      <point x="494" y="68" type="curve"/>
      <point x="418" y="159" type="line"/>
      <point x="394" y="136"/>
      <point x="359" y="115"/>
      <point x="316" y="115" type="curve" smooth="yes"/>
      <point x="240" y="115"/>
      <point x="189" y="168"/>
      <point x="189" y="264" type="curve" smooth="yes"/>
      <point x="189" y="358"/>
      <point x="248" y="412"/>
      <point x="318" y="412" type="curve" smooth="yes"/>
      <point x="356" y="412"/>
      <point x="383" y="396"/>
      <point x="411" y="374" type="curve"/>
      <point x="487" y="467" type="line"/>
      <point x="448" y="504"/>
      <point x="388" y="537"/>
      <point x="315" y="537" type="curve" smooth="yes"/>
      <point x="174" y="537"/>
      <point x="46" y="437"/>
      <point x="46" y="259" type="curve" smooth="yes"/>
      <point x="46" y="78"/>
      <point x="169" y="-10"/>
    </contour>
    <contour>
      <point x="130" y="208" type="line"/>
      <point x="398" y="208" type="line"/>
      <point x="398" y="329" type="line"/>
      <point x="130" y="329" type="line"/>
    </contour>
  </outline>
</glyph>
<glyph name="Ismall" format="1">
  <advance width="395"/>
  <outline>
    <contour>
      <point x="198" y="518" type="move" name="aboveLC"/>
    </contour>
    <contour>
      <point x="178" y="0" type="move" name="ogonekUC"/>
    </contour>
    <contour>
      <point x="198" y="-22" type="move" name="belowLC"/>
    </contour>
    <contour>
      <point x="52" y="0" type="line"/>
      <point x="343" y="0" type="line"/>
      <point x="343" y="115" type="line"/>
      <point x="271" y="115" type="line"/>
      <point x="271" y="381" type="line"/>
      <point x="343" y="381" type="line"/>
      <point x="343" y="496" type="line"/>
      <point x="52" y="496" type="line"/>
      <point x="52" y="381" type="line"/>
      <point x="124" y="381" type="line"/>
      <point x="124" y="115" type="line"/>
      <point x="52" y="115" type="line"/>
    </contour>
  </outline>
</glyph>
<glyph name="Izhitsa.sc" format="1">
  <advance width="505"/>
  <outline>
    <contour>
      <point x="157" y="0" type="line"/>
      <point x="339" y="0" type="line"/>
      <point x="436" y="355" type="line" smooth="yes"/>
      <point x="443" y="381"/>
      <point x="458" y="403"/>
      <point x="483" y="403" type="curve" smooth="yes"/>
      <point x="494" y="403"/>
      <point x="504" y="399"/>
      <point x="511" y="398" type="curve"/>
      <point x="536" y="527" type="line"/>
      <point x="518" y="533"/>
      <point x="502" y="537"/>
      <point x="469" y="537" type="curve" smooth="yes"/>
      <point x="379" y="537"/>
      <point x="336" y="490"/>
      <point x="308" y="382" type="curve" smooth="yes"/>
      <point x="285" y="300" type="line"/>
      <point x="270" y="244"/>
      <point x="262" y="190"/>
      <point x="249" y="134" type="curve"/>
      <point x="246" y="134" type="line"/>
      <point x="230" y="190"/>
      <point x="219" y="244"/>
      <point x="204" y="300" type="curve" smooth="yes"/>
      <point x="145" y="527" type="line"/>
      <point x="-8" y="527" type="line"/>
    </contour>
  </outline>
</glyph>
<glyph name="J" format="1">
  <advance width="509"/>
  <outline>
    <contour>
      <point x="226" y="-12" type="curve" smooth="yes"/>
      <point x="370" y="-12"/>
      <point x="435" y="91"/>
      <point x="435" y="217" type="curve" smooth="yes"/>
      <point x="435" y="652" type="line"/>
      <point x="288" y="652" type="line"/>
      <point x="288" y="229" type="line" smooth="yes"/>
      <point x="288" y="142"/>
      <point x="260" y="115"/>
      <point x="207" y="115" type="curve" smooth="yes"/>
      <point x="174" y="115"/>
      <point x="140" y="136"/>
      <point x="116" y="180" type="curve"/>
      <point x="16" y="106" type="line"/>
      <point x="61" y="27"/>
      <point x="127" y="-12"/>
    </contour>
    <contour>
      <point x="359" y="674" type="move" name="aboveUC"/>
    </contour>
    <contour>
      <point x="270" y="-22" type="move" name="belowLC"/>
    </contour>
  </outline>
</glyph>
<glyph name="J.sc" format="1">
  <advance width="470"/>
  <outline>
    <contour>
      <point x="205" y="-12" type="curve" smooth="yes"/>
      <point x="334" y="-12"/>
      <point x="396" y="77"/>
      <point x="396" y="184" type="curve" smooth="yes"/>
      <point x="396" y="528" type="line"/>
      <point x="249" y="528" type="line"/>
      <point x="249" y="193" type="line" smooth="yes"/>
      <point x="249" y="128"/>
      <point x="226" y="110"/>
      <point x="188" y="110" type="curve" smooth="yes"/>
      <point x="160" y="110"/>
      <point x="133" y="129"/>
      <point x="114" y="162" type="curve"/>
      <point x="16" y="90" type="line"/>
      <point x="57" y="22"/>
      <point x="116" y="-12"/>
    </contour>
    <contour>
      <point x="317" y="564" type="move" name="aboveUC"/>
    </contour>
    <contour>
      <point x="226" y="-22" type="move" name="belowLC"/>
    </contour>
  </outline>
</glyph>
<glyph name="J.sups" format="1">
  <advance width="344"/>
  <outline>
    <contour>
      <point x="151" y="254" type="curve" smooth="yes"/>
      <point x="252" y="254"/>
      <point x="296" y="324"/>
      <point x="296" y="408" type="curve" smooth="yes"/>
      <point x="296" y="694" type="line"/>
      <point x="192" y="694" type="line"/>
      <point x="192" y="417" type="line" smooth="yes"/>
      <point x="192" y="359"/>
      <point x="174" y="342"/>
      <point x="140" y="342" type="curve" smooth="yes"/>
      <point x="117" y="342"/>
      <point x="95" y="356"/>
      <point x="80" y="386" type="curve"/>
      <point x="9" y="334" type="line"/>
      <point x="40" y="280"/>
      <point x="84" y="254"/>
    </contour>
  </outline>
</glyph>
<glyph name="K" format="1">
  <advance width="614"/>
  <outline>
    <contour>
      <point x="319" y="674" type="move" name="aboveUC"/>
    </contour>
    <contour>
      <point x="332" y="-22" type="move" name="belowLC"/>
    </contour>
    <contour>
      <point x="77" y="0" type="line"/>
      <point x="224" y="0" type="line"/>
      <point x="224" y="175" type="line"/>
      <point x="300" y="275" type="line"/>
      <point x="459" y="0" type="line"/>
      <point x="620" y="0" type="line"/>
      <point x="387" y="392" type="line"/>
      <point x="584" y="652" type="line"/>
      <point x="422" y="652" type="line"/>
      <point x="228" y="385" type="line"/>
      <point x="224" y="385" type="line"/>
      <point x="224" y="652" type="line"/>
      <point x="77" y="652" type="line"/>
    </contour>
  </outline>
</glyph>
<glyph name="K.sc" format="1">
  <advance width="555"/>
  <outline>
    <contour>
      <point x="77" y="0" type="line"/>
      <point x="224" y="0" type="line"/>
      <point x="224" y="147" type="line"/>
      <point x="280" y="211" type="line"/>
      <point x="404" y="0" type="line"/>
      <point x="561" y="0" type="line"/>
      <point x="364" y="312" type="line"/>
      <point x="531" y="528" type="line"/>
      <point x="372" y="528" type="line"/>
      <point x="228" y="334" type="line"/>
      <point x="224" y="334" type="line"/>
      <point x="224" y="528" type="line"/>
      <point x="77" y="528" type="line"/>
    </contour>
    <contour>
      <point x="299" y="564" type="move" name="aboveUC"/>
    </contour>
    <contour>
      <point x="317" y="-22" type="move" name="belowLC"/>
    </contour>
  </outline>
</glyph>
<glyph name="K.sups" format="1">
  <advance width="414"/>
  <outline>
    <contour>
      <point x="50" y="262" type="line"/>
      <point x="154" y="262" type="line"/>
      <point x="154" y="379" type="line"/>
      <point x="203" y="443" type="line"/>
      <point x="307" y="262" type="line"/>
      <point x="420" y="262" type="line"/>
      <point x="264" y="522" type="line"/>
      <point x="396" y="694" type="line"/>
      <point x="281" y="694" type="line"/>
      <point x="157" y="523" type="line"/>
      <point x="154" y="523" type="line"/>
      <point x="154" y="694" type="line"/>
      <point x="50" y="694" type="line"/>
    </contour>
  </outline>
</glyph>
<glyph name="Ka" format="1">
  <advance width="622"/>
  <outline>
    <contour>
      <point x="77" y="0" type="line"/>
      <point x="224" y="0" type="line"/>
      <point x="224" y="277" type="line"/>
      <point x="296" y="277" type="line"/>
      <point x="469" y="0" type="line"/>
      <point x="624" y="0" type="line"/>
      <point x="382" y="396" type="line"/>
      <point x="224" y="396" type="line"/>
      <point x="224" y="652" type="line"/>
      <point x="77" y="652" type="line"/>
    </contour>
    <contour>
      <point x="409" y="342" type="line"/>
      <point x="481" y="467" type="line" smooth="yes"/>
      <point x="508" y="513"/>
      <point x="525" y="526"/>
      <point x="554" y="526" type="curve" smooth="yes"/>
      <point x="560" y="526"/>
      <point x="572" y="526"/>
      <point x="583" y="522" type="curve"/>
      <point x="607" y="655" type="line"/>
      <point x="593" y="662"/>
      <point x="571" y="664"/>
      <point x="553" y="664" type="curve" smooth="yes"/>
      <point x="479" y="664"/>
      <point x="431" y="634"/>
      <point x="381" y="546" type="curve" smooth="yes"/>
      <point x="282" y="371" type="line"/>
    </contour>
    <contour>
      <point x="339" y="682" type="move" name="aboveUC"/>
    </contour>
  </outline>
</glyph>
<glyph name="Ka.sc" format="1">
  <advance width="567"/>
  <outline>
    <contour>
      <point x="77" y="0" type="line"/>
      <point x="224" y="0" type="line"/>
      <point x="224" y="212" type="line"/>
      <point x="272" y="212" type="line"/>
      <point x="411" y="0" type="line"/>
      <point x="563" y="0" type="line"/>
      <point x="355" y="329" type="line"/>
      <point x="224" y="329" type="line"/>
      <point x="224" y="528" type="line"/>
      <point x="77" y="528" type="line"/>
    </contour>
    <contour>
      <point x="383" y="275" type="line"/>
      <point x="441" y="368" type="line" smooth="yes"/>
      <point x="458" y="396"/>
      <point x="474" y="406"/>
      <point x="499" y="406" type="curve" smooth="yes"/>
      <point x="509" y="406"/>
      <point x="518" y="404"/>
      <point x="524" y="402" type="curve"/>
      <point x="548" y="531" type="line"/>
      <point x="535" y="536"/>
      <point x="516" y="540"/>
      <point x="498" y="540" type="curve" smooth="yes"/>
      <point x="430" y="540"/>
      <point x="384" y="518"/>
      <point x="342" y="447" type="curve" smooth="yes"/>
      <point x="257" y="304" type="line"/>
    </contour>
  </outline>
</glyph>
<glyph name="Ka.a" format="1">
  <advance width="622"/>
  <outline>
    <contour>
      <point x="77" y="0" type="line"/>
      <point x="224" y="0" type="line"/>
      <point x="224" y="277" type="line"/>
      <point x="312" y="277" type="line"/>
      <point x="382" y="396" type="line"/>
      <point x="224" y="396" type="line"/>
      <point x="224" y="652" type="line"/>
      <point x="77" y="652" type="line"/>
    </contour>
    <contour>
      <point x="409" y="341" type="line"/>
      <point x="481" y="467" type="line" smooth="yes"/>
      <point x="508" y="513"/>
      <point x="525" y="526"/>
      <point x="554" y="526" type="curve" smooth="yes"/>
      <point x="560" y="526"/>
      <point x="572" y="526"/>
      <point x="583" y="522" type="curve"/>
      <point x="607" y="655" type="line"/>
      <point x="593" y="662"/>
      <point x="571" y="664"/>
      <point x="542" y="664" type="curve" smooth="yes"/>
      <point x="479" y="664"/>
      <point x="431" y="634"/>
      <point x="381" y="546" type="curve" smooth="yes"/>
      <point x="282" y="370" type="line"/>
    </contour>
    <contour>
      <point x="554" y="-12" type="curve" smooth="yes"/>
      <point x="586" y="-12"/>
      <point x="607" y="-10"/>
      <point x="621" y="-3" type="curve"/>
      <point x="597" y="130" type="line"/>
      <point x="586" y="126"/>
      <point x="575" y="126"/>
      <point x="569" y="126" type="curve" smooth="yes"/>
      <point x="539" y="126"/>
      <point x="522" y="139"/>
      <point x="496" y="185" type="curve" smooth="yes"/>
      <point x="383" y="396" type="line"/>
      <point x="255" y="358" type="line"/>
      <point x="395" y="98" type="line" smooth="yes"/>
      <point x="445" y="9"/>
      <point x="494" y="-12"/>
    </contour>
  </outline>
</glyph>
<glyph name="Kabashkir.a" format="1">
  <advance width="744"/>
  <outline>
    <contour>
      <point x="25" y="528" type="line"/>
      <point x="204" y="528" type="line"/>
      <point x="352" y="652" type="line"/>
      <point x="25" y="652" type="line"/>
    </contour>
    <component base="Ka.a" xOffset="128"/>
  </outline>
</glyph>
<glyph name="Kabashkir.b" format="1">
  <advance width="744"/>
  <outline>
    <contour>
      <point x="25" y="528" type="line"/>
      <point x="204" y="528" type="line"/>
      <point x="352" y="652" type="line"/>
      <point x="25" y="652" type="line"/>
    </contour>
    <component base="Ka.b" xOffset="128"/>
  </outline>
</glyph>
<glyph name="Kabashkir.sc" format="1">
  <advance width="674"/>
  <outline>
    <contour>
      <point x="488" y="275" type="line"/>
      <point x="546" y="368" type="line" smooth="yes"/>
      <point x="563" y="396"/>
      <point x="578" y="406"/>
      <point x="604" y="406" type="curve" smooth="yes"/>
      <point x="613" y="406"/>
      <point x="623" y="404"/>
      <point x="629" y="402" type="curve"/>
      <point x="653" y="531" type="line"/>
      <point x="640" y="536"/>
      <point x="621" y="540"/>
      <point x="603" y="540" type="curve" smooth="yes"/>
      <point x="535" y="540"/>
      <point x="489" y="518"/>
      <point x="447" y="447" type="curve" smooth="yes"/>
      <point x="362" y="304" type="line"/>
    </contour>
    <contour>
      <point x="182" y="0" type="line"/>
      <point x="329" y="0" type="line"/>
      <point x="329" y="212" type="line"/>
      <point x="377" y="212" type="line"/>
      <point x="516" y="0" type="line"/>
      <point x="668" y="0" type="line"/>
      <point x="460" y="329" type="line"/>
      <point x="329" y="329" type="line"/>
      <point x="329" y="528" type="line"/>
      <point x="25" y="528" type="line"/>
      <point x="25" y="406" type="line"/>
      <point x="182" y="406" type="line"/>
    </contour>
  </outline>
</glyph>
<glyph name="Kadescender.b" format="1">
  <advance width="670"/>
  <outline>
    <contour>
      <point x="512" y="-192" type="line"/>
      <point x="637" y="-192" type="line"/>
      <point x="653" y="22" type="line"/>
      <point x="653" y="124" type="line"/>
      <point x="480" y="124" type="line"/>
      <point x="480" y="0" type="line"/>
      <point x="512" y="0" type="line"/>
    </contour>
    <component base="Ka.b"/>
  </outline>
</glyph>
<glyph name="Kadescender" format="1">
  <advance width="667"/>
  <outline>
    <contour>
      <point x="510" y="-188" type="line"/>
      <point x="641" y="-188" type="line"/>
      <point x="654" y="32" type="line"/>
      <point x="654" y="124" type="line"/>
      <point x="481" y="124" type="line"/>
      <point x="481" y="0" type="line"/>
      <point x="510" y="0" type="line"/>
    </contour>
    <component base="Ka"/>
  </outline>
</glyph>
<glyph name="Kadescender.sc" format="1">
	<advance width="612"/>
	<outline>
		<contour>
			<point x="459" y="-172" type="line"/>
			<point x="586" y="-172" type="line"/>
			<point x="599" y="22" type="line"/>
			<point x="599" y="122" type="line"/>
			<point x="433" y="122" type="line"/>
			<point x="433" y="0" type="line"/>
			<point x="459" y="0" type="line"/>
		</contour>
		<component base="Ka.sc"/>
	</outline>
</glyph>
<glyph name="Kadescender.b" format="1">
  <advance width="670"/>
  <outline>
    <contour>
      <point x="512" y="-192" type="line"/>
      <point x="637" y="-192" type="line"/>
      <point x="653" y="22" type="line"/>
      <point x="653" y="124" type="line"/>
      <point x="480" y="124" type="line"/>
      <point x="480" y="0" type="line"/>
      <point x="512" y="0" type="line"/>
    </contour>
    <component base="Ka.b"/>
  </outline>
</glyph>
<glyph name="Kappa.sc" format="1">
  <advance width="555"/>
  <outline>
    <contour>
      <point x="299" y="564" type="move" name="aboveLC"/>
    </contour>
    <contour>
      <point x="317" y="-22" type="move" name="belowLC"/>
    </contour>
    <component base="K.sc"/>
  </outline>
</glyph>
<glyph name="Ka.sc" format="1">
  <advance width="553"/>
  <outline>
    <contour>
      <point x="305" y="550" type="move" name="aboveUC"/>
    </contour>
    <contour>
      <point x="77" y="0" type="line"/>
      <point x="222" y="0" type="line"/>
      <point x="222" y="209" type="line"/>
      <point x="271" y="209" type="line"/>
      <point x="398" y="0" type="line"/>
      <point x="556" y="0" type="line"/>
      <point x="370" y="291" type="line"/>
      <point x="548" y="527" type="line"/>
      <point x="385" y="527" type="line"/>
      <point x="257" y="331" type="line"/>
      <point x="222" y="331" type="line"/>
      <point x="222" y="527" type="line"/>
      <point x="77" y="527" type="line"/>
    </contour>
  </outline>
</glyph>
<glyph name="Kabashkir.sc" format="1">
  <advance width="749"/>
  <outline>
    <contour>
      <point x="25" y="528" type="line"/>
      <point x="204" y="528" type="line"/>
      <point x="352" y="652" type="line"/>
      <point x="25" y="652" type="line"/>
    </contour>
    <component base="Ka" xOffset="128"/>
  </outline>
</glyph>
<glyph name="L" format="1">
  <advance width="518"/>
  <outline>
    <contour>
      <point x="154" y="674" type="move" name="aboveUC"/>
    </contour>
    <contour>
      <point x="290" y="-22" type="move" name="belowLC"/>
    </contour>
    <contour>
      <point x="77" y="0" type="line"/>
      <point x="482" y="0" type="line"/>
      <point x="482" y="124" type="line"/>
      <point x="224" y="124" type="line"/>
      <point x="224" y="652" type="line"/>
      <point x="77" y="652" type="line"/>
    </contour>
  </outline>
</glyph>
<glyph name="L.sc" format="1">
	<advance width="471"/>
	<outline>
		<contour>
			<point x="77" y="0" type="line"/>
			<point x="434" y="0" type="line"/>
			<point x="434" y="120" type="line"/>
			<point x="224" y="120" type="line"/>
			<point x="224" y="528" type="line"/>
			<point x="77" y="528" type="line"/>
		</contour>
		<contour>
			<point name="aboveUC" x="155" y="564" type="move"/>
		</contour>
		<contour>
			<point name="belowLC" x="264" y="-22" type="move"/>
		</contour>
	</outline>
</glyph>
<glyph name="L.sups" format="1">
  <advance width="349"/>
  <outline>
    <contour>
      <point x="50" y="375" type="line"/>
      <point x="325" y="375" type="line"/>
      <point x="325" y="461" type="line"/>
      <point x="154" y="461" type="line"/>
      <point x="154" y="807" type="line"/>
      <point x="50" y="807" type="line"/>
    </contour>
  </outline>
</glyph>
<glyph name="L.sc" format="1">
  <advance width="471"/>
  <outline>
    <contour>
      <point x="155" y="564" type="move" name="aboveUC"/>
    </contour>
    <contour>
      <point x="264" y="-22" type="move" name="belowLC"/>
    </contour>
    <contour>
      <point x="77" y="0" type="line"/>
      <point x="434" y="0" type="line"/>
      <point x="434" y="120" type="line"/>
      <point x="224" y="120" type="line"/>
      <point x="224" y="528" type="line"/>
      <point x="77" y="528" type="line"/>
    </contour>
  </outline>
</glyph>
<glyph name="Lambda.sc" format="1">
  <advance width="488"/>
  <outline>
    <contour>
      <point x="-8" y="0" type="line"/>
      <point x="140" y="0" type="line"/>
      <point x="198" y="227" type="line" smooth="yes"/>
      <point x="212" y="283"/>
      <point x="223" y="338"/>
      <point x="239" y="395" type="curve"/>
      <point x="243" y="395" type="line"/>
      <point x="259" y="338"/>
      <point x="270" y="283"/>
      <point x="284" y="227" type="curve" smooth="yes"/>
      <point x="344" y="0" type="line"/>
      <point x="497" y="0" type="line"/>
      <point x="332" y="528" type="line"/>
      <point x="157" y="528" type="line"/>
    </contour>
  </outline>
</glyph>
<glyph name="Lje.sc" format="1">
  <advance width="785"/>
  <outline>
    <contour>
      <point x="60" y="-12" type="curve" smooth="yes"/>
      <point x="156" y="-12"/>
      <point x="204" y="45"/>
      <point x="244" y="228" type="curve" smooth="yes"/>
      <point x="256" y="285"/>
      <point x="268" y="346"/>
      <point x="280" y="408" type="curve"/>
      <point x="345" y="408" type="line"/>
      <point x="345" y="0" type="line"/>
      <point x="493" y="0" type="line"/>
      <point x="493" y="528" type="line"/>
      <point x="170" y="528" type="line"/>
      <point x="152" y="434"/>
      <point x="132" y="336"/>
      <point x="110" y="243" type="curve" smooth="yes"/>
      <point x="84" y="136"/>
      <point x="65" y="124"/>
      <point x="38" y="124" type="curve" smooth="yes"/>
      <point x="30" y="124"/>
      <point x="23" y="126"/>
      <point x="15" y="128" type="curve"/>
      <point x="-10" y="-3" type="line"/>
      <point x="8" y="-10"/>
      <point x="30" y="-12"/>
    </contour>
    <contour>
      <point x="345" y="0" type="line"/>
      <point x="523" y="0" type="line" smooth="yes"/>
      <point x="646" y="0"/>
      <point x="748" y="43"/>
      <point x="748" y="178" type="curve" smooth="yes"/>
      <point x="748" y="302"/>
      <point x="653" y="349"/>
      <point x="526" y="349" type="curve" smooth="yes"/>
      <point x="493" y="349" type="line"/>
      <point x="493" y="528" type="line"/>
      <point x="345" y="528" type="line"/>
    </contour>
    <contour>
      <point x="493" y="115" type="line"/>
      <point x="493" y="248" type="line"/>
      <point x="516" y="248" type="line" smooth="yes"/>
      <point x="577" y="248"/>
      <point x="609" y="229"/>
      <point x="609" y="183" type="curve" smooth="yes"/>
      <point x="609" y="135"/>
      <point x="572" y="115"/>
      <point x="516" y="115" type="curve" smooth="yes"/>
    </contour>
  </outline>
</glyph>
<glyph name="Lslash" format="1">
  <advance width="524"/>
  <outline>
    <contour>
      <point x="27" y="176" type="line"/>
      <point x="101" y="220" type="line"/>
      <point x="215" y="269" type="line"/>
      <point x="439" y="391" type="line"/>
      <point x="389" y="479" type="line"/>
      <point x="215" y="383" type="line"/>
      <point x="101" y="334" type="line"/>
      <point x="-23" y="264" type="line"/>
    </contour>
    <component base="L" xOffset="7"/>
  </outline>
</glyph>
<glyph name="Lslash.sc" format="1">
  <advance width="471"/>
  <outline>
    <contour>
      <point x="11" y="105" type="line"/>
      <point x="101" y="158" type="line"/>
      <point x="215" y="207" type="line"/>
      <point x="375" y="294" type="line"/>
      <point x="375" y="403" type="line"/>
      <point x="215" y="316" type="line"/>
      <point x="101" y="267" type="line"/>
      <point x="11" y="214" type="line"/>
    </contour>
    <component base="L.sc" xOffset="7"/>
  </outline>
</glyph>
<glyph name="Lslash.sc" format="1">
  <advance width="471"/>
  <outline>
    <contour>
      <point x="27" y="115" type="line"/>
      <point x="101" y="158" type="line"/>
      <point x="215" y="207" type="line"/>
      <point x="409" y="312" type="line"/>
      <point x="359" y="393" type="line"/>
      <point x="215" y="316" type="line"/>
      <point x="101" y="267" type="line"/>
      <point x="-23" y="197" type="line"/>
    </contour>
    <component base="L.sc" xOffset="7"/>
  </outline>
</glyph>
<glyph name="Lsmall" format="1">
  <advance width="432"/>
  <outline>
    <contour>
      <point x="65" y="0" type="line"/>
      <point x="406" y="0" type="line"/>
      <point x="406" y="115" type="line"/>
      <point x="212" y="115" type="line"/>
      <point x="212" y="496" type="line"/>
      <point x="65" y="496" type="line"/>
    </contour>
    <contour>
      <point x="143" y="564" type="move" name="aboveUC"/>
    </contour>
    <contour>
      <point x="252" y="-22" type="move" name="belowLC"/>
    </contour>
  </outline>
</glyph>
<glyph name="Lambda.sc" format="1">
  <advance width="488"/>
  <outline>
    <contour>
      <point x="-8" y="0" type="line"/>
      <point x="140" y="0" type="line"/>
      <point x="198" y="227" type="line" smooth="yes"/>
      <point x="212" y="282"/>
      <point x="223" y="337"/>
      <point x="239" y="393" type="curve"/>
      <point x="243" y="393" type="line"/>
      <point x="259" y="337"/>
      <point x="270" y="282"/>
      <point x="284" y="227" type="curve" smooth="yes"/>
      <point x="344" y="0" type="line"/>
      <point x="497" y="0" type="line"/>
      <point x="332" y="527" type="line"/>
      <point x="157" y="527" type="line"/>
    </contour>
  </outline>
</glyph>
<glyph name="Lje" format="1">
  <advance width="919"/>
  <outline>
    <contour>
      <point x="79" y="-12" type="curve" smooth="yes"/>
      <point x="183" y="-12"/>
      <point x="238" y="47"/>
      <point x="280" y="266" type="curve" smooth="yes"/>
      <point x="297" y="351"/>
      <point x="310" y="436"/>
      <point x="326" y="528" type="curve"/>
      <point x="426" y="528" type="line"/>
      <point x="426" y="0" type="line"/>
      <point x="573" y="0" type="line"/>
      <point x="573" y="652" type="line"/>
      <point x="213" y="652" type="line"/>
      <point x="190" y="526"/>
      <point x="169" y="403"/>
      <point x="143" y="282" type="curve" smooth="yes"/>
      <point x="113" y="142"/>
      <point x="90" y="126"/>
      <point x="57" y="126" type="curve" smooth="yes"/>
      <point x="45" y="126"/>
      <point x="37" y="128"/>
      <point x="29" y="130" type="curve"/>
      <point x="2" y="-2" type="line"/>
      <point x="23" y="-10"/>
      <point x="44" y="-12"/>
    </contour>
    <contour>
      <point x="426" y="0" type="line"/>
      <point x="624" y="0" type="line" smooth="yes"/>
      <point x="769" y="0"/>
      <point x="882" y="56"/>
      <point x="882" y="213" type="curve" smooth="yes"/>
      <point x="882" y="357"/>
      <point x="774" y="414"/>
      <point x="627" y="414" type="curve" smooth="yes"/>
      <point x="573" y="414" type="line"/>
      <point x="573" y="652" type="line"/>
      <point x="426" y="652" type="line"/>
    </contour>
    <contour>
      <point x="573" y="117" type="line"/>
      <point x="573" y="297" type="line"/>
      <point x="615" y="297" type="line" smooth="yes"/>
      <point x="697" y="297"/>
      <point x="738" y="269"/>
      <point x="738" y="211" type="curve" smooth="yes"/>
      <point x="738" y="144"/>
      <point x="693" y="117"/>
      <point x="616" y="117" type="curve" smooth="yes"/>
    </contour>
  </outline>
</glyph>
<glyph name="Lje.sc" format="1">
  <advance width="833"/>
  <outline>
    <contour>
      <point x="378" y="0" type="line"/>
      <point x="575" y="0" type="line" smooth="yes"/>
      <point x="695" y="0"/>
      <point x="798" y="44"/>
      <point x="798" y="178" type="curve" smooth="yes"/>
      <point x="798" y="297"/>
      <point x="692" y="346"/>
      <point x="575" y="346" type="curve" smooth="yes"/>
      <point x="522" y="346" type="line"/>
      <point x="522" y="527" type="line"/>
      <point x="378" y="527" type="line"/>
    </contour>
    <contour>
      <point x="522" y="114" type="line"/>
      <point x="522" y="232" type="line"/>
      <point x="568" y="232" type="line" smooth="yes"/>
      <point x="628" y="232"/>
      <point x="656" y="212"/>
      <point x="656" y="176" type="curve" smooth="yes"/>
      <point x="656" y="131"/>
      <point x="625" y="114"/>
      <point x="568" y="114" type="curve" smooth="yes"/>
    </contour>
    <component base="El.sc"/>
  </outline>
</glyph>
<glyph name="M.sc" format="1">
  <advance width="685"/>
  <outline>
    <contour>
      <point x="343" y="564" type="move" name="aboveUC"/>
    </contour>
    <contour>
      <point x="343" y="-22" type="move" name="belowLC"/>
    </contour>
    <contour>
      <point x="77" y="0" type="line"/>
      <point x="209" y="0" type="line"/>
      <point x="209" y="148" type="line" smooth="yes"/>
      <point x="209" y="202"/>
      <point x="197" y="293"/>
      <point x="190" y="347" type="curve"/>
      <point x="194" y="347" type="line"/>
      <point x="243" y="223" type="line"/>
      <point x="318" y="42" type="line"/>
      <point x="366" y="42" type="line"/>
      <point x="441" y="223" type="line"/>
      <point x="491" y="347" type="line"/>
      <point x="495" y="347" type="line"/>
      <point x="488" y="293"/>
      <point x="476" y="202"/>
      <point x="476" y="148" type="curve" smooth="yes"/>
      <point x="476" y="0" type="line"/>
      <point x="608" y="0" type="line"/>
      <point x="608" y="528" type="line"/>
      <point x="459" y="528" type="line"/>
      <point x="379" y="313" type="line"/>
      <point x="346" y="224" type="line"/>
      <point x="342" y="224" type="line"/>
      <point x="310" y="313" type="line"/>
      <point x="227" y="528" type="line"/>
      <point x="77" y="528" type="line"/>
    </contour>
  </outline>
</glyph>
<glyph name="M.sups" format="1">
  <advance width="514"/>
  <outline>
    <contour>
      <point x="50" y="262" type="line"/>
      <point x="145" y="262" type="line"/>
      <point x="145" y="412" type="line" smooth="yes"/>
      <point x="145" y="456"/>
      <point x="137" y="520"/>
      <point x="132" y="560" type="curve"/>
      <point x="134" y="560" type="line"/>
      <point x="171" y="461" type="line"/>
      <point x="236" y="299" type="line"/>
      <point x="276" y="299" type="line"/>
      <point x="342" y="461" type="line"/>
      <point x="379" y="560" type="line"/>
      <point x="382" y="560" type="line"/>
      <point x="377" y="520"/>
      <point x="368" y="456"/>
      <point x="368" y="412" type="curve" smooth="yes"/>
      <point x="368" y="262" type="line"/>
      <point x="465" y="262" type="line"/>
      <point x="465" y="694" type="line"/>
      <point x="355" y="694" type="line"/>
      <point x="286" y="505" type="line"/>
      <point x="261" y="431" type="line"/>
      <point x="258" y="431" type="line"/>
      <point x="232" y="505" type="line"/>
      <point x="159" y="694" type="line"/>
      <point x="50" y="694" type="line"/>
    </contour>
  </outline>
</glyph>
<glyph name="Mu.sc" format="1">
  <advance width="685"/>
  <outline>
    <contour>
      <point x="343" y="564" type="move" name="aboveLC"/>
    </contour>
    <contour>
      <point x="343" y="-22" type="move" name="belowLC"/>
    </contour>
    <component base="M.sc"/>
  </outline>
</glyph>
<glyph name="N" format="1">
  <advance width="665"/>
  <outline>
    <contour>
      <point x="77" y="0" type="line"/>
      <point x="217" y="0" type="line"/>
      <point x="217" y="231" type="line" smooth="yes"/>
      <point x="217" y="308"/>
      <point x="205" y="395"/>
      <point x="199" y="467" type="curve"/>
      <point x="203" y="467" type="line"/>
      <point x="267" y="325" type="line"/>
      <point x="437" y="0" type="line"/>
      <point x="588" y="0" type="line"/>
      <point x="588" y="652" type="line"/>
      <point x="448" y="652" type="line"/>
      <point x="448" y="422" type="line" smooth="yes"/>
      <point x="448" y="345"/>
      <point x="460" y="253"/>
      <point x="466" y="184" type="curve"/>
      <point x="462" y="184" type="line"/>
      <point x="398" y="328" type="line"/>
      <point x="228" y="652" type="line"/>
      <point x="77" y="652" type="line"/>
    </contour>
    <contour>
      <point x="334" y="674" type="move" name="aboveUC"/>
    </contour>
    <contour>
      <point x="344" y="-22" type="move" name="belowLC"/>
    </contour>
  </outline>
</glyph>
<glyph name="N.sups" format="1">
  <advance width="446"/>
  <outline>
    <contour>
      <point x="50" y="262" type="line"/>
      <point x="147" y="262" type="line"/>
      <point x="147" y="408" type="line" smooth="yes"/>
      <point x="147" y="458"/>
      <point x="141" y="517"/>
      <point x="136" y="566" type="curve"/>
      <point x="138" y="566" type="line"/>
      <point x="181" y="472" type="line"/>
      <point x="289" y="262" type="line"/>
      <point x="397" y="262" type="line"/>
      <point x="397" y="694" type="line"/>
      <point x="300" y="694" type="line"/>
      <point x="300" y="550" type="line" smooth="yes"/>
      <point x="300" y="498"/>
      <point x="306" y="437"/>
      <point x="312" y="390" type="curve"/>
      <point x="309" y="390" type="line"/>
      <point x="266" y="486" type="line"/>
      <point x="158" y="694" type="line"/>
      <point x="50" y="694" type="line"/>
    </contour>
  </outline>
</glyph>
<glyph name="N.sc" format="1">
  <advance width="606"/>
  <outline>
    <contour>
      <point x="312" y="564" type="move" name="aboveUC"/>
    </contour>
    <contour>
      <point x="308" y="-22" type="move" name="belowLC"/>
    </contour>
    <contour>
      <point x="77" y="0" type="line"/>
      <point x="212" y="0" type="line"/>
      <point x="212" y="145" type="line" smooth="yes"/>
      <point x="212" y="211"/>
      <point x="201" y="295"/>
      <point x="194" y="356" type="curve"/>
      <point x="198" y="356" type="line"/>
      <point x="255" y="231" type="line"/>
      <point x="385" y="0" type="line"/>
      <point x="529" y="0" type="line"/>
      <point x="529" y="528" type="line"/>
      <point x="394" y="528" type="line"/>
      <point x="394" y="383" type="line" smooth="yes"/>
      <point x="394" y="317"/>
      <point x="405" y="229"/>
      <point x="412" y="172" type="curve"/>
      <point x="408" y="172" type="line"/>
      <point x="350" y="298" type="line"/>
      <point x="225" y="528" type="line"/>
      <point x="77" y="528" type="line"/>
    </contour>
  </outline>
</glyph>
<glyph name="N.sups" format="1">
  <advance width="446"/>
  <outline>
    <contour>
      <point x="50" y="375" type="line"/>
      <point x="147" y="375" type="line"/>
      <point x="147" y="522" type="line" smooth="yes"/>
      <point x="147" y="572"/>
      <point x="141" y="631"/>
      <point x="136" y="679" type="curve"/>
      <point x="138" y="679" type="line"/>
      <point x="181" y="585" type="line"/>
      <point x="289" y="375" type="line"/>
      <point x="397" y="375" type="line"/>
      <point x="397" y="807" type="line"/>
      <point x="300" y="807" type="line"/>
      <point x="300" y="664" type="line" smooth="yes"/>
      <point x="300" y="612"/>
      <point x="306" y="550"/>
      <point x="312" y="504" type="curve"/>
      <point x="309" y="504" type="line"/>
      <point x="266" y="600" type="line"/>
      <point x="158" y="807" type="line"/>
      <point x="50" y="807" type="line"/>
    </contour>
  </outline>
</glyph>
<glyph name="Nsmall" format="1">
  <advance width="561"/>
  <outline>
    <contour>
      <point x="286" y="518" type="move" name="aboveLC"/>
    </contour>
    <contour>
      <point x="65" y="0" type="line"/>
      <point x="202" y="0" type="line"/>
      <point x="202" y="138" type="line" smooth="yes"/>
      <point x="202" y="188"/>
      <point x="195" y="252"/>
      <point x="189" y="313" type="curve"/>
      <point x="193" y="313" type="line"/>
      <point x="207" y="283"/>
      <point x="227" y="238"/>
      <point x="242" y="209" type="curve" smooth="yes"/>
      <point x="361" y="0" type="line"/>
      <point x="496" y="0" type="line"/>
      <point x="496" y="496" type="line"/>
      <point x="359" y="496" type="line"/>
      <point x="359" y="358" type="line" smooth="yes"/>
      <point x="359" y="309"/>
      <point x="366" y="243"/>
      <point x="371" y="183" type="curve"/>
      <point x="368" y="183" type="line"/>
      <point x="354" y="212"/>
      <point x="333" y="258"/>
      <point x="318" y="287" type="curve" smooth="yes"/>
      <point x="200" y="496" type="line"/>
      <point x="65" y="496" type="line"/>
    </contour>
  </outline>
</glyph>
<glyph name="Nu.sc" format="1">
  <advance width="606"/>
  <outline>
    <contour>
      <point x="312" y="564" type="move" name="aboveLC"/>
    </contour>
    <contour>
      <point x="308" y="-22" type="move" name="belowLC"/>
    </contour>
    <component base="N.sc"/>
  </outline>
</glyph>
<glyph name="Nje.sc" format="1">
  <advance width="847"/>
  <outline>
    <contour>
      <point x="397" y="0" type="line"/>
      <point x="595" y="0" type="line" smooth="yes"/>
      <point x="715" y="0"/>
      <point x="817" y="44"/>
      <point x="817" y="178" type="curve" smooth="yes"/>
      <point x="817" y="297"/>
      <point x="711" y="346"/>
      <point x="595" y="346" type="curve" smooth="yes"/>
      <point x="543" y="346" type="line"/>
      <point x="543" y="528" type="line"/>
      <point x="397" y="528" type="line"/>
    </contour>
    <contour>
      <point x="543" y="114" type="line"/>
      <point x="543" y="232" type="line"/>
      <point x="588" y="232" type="line" smooth="yes"/>
      <point x="647" y="232"/>
      <point x="675" y="212"/>
      <point x="675" y="176" type="curve" smooth="yes"/>
      <point x="675" y="131"/>
      <point x="644" y="114"/>
      <point x="588" y="114" type="curve" smooth="yes"/>
    </contour>
    <component base="H.sc"/>
  </outline>
</glyph>
<glyph name="O" format="1">
  <advance width="684"/>
  <outline>
    <contour>
      <point x="342" y="674" type="move" name="aboveUC"/>
    </contour>
    <contour>
      <point x="484" y="642" type="move" name="hornLC"/>
    </contour>
    <contour>
      <point x="342" y="0" type="move" name="ogonekUC"/>
    </contour>
    <contour>
      <point x="342" y="-22" type="move" name="belowLC"/>
    </contour>
    <contour>
      <point x="342" y="-12" type="curve" smooth="yes"/>
      <point x="518" y="-12"/>
      <point x="638" y="116"/>
      <point x="638" y="329" type="curve" smooth="yes"/>
      <point x="638" y="541"/>
      <point x="518" y="664"/>
      <point x="342" y="664" type="curve" smooth="yes"/>
      <point x="166" y="664"/>
      <point x="46" y="542"/>
      <point x="46" y="329" type="curve" smooth="yes"/>
      <point x="46" y="116"/>
      <point x="166" y="-12"/>
    </contour>
    <contour>
      <point x="342" y="115" type="curve" smooth="yes"/>
      <point x="253" y="115"/>
      <point x="197" y="198"/>
      <point x="197" y="329" type="curve" smooth="yes"/>
      <point x="197" y="459"/>
      <point x="253" y="537"/>
      <point x="342" y="537" type="curve" smooth="yes"/>
      <point x="431" y="537"/>
      <point x="487" y="459"/>
      <point x="487" y="329" type="curve" smooth="yes"/>
      <point x="487" y="198"/>
      <point x="431" y="115"/>
    </contour>
  </outline>
</glyph>
<glyph name="O.sc" format="1">
  <advance width="616"/>
  <outline>
    <contour>
      <point x="309" y="-12" type="curve" smooth="yes"/>
      <point x="463" y="-12"/>
      <point x="570" y="91"/>
      <point x="570" y="267" type="curve" smooth="yes"/>
      <point x="570" y="441"/>
      <point x="463" y="540"/>
      <point x="309" y="540" type="curve" smooth="yes"/>
      <point x="153" y="540"/>
      <point x="46" y="442"/>
      <point x="46" y="267" type="curve" smooth="yes"/>
      <point x="46" y="91"/>
      <point x="153" y="-12"/>
    </contour>
    <contour>
      <point x="309" y="109" type="curve" smooth="yes"/>
      <point x="239" y="109"/>
      <point x="197" y="169"/>
      <point x="197" y="267" type="curve" smooth="yes"/>
      <point x="197" y="364"/>
      <point x="239" y="419"/>
      <point x="309" y="419" type="curve" smooth="yes"/>
      <point x="377" y="419"/>
      <point x="419" y="364"/>
      <point x="419" y="267" type="curve" smooth="yes"/>
      <point x="419" y="169"/>
      <point x="377" y="109"/>
    </contour>
    <contour>
      <point x="309" y="564" type="move" name="aboveUC"/>
    </contour>
    <contour>
      <point x="441" y="508" type="move" name="hornLC"/>
    </contour>
    <contour>
      <point x="309" y="0" type="move" name="ogonekUC"/>
    </contour>
    <contour>
      <point x="310" y="-22" type="move" name="belowLC"/>
    </contour>
  </outline>
</glyph>
<glyph name="O.sups" format="1">
  <advance width="461"/>
  <outline>
    <contour>
      <point x="230" y="254" type="curve" smooth="yes"/>
      <point x="349" y="254"/>
      <point x="431" y="339"/>
      <point x="431" y="480" type="curve" smooth="yes"/>
      <point x="431" y="620"/>
      <point x="349" y="702"/>
      <point x="230" y="702" type="curve" smooth="yes"/>
      <point x="111" y="702"/>
      <point x="30" y="621"/>
      <point x="30" y="480" type="curve" smooth="yes"/>
      <point x="30" y="339"/>
      <point x="111" y="254"/>
    </contour>
    <contour>
      <point x="230" y="342" type="curve" smooth="yes"/>
      <point x="172" y="342"/>
      <point x="137" y="397"/>
      <point x="137" y="480" type="curve" smooth="yes"/>
      <point x="137" y="564"/>
      <point x="172" y="612"/>
      <point x="230" y="612" type="curve" smooth="yes"/>
      <point x="288" y="612"/>
      <point x="324" y="564"/>
      <point x="324" y="480" type="curve" smooth="yes"/>
      <point x="324" y="397"/>
      <point x="288" y="342"/>
    </contour>
  </outline>
</glyph>
<glyph name="OE" format="1">
  <advance width="871"/>
  <outline>
    <contour>
      <point x="373" y="0" type="curve" smooth="yes"/>
      <point x="818" y="0" type="line"/>
      <point x="818" y="124" type="line"/>
      <point x="561" y="124" type="line"/>
      <point x="561" y="274" type="line"/>
      <point x="769" y="274" type="line"/>
      <point x="769" y="397" type="line"/>
      <point x="561" y="397" type="line"/>
      <point x="561" y="528" type="line"/>
      <point x="808" y="528" type="line"/>
      <point x="808" y="652" type="line"/>
      <point x="381" y="652" type="line" smooth="yes"/>
      <point x="187" y="652"/>
      <point x="46" y="553"/>
      <point x="46" y="329" type="curve" smooth="yes"/>
      <point x="46" y="105"/>
      <point x="187" y="0"/>
    </contour>
    <contour>
      <point x="390" y="119" type="line" smooth="yes"/>
      <point x="276" y="119"/>
      <point x="197" y="171"/>
      <point x="197" y="329" type="curve" smooth="yes"/>
      <point x="197" y="486"/>
      <point x="276" y="533"/>
      <point x="390" y="533" type="curve" smooth="yes"/>
      <point x="413" y="533" type="line"/>
      <point x="413" y="119" type="line"/>
    </contour>
    <contour>
      <point x="529" y="674" type="move" name="aboveUC"/>
    </contour>
  </outline>
</glyph>
<glyph name="OE.sc" format="1">
  <advance width="766"/>
  <outline>
    <contour>
      <point x="339" y="0" type="curve" smooth="yes"/>
      <point x="713" y="0" type="line"/>
      <point x="713" y="114" type="line"/>
      <point x="498" y="114" type="line"/>
      <point x="498" y="215" type="line"/>
      <point x="673" y="215" type="line"/>
      <point x="673" y="322" type="line"/>
      <point x="498" y="322" type="line"/>
      <point x="498" y="414" type="line"/>
      <point x="703" y="414" type="line"/>
      <point x="703" y="528" type="line"/>
      <point x="330" y="528" type="line" smooth="yes"/>
      <point x="169" y="528"/>
      <point x="46" y="453"/>
      <point x="46" y="261" type="curve" smooth="yes"/>
      <point x="46" y="71"/>
      <point x="169" y="0"/>
    </contour>
    <contour>
      <point x="331" y="114" type="line"/>
      <point x="246" y="114"/>
      <point x="197" y="154"/>
      <point x="197" y="261" type="curve" smooth="yes"/>
      <point x="197" y="370"/>
      <point x="246" y="414"/>
      <point x="331" y="414" type="curve" smooth="yes"/>
      <point x="351" y="414" type="line"/>
      <point x="351" y="114" type="line"/>
    </contour>
  </outline>
</glyph>
<glyph name="O.sups" format="1">
  <advance width="461"/>
  <outline>
    <contour>
      <point x="230" y="367" type="curve" smooth="yes"/>
      <point x="349" y="367"/>
      <point x="431" y="453"/>
      <point x="431" y="593" type="curve" smooth="yes"/>
      <point x="431" y="734"/>
      <point x="349" y="815"/>
      <point x="230" y="815" type="curve" smooth="yes"/>
      <point x="111" y="815"/>
      <point x="30" y="735"/>
      <point x="30" y="593" type="curve" smooth="yes"/>
      <point x="30" y="453"/>
      <point x="111" y="367"/>
    </contour>
    <contour>
      <point x="230" y="456" type="curve" smooth="yes"/>
      <point x="172" y="456"/>
      <point x="137" y="510"/>
      <point x="137" y="593" type="curve" smooth="yes"/>
      <point x="137" y="677"/>
      <point x="172" y="726"/>
      <point x="230" y="726" type="curve" smooth="yes"/>
      <point x="288" y="726"/>
      <point x="324" y="677"/>
      <point x="324" y="593" type="curve" smooth="yes"/>
      <point x="324" y="510"/>
      <point x="288" y="456"/>
    </contour>
  </outline>
</glyph>
<glyph name="Obarcyr" format="1">
  <advance width="684"/>
  <outline>
    <contour>
      <point x="342" y="674" type="move" name="aboveUC"/>
    </contour>
    <component base="Fita"/>
  </outline>
</glyph>
<glyph name="Ocyr" format="1">
  <advance width="684"/>
  <outline>
    <contour>
      <point x="342" y="674" type="move" name="aboveUC"/>
    </contour>
    <component base="O"/>
  </outline>
</glyph>
<glyph name="Ohorn" format="1">
  <advance width="684"/>
  <outline>
    <contour>
      <point x="343" y="674" type="move" name="aboveUC"/>
    </contour>
    <contour>
      <point x="342" y="-22" type="move" name="belowLC"/>
    </contour>
    <contour>
      <point x="547" y="583" type="line"/>
      <point x="626" y="604"/>
      <point x="665" y="644"/>
      <point x="665" y="716" type="curve" smooth="yes"/>
      <point x="665" y="756"/>
      <point x="651" y="792"/>
      <point x="635" y="814" type="curve"/>
      <point x="526" y="770" type="line"/>
      <point x="534" y="755"/>
      <point x="542" y="731"/>
      <point x="542" y="705" type="curve" smooth="yes"/>
      <point x="542" y="661"/>
      <point x="520" y="643"/>
      <point x="479" y="632" type="curve"/>
    </contour>
    <component base="O" xOffset="1"/>
  </outline>
</glyph>
<glyph name="Ohorn.sc" format="1">
  <advance width="616"/>
  <outline>
    <contour>
      <point x="307" y="564" type="move" name="aboveUC"/>
    </contour>
    <contour>
      <point x="307" y="0" type="move" name="ogonekUC"/>
    </contour>
    <contour>
      <point x="308" y="-22" type="move" name="belowLC"/>
    </contour>
    <component base="O.sc"/>
    <component base="horncmb" xOffset="433" yOffset="32"/>
  </outline>
</glyph>
<glyph name="Omega" format="1">
  <advance width="711"/>
  <outline>
    <contour>
      <point x="44" y="0" type="line"/>
      <point x="311" y="0" type="line"/>
      <point x="311" y="106" type="line"/>
      <point x="244" y="169"/>
      <point x="211" y="241"/>
      <point x="211" y="343" type="curve" smooth="yes"/>
      <point x="211" y="456"/>
      <point x="265" y="537"/>
      <point x="356" y="537" type="curve" smooth="yes"/>
      <point x="446" y="537"/>
      <point x="501" y="456"/>
      <point x="501" y="343" type="curve" smooth="yes"/>
      <point x="501" y="241"/>
      <point x="467" y="169"/>
      <point x="400" y="106" type="curve"/>
      <point x="400" y="0" type="line"/>
      <point x="667" y="0" type="line"/>
      <point x="667" y="119" type="line"/>
      <point x="557" y="119" type="line"/>
      <point x="557" y="123" type="line"/>
      <point x="600" y="167"/>
      <point x="652" y="250"/>
      <point x="652" y="358" type="curve" smooth="yes"/>
      <point x="652" y="539"/>
      <point x="533" y="664"/>
      <point x="356" y="664" type="curve" smooth="yes"/>
      <point x="178" y="664"/>
      <point x="60" y="539"/>
      <point x="60" y="358" type="curve" smooth="yes"/>
      <point x="60" y="250"/>
      <point x="111" y="167"/>
      <point x="154" y="123" type="curve"/>
      <point x="154" y="119" type="line"/>
      <point x="44" y="119" type="line"/>
    </contour>
  </outline>
</glyph>
<glyph name="Omega.sc" format="1">
  <advance width="633"/>
  <outline>
    <contour>
      <point x="44" y="0" type="line"/>
      <point x="282" y="0" type="line"/>
      <point x="282" y="103" type="line"/>
      <point x="228" y="155"/>
      <point x="203" y="208"/>
      <point x="203" y="278" type="curve" smooth="yes"/>
      <point x="203" y="364"/>
      <point x="247" y="420"/>
      <point x="316" y="420" type="curve" smooth="yes"/>
      <point x="386" y="420"/>
      <point x="430" y="364"/>
      <point x="430" y="278" type="curve" smooth="yes"/>
      <point x="430" y="208"/>
      <point x="405" y="155"/>
      <point x="350" y="103" type="curve"/>
      <point x="350" y="0" type="line"/>
      <point x="589" y="0" type="line"/>
      <point x="589" y="115" type="line"/>
      <point x="501" y="115" type="line"/>
      <point x="501" y="119" type="line"/>
      <point x="534" y="151"/>
      <point x="577" y="215"/>
      <point x="577" y="293" type="curve" smooth="yes"/>
      <point x="577" y="438"/>
      <point x="471" y="540"/>
      <point x="316" y="540" type="curve" smooth="yes"/>
      <point x="162" y="540"/>
      <point x="56" y="438"/>
      <point x="56" y="293" type="curve" smooth="yes"/>
      <point x="56" y="215"/>
      <point x="99" y="151"/>
      <point x="132" y="119" type="curve"/>
      <point x="132" y="115" type="line"/>
      <point x="44" y="115" type="line"/>
    </contour>
  </outline>
</glyph>
<glyph name="Omicron.sc" format="1">
  <advance width="616"/>
  <outline>
    <component base="O.sc"/>
    <contour>
      <point x="309" y="564" type="move" name="aboveLC"/>
    </contour>
    <contour>
      <point x="310" y="-22" type="move" name="belowLC"/>
    </contour>
  </outline>
</glyph>
<glyph name="Omicron.sc" format="1">
  <advance width="616"/>
  <outline>
    <contour>
      <point x="309" y="564" type="move" name="aboveLC"/>
    </contour>
    <contour>
      <point x="310" y="-22" type="move" name="belowLC"/>
    </contour>
    <component base="O.sc"/>
  </outline>
</glyph>
<glyph name="Oogonek.sc" format="1">
	<advance width="616"/>
	<outline>
		<contour>
			<point x="334" y="-223" type="curve" smooth="yes"/>
			<point x="369" y="-223"/>
			<point x="413" y="-208"/>
			<point x="439" y="-188" type="curve"/>
			<point x="405" y="-114" type="line"/>
			<point x="395" y="-121"/>
			<point x="382" y="-128"/>
			<point x="369" y="-128" type="curve" smooth="yes"/>
			<point x="348" y="-128"/>
			<point x="327" y="-116"/>
			<point x="327" y="-90" type="curve" smooth="yes"/>
			<point x="327" y="-62"/>
			<point x="348" y="-27"/>
			<point x="398" y="-5" type="curve"/>
			<point x="507" y="41"/>
			<point x="570" y="120"/>
			<point x="570" y="267" type="curve"/>
			<point x="570" y="441"/>
			<point x="463" y="540"/>
			<point x="309" y="540" type="curve" smooth="yes"/>
			<point x="153" y="540"/>
			<point x="46" y="442"/>
			<point x="46" y="267" type="curve"/>
			<point x="46" y="103"/>
			<point x="136" y="1"/>
			<point x="283" y="-10" type="curve"/>
			<point x="253" y="-36"/>
			<point x="220" y="-77"/>
			<point x="220" y="-129" type="curve" smooth="yes"/>
			<point x="220" y="-189"/>
			<point x="270" y="-223"/>
		</contour>
		<contour>
			<point x="309" y="109" type="curve" smooth="yes"/>
			<point x="239" y="109"/>
			<point x="197" y="169"/>
			<point x="197" y="267" type="curve" smooth="yes"/>
			<point x="197" y="364"/>
			<point x="239" y="419"/>
			<point x="309" y="419" type="curve" smooth="yes"/>
			<point x="377" y="419"/>
			<point x="419" y="364"/>
			<point x="419" y="267" type="curve" smooth="yes"/>
			<point x="419" y="169"/>
			<point x="377" y="109"/>
		</contour>
		<contour>
			<point name="aboveUC" x="309" y="564" type="move"/>
		</contour>
	</outline>
</glyph>
<glyph name="Oslash" format="1">
  <advance width="684"/>
  <outline>
    <contour>
      <point x="350" y="674" type="move" name="aboveUC"/>
    </contour>
    <contour>
      <point x="116" y="-41" type="line"/>
      <point x="660" y="634" type="line"/>
      <point x="584" y="693" type="line"/>
      <point x="40" y="17" type="line"/>
    </contour>
    <component base="O" xOffset="1"/>
  </outline>
</glyph>
<glyph name="Omega.sc" format="1">
  <advance width="631"/>
  <outline>
    <contour>
      <point x="44" y="0" type="line"/>
      <point x="282" y="0" type="line"/>
      <point x="282" y="104" type="line"/>
      <point x="228" y="156"/>
      <point x="206" y="208"/>
      <point x="206" y="277" type="curve" smooth="yes"/>
      <point x="206" y="358"/>
      <point x="248" y="416"/>
      <point x="315" y="416" type="curve" smooth="yes"/>
      <point x="384" y="416"/>
      <point x="425" y="358"/>
      <point x="425" y="277" type="curve" smooth="yes"/>
      <point x="425" y="208"/>
      <point x="404" y="156"/>
      <point x="348" y="104" type="curve"/>
      <point x="348" y="0" type="line"/>
      <point x="588" y="0" type="line"/>
      <point x="588" y="116" type="line"/>
      <point x="499" y="116" type="line"/>
      <point x="499" y="119" type="line"/>
      <point x="532" y="151"/>
      <point x="574" y="215"/>
      <point x="574" y="293" type="curve" smooth="yes"/>
      <point x="574" y="438"/>
      <point x="470" y="540"/>
      <point x="315" y="540" type="curve" smooth="yes"/>
      <point x="162" y="540"/>
      <point x="57" y="438"/>
      <point x="57" y="293" type="curve" smooth="yes"/>
      <point x="57" y="215"/>
      <point x="99" y="151"/>
      <point x="132" y="119" type="curve"/>
      <point x="132" y="116" type="line"/>
      <point x="44" y="116" type="line"/>
    </contour>
  </outline>
</glyph>
<glyph name="P.sups" format="1">
  <advance width="408"/>
  <outline>
    <contour>
      <point x="50" y="262" type="line"/>
      <point x="154" y="262" type="line"/>
      <point x="154" y="406" type="line"/>
      <point x="214" y="406" type="line" smooth="yes"/>
      <point x="305" y="406"/>
      <point x="386" y="452"/>
      <point x="386" y="555" type="curve" smooth="yes"/>
      <point x="386" y="659"/>
      <point x="308" y="694"/>
      <point x="214" y="694" type="curve" smooth="yes"/>
      <point x="50" y="694" type="line"/>
    </contour>
    <contour>
      <point x="154" y="487" type="line"/>
      <point x="154" y="612" type="line"/>
      <point x="206" y="612" type="line" smooth="yes"/>
      <point x="257" y="612"/>
      <point x="284" y="596"/>
      <point x="284" y="555" type="curve" smooth="yes"/>
      <point x="284" y="512"/>
      <point x="259" y="487"/>
      <point x="206" y="487" type="curve" smooth="yes"/>
    </contour>
  </outline>
</glyph>
<glyph name="P.sc" format="1">
  <advance width="551"/>
  <outline>
    <contour>
      <point x="300" y="564" type="move" name="aboveUC"/>
    </contour>
    <contour>
      <point x="161" y="-22" type="move" name="belowLC"/>
    </contour>
    <contour>
      <point x="77" y="0" type="line"/>
      <point x="224" y="0" type="line"/>
      <point x="224" y="167" type="line"/>
      <point x="291" y="167" type="line" smooth="yes"/>
      <point x="409" y="167"/>
      <point x="515" y="221"/>
      <point x="515" y="352" type="curve" smooth="yes"/>
      <point x="515" y="486"/>
      <point x="412" y="528"/>
      <point x="291" y="528" type="curve" smooth="yes"/>
      <point x="77" y="528" type="line"/>
    </contour>
    <contour>
      <point x="224" y="268" type="line"/>
      <point x="224" y="413" type="line"/>
      <point x="286" y="413" type="line" smooth="yes"/>
      <point x="346" y="413"/>
      <point x="375" y="392"/>
      <point x="375" y="343" type="curve" smooth="yes"/>
      <point x="375" y="297"/>
      <point x="345" y="268"/>
      <point x="286" y="268" type="curve" smooth="yes"/>
    </contour>
  </outline>
</glyph>
<glyph name="Phi.sc" format="1">
  <advance width="708"/>
  <outline>
    <contour>
      <point x="327" y="47" type="curve" smooth="yes"/>
      <point x="380" y="47" type="line" smooth="yes"/>
      <point x="547" y="47"/>
      <point x="660" y="121"/>
      <point x="660" y="266" type="curve" smooth="yes"/>
      <point x="660" y="412"/>
      <point x="547" y="484"/>
      <point x="380" y="484" type="curve" smooth="yes"/>
      <point x="327" y="484" type="line" smooth="yes"/>
      <point x="160" y="484"/>
      <point x="48" y="412"/>
      <point x="48" y="266" type="curve" smooth="yes"/>
      <point x="48" y="121"/>
      <point x="160" y="47"/>
    </contour>
    <contour>
      <point x="316" y="157" type="line" smooth="yes"/>
      <point x="240" y="157"/>
      <point x="187" y="187"/>
      <point x="187" y="266" type="curve" smooth="yes"/>
      <point x="187" y="345"/>
      <point x="240" y="374"/>
      <point x="316" y="374" type="curve" smooth="yes"/>
      <point x="392" y="374" type="line" smooth="yes"/>
      <point x="467" y="374"/>
      <point x="521" y="345"/>
      <point x="521" y="266" type="curve" smooth="yes"/>
      <point x="521" y="187"/>
      <point x="467" y="157"/>
      <point x="392" y="157" type="curve" smooth="yes"/>
    </contour>
    <contour>
      <point x="289" y="-18" type="line"/>
      <point x="419" y="-18" type="line"/>
      <point x="419" y="546" type="line"/>
      <point x="289" y="546" type="line"/>
    </contour>
  </outline>
</glyph>
<glyph name="Pi" format="1">
  <advance width="663"/>
  <outline>
    <contour>
      <point x="77" y="0" type="line"/>
      <point x="224" y="0" type="line"/>
      <point x="224" y="528" type="line"/>
      <point x="439" y="528" type="line"/>
      <point x="439" y="0" type="line"/>
      <point x="586" y="0" type="line"/>
      <point x="586" y="652" type="line"/>
      <point x="77" y="652" type="line"/>
    </contour>
  </outline>
</glyph>
<glyph name="Pi.sc" format="1">
  <advance width="615"/>
  <outline>
    <contour>
      <point x="77" y="0" type="line"/>
      <point x="224" y="0" type="line"/>
      <point x="224" y="406" type="line"/>
      <point x="391" y="406" type="line"/>
      <point x="391" y="0" type="line"/>
      <point x="539" y="0" type="line"/>
      <point x="539" y="528" type="line"/>
      <point x="77" y="528" type="line"/>
    </contour>
  </outline>
</glyph>
<glyph name="Phi.sc" format="1">
  <advance width="707"/>
  <outline>
    <contour>
      <point x="328" y="47" type="curve" smooth="yes"/>
      <point x="379" y="47" type="line"/>
      <point x="543" y="47"/>
      <point x="660" y="124"/>
      <point x="660" y="266" type="curve" smooth="yes"/>
      <point x="660" y="408"/>
      <point x="543" y="482"/>
      <point x="379" y="482" type="curve" smooth="yes"/>
      <point x="328" y="482" type="line" smooth="yes"/>
      <point x="164" y="482"/>
      <point x="48" y="408"/>
      <point x="48" y="266" type="curve" smooth="yes"/>
      <point x="48" y="124"/>
      <point x="164" y="47"/>
    </contour>
    <contour>
      <point x="320" y="158" type="line"/>
      <point x="242" y="158"/>
      <point x="190" y="198"/>
      <point x="190" y="266" type="curve" smooth="yes"/>
      <point x="190" y="334"/>
      <point x="242" y="370"/>
      <point x="320" y="370" type="curve" smooth="yes"/>
      <point x="388" y="370" type="line" smooth="yes"/>
      <point x="466" y="370"/>
      <point x="518" y="334"/>
      <point x="518" y="266" type="curve" smooth="yes"/>
      <point x="518" y="198"/>
      <point x="466" y="158"/>
      <point x="388" y="158" type="curve" smooth="yes"/>
    </contour>
    <contour>
      <point x="286" y="-18" type="line"/>
      <point x="421" y="-18" type="line"/>
      <point x="421" y="545" type="line"/>
      <point x="286" y="545" type="line"/>
    </contour>
  </outline>
</glyph>
<glyph name="Psi.sc" format="1">
  <advance width="680"/>
  <outline>
    <contour>
      <point x="315" y="167" type="curve" smooth="yes"/>
      <point x="366" y="167" type="line" smooth="yes"/>
      <point x="528" y="167"/>
      <point x="629" y="232"/>
      <point x="629" y="397" type="curve" smooth="yes"/>
      <point x="629" y="527" type="line"/>
      <point x="487" y="527" type="line"/>
      <point x="487" y="405" type="line" smooth="yes"/>
      <point x="487" y="302"/>
      <point x="447" y="279"/>
      <point x="374" y="279" type="curve" smooth="yes"/>
      <point x="307" y="279" type="line" smooth="yes"/>
      <point x="234" y="279"/>
      <point x="194" y="302"/>
      <point x="194" y="405" type="curve" smooth="yes"/>
      <point x="194" y="527" type="line"/>
      <point x="52" y="527" type="line"/>
      <point x="52" y="397" type="line" smooth="yes"/>
      <point x="52" y="232"/>
      <point x="153" y="167"/>
    </contour>
    <contour>
      <point x="273" y="0" type="line"/>
      <point x="408" y="0" type="line"/>
      <point x="408" y="527" type="line"/>
      <point x="273" y="527" type="line"/>
    </contour>
  </outline>
</glyph>
<glyph name="Q.sups" format="1">
  <advance width="461"/>
  <outline>
    <contour>
      <point x="228" y="254" type="curve" smooth="yes"/>
      <point x="347" y="254"/>
      <point x="429" y="339"/>
      <point x="429" y="479" type="curve" smooth="yes"/>
      <point x="429" y="620"/>
      <point x="347" y="702"/>
      <point x="228" y="702" type="curve" smooth="yes"/>
      <point x="108" y="702"/>
      <point x="27" y="621"/>
      <point x="27" y="479" type="curve" smooth="yes"/>
      <point x="27" y="339"/>
      <point x="108" y="254"/>
    </contour>
    <contour>
      <point x="228" y="339" type="curve" smooth="yes"/>
      <point x="169" y="339"/>
      <point x="134" y="393"/>
      <point x="134" y="479" type="curve" smooth="yes"/>
      <point x="134" y="564"/>
      <point x="169" y="612"/>
      <point x="228" y="612" type="curve" smooth="yes"/>
      <point x="286" y="612"/>
      <point x="323" y="564"/>
      <point x="323" y="479" type="curve" smooth="yes"/>
      <point x="323" y="393"/>
      <point x="286" y="339"/>
    </contour>
    <contour>
      <point x="374" y="143" type="curve" smooth="yes"/>
      <point x="410" y="143"/>
      <point x="438" y="150"/>
      <point x="454" y="159" type="curve"/>
      <point x="436" y="233" type="line"/>
      <point x="422" y="229"/>
      <point x="406" y="226"/>
      <point x="386" y="226" type="curve" smooth="yes"/>
      <point x="345" y="226"/>
      <point x="300" y="236"/>
      <point x="284" y="276" type="curve"/>
      <point x="179" y="265" type="line"/>
      <point x="208" y="193"/>
      <point x="276" y="143"/>
    </contour>
  </outline>
</glyph>
<glyph name="Q.sc" format="1">
  <advance width="614"/>
  <outline>
    <contour>
      <point x="307" y="564" type="move" name="aboveUC"/>
    </contour>
    <contour>
      <point x="307" y="-12" type="curve" smooth="yes"/>
      <point x="461" y="-12"/>
      <point x="568" y="91"/>
      <point x="568" y="267" type="curve" smooth="yes"/>
      <point x="568" y="441"/>
      <point x="461" y="540"/>
      <point x="307" y="540" type="curve" smooth="yes"/>
      <point x="151" y="540"/>
      <point x="44" y="442"/>
      <point x="44" y="267" type="curve" smooth="yes"/>
      <point x="44" y="91"/>
      <point x="151" y="-12"/>
    </contour>
    <contour>
      <point x="307" y="100" type="curve" smooth="yes"/>
      <point x="237" y="100"/>
      <point x="195" y="161"/>
      <point x="195" y="267" type="curve" smooth="yes"/>
      <point x="195" y="364"/>
      <point x="237" y="419"/>
      <point x="307" y="419" type="curve" smooth="yes"/>
      <point x="375" y="419"/>
      <point x="417" y="364"/>
      <point x="417" y="267" type="curve" smooth="yes"/>
      <point x="417" y="161"/>
      <point x="375" y="100"/>
    </contour>
    <contour>
      <point x="487" y="-171" type="curve" smooth="yes"/>
      <point x="533" y="-171"/>
      <point x="570" y="-163"/>
      <point x="592" y="-151" type="curve"/>
      <point x="566" y="-47" type="line"/>
      <point x="548" y="-53"/>
      <point x="528" y="-57"/>
      <point x="504" y="-57" type="curve" smooth="yes"/>
      <point x="446" y="-57"/>
      <point x="396" y="-44"/>
      <point x="376" y="20" type="curve"/>
      <point x="231" y="5" type="line"/>
      <point x="272" y="-99"/>
      <point x="350" y="-171"/>
    </contour>
  </outline>
</glyph>
<glyph name="Q.sups" format="1">
  <advance width="461"/>
  <outline>
    <contour>
      <point x="228" y="367" type="curve" smooth="yes"/>
      <point x="347" y="367"/>
      <point x="429" y="452"/>
      <point x="429" y="593" type="curve" smooth="yes"/>
      <point x="429" y="734"/>
      <point x="347" y="815"/>
      <point x="228" y="815" type="curve" smooth="yes"/>
      <point x="108" y="815"/>
      <point x="27" y="735"/>
      <point x="27" y="593" type="curve" smooth="yes"/>
      <point x="27" y="452"/>
      <point x="108" y="367"/>
    </contour>
    <contour>
      <point x="228" y="453" type="curve" smooth="yes"/>
      <point x="169" y="453"/>
      <point x="134" y="506"/>
      <point x="134" y="593" type="curve" smooth="yes"/>
      <point x="134" y="677"/>
      <point x="169" y="726"/>
      <point x="228" y="726" type="curve" smooth="yes"/>
      <point x="286" y="726"/>
      <point x="323" y="677"/>
      <point x="323" y="593" type="curve" smooth="yes"/>
      <point x="323" y="506"/>
      <point x="286" y="453"/>
    </contour>
    <contour>
      <point x="374" y="257" type="curve" smooth="yes"/>
      <point x="410" y="257"/>
      <point x="438" y="264"/>
      <point x="454" y="272" type="curve"/>
      <point x="436" y="347" type="line"/>
      <point x="422" y="342"/>
      <point x="406" y="339"/>
      <point x="386" y="339" type="curve" smooth="yes"/>
      <point x="345" y="339"/>
      <point x="300" y="350"/>
      <point x="284" y="390" type="curve"/>
      <point x="179" y="379" type="line"/>
      <point x="208" y="307"/>
      <point x="276" y="257"/>
    </contour>
  </outline>
</glyph>
<glyph name="R.sups" format="1">
  <advance width="416"/>
  <outline>
    <contour>
      <point x="50" y="262" type="line"/>
      <point x="154" y="262" type="line"/>
      <point x="154" y="415" type="line"/>
      <point x="211" y="415" type="line" smooth="yes"/>
      <point x="304" y="415"/>
      <point x="381" y="461"/>
      <point x="381" y="559" type="curve" smooth="yes"/>
      <point x="381" y="662"/>
      <point x="304" y="694"/>
      <point x="211" y="694" type="curve" smooth="yes"/>
      <point x="50" y="694" type="line"/>
    </contour>
    <contour>
      <point x="154" y="496" type="line"/>
      <point x="154" y="612" type="line"/>
      <point x="203" y="612" type="line" smooth="yes"/>
      <point x="253" y="612"/>
      <point x="280" y="596"/>
      <point x="280" y="556" type="curve" smooth="yes"/>
      <point x="280" y="517"/>
      <point x="253" y="496"/>
      <point x="203" y="496" type="curve" smooth="yes"/>
    </contour>
    <contour>
      <point x="287" y="262" type="line"/>
      <point x="403" y="262" type="line"/>
      <point x="263" y="508" type="line"/>
      <point x="192" y="442" type="line"/>
    </contour>
  </outline>
</glyph>
<glyph name="Rho.sc" format="1">
  <advance width="551"/>
  <outline>
    <contour>
      <point x="300" y="564" type="move" name="aboveLC"/>
    </contour>
    <contour>
      <point x="161" y="-22" type="move" name="belowLC"/>
    </contour>
    <component base="P.sc"/>
  </outline>
</glyph>
<glyph name="Rsmall" format="1">
  <advance width="532"/>
  <outline>
    <contour>
      <point x="268" y="518" type="move" name="aboveUC"/>
    </contour>
    <contour>
      <point x="288" y="-22" type="move" name="belowLC"/>
    </contour>
    <contour>
      <point x="65" y="0" type="line"/>
      <point x="212" y="0" type="line"/>
      <point x="212" y="162" type="line"/>
      <point x="268" y="162" type="line"/>
      <point x="363" y="162"/>
      <point x="474" y="208"/>
      <point x="474" y="332" type="curve" smooth="yes"/>
      <point x="474" y="456"/>
      <point x="383" y="496"/>
      <point x="269" y="496" type="curve" smooth="yes"/>
      <point x="65" y="496" type="line"/>
    </contour>
    <contour>
      <point x="212" y="261" type="line"/>
      <point x="212" y="388" type="line"/>
      <point x="251" y="388" type="line" smooth="yes"/>
      <point x="303" y="388"/>
      <point x="329" y="368"/>
      <point x="329" y="328" type="curve" smooth="yes"/>
      <point x="329" y="288"/>
      <point x="303" y="261"/>
      <point x="251" y="261" type="curve" smooth="yes"/>
    </contour>
    <contour>
      <point x="354" y="0" type="line"/>
      <point x="517" y="0" type="line"/>
      <point x="364" y="240" type="line"/>
      <point x="244" y="200" type="line"/>
    </contour>
  </outline>
</glyph>
<glyph name="S" format="1">
  <advance width="556"/>
  <outline>
    <contour>
      <point x="291" y="674" type="move" name="aboveUC"/>
    </contour>
    <contour>
      <point x="280" y="0" type="move" name="baseLC"/>
    </contour>
    <contour>
      <point x="280" y="-22" type="move" name="belowLC"/>
    </contour>
    <contour>
      <point x="276" y="-12" type="curve" smooth="yes"/>
      <point x="432" y="-12"/>
      <point x="522" y="82"/>
      <point x="522" y="190" type="curve" smooth="yes"/>
      <point x="522" y="282"/>
      <point x="472" y="335"/>
      <point x="393" y="367" type="curve" smooth="yes"/>
      <point x="309" y="401" type="line" smooth="yes"/>
      <point x="253" y="424"/>
      <point x="210" y="438"/>
      <point x="210" y="478" type="curve" smooth="yes"/>
      <point x="210" y="515"/>
      <point x="242" y="537"/>
      <point x="293" y="537" type="curve" smooth="yes"/>
      <point x="345" y="537"/>
      <point x="385" y="518"/>
      <point x="428" y="485" type="curve"/>
      <point x="503" y="578" type="line"/>
      <point x="447" y="634"/>
      <point x="368" y="664"/>
      <point x="293" y="664" type="curve" smooth="yes"/>
      <point x="157" y="664"/>
      <point x="61" y="578"/>
      <point x="61" y="470" type="curve" smooth="yes"/>
      <point x="61" y="375"/>
      <point x="125" y="319"/>
      <point x="192" y="292" type="curve" smooth="yes"/>
      <point x="277" y="256" type="line" smooth="yes"/>
      <point x="334" y="232"/>
      <point x="371" y="219"/>
      <point x="371" y="178" type="curve" smooth="yes"/>
      <point x="371" y="139"/>
      <point x="341" y="115"/>
      <point x="280" y="115" type="curve" smooth="yes"/>
      <point x="226" y="115"/>
      <point x="166" y="143"/>
      <point x="119" y="183" type="curve"/>
      <point x="35" y="82" type="line"/>
      <point x="101" y="20"/>
      <point x="191" y="-12"/>
    </contour>
  </outline>
</glyph>
<glyph name="S.sups" format="1">
  <advance width="374"/>
  <outline>
    <contour>
      <point x="187" y="254" type="curve" smooth="yes"/>
      <point x="292" y="254"/>
      <point x="352" y="317"/>
      <point x="352" y="395" type="curve" smooth="yes"/>
      <point x="352" y="451"/>
      <point x="327" y="480"/>
      <point x="267" y="505" type="curve" smooth="yes"/>
      <point x="210" y="529" type="line" smooth="yes"/>
      <point x="174" y="545"/>
      <point x="145" y="554"/>
      <point x="145" y="580" type="curve" smooth="yes"/>
      <point x="145" y="601"/>
      <point x="161" y="616"/>
      <point x="195" y="616" type="curve" smooth="yes"/>
      <point x="231" y="616"/>
      <point x="259" y="602"/>
      <point x="288" y="581" type="curve"/>
      <point x="341" y="645" type="line"/>
      <point x="302" y="682"/>
      <point x="248" y="703"/>
      <point x="199" y="703" type="curve" smooth="yes"/>
      <point x="105" y="703"/>
      <point x="40" y="644"/>
      <point x="40" y="572" type="curve" smooth="yes"/>
      <point x="40" y="511"/>
      <point x="77" y="478"/>
      <point x="129" y="456" type="curve" smooth="yes"/>
      <point x="185" y="432" type="line" smooth="yes"/>
      <point x="222" y="416"/>
      <point x="247" y="407"/>
      <point x="247" y="383" type="curve" smooth="yes"/>
      <point x="247" y="361"/>
      <point x="233" y="343"/>
      <point x="193" y="343" type="curve" smooth="yes"/>
      <point x="156" y="343"/>
      <point x="113" y="360"/>
      <point x="82" y="387" type="curve"/>
      <point x="22" y="317" type="line"/>
      <point x="68" y="274"/>
      <point x="129" y="254"/>
    </contour>
  </outline>
</glyph>
<glyph name="Sha" format="1">
  <advance width="910"/>
  <outline>
    <contour>
      <point x="77" y="0" type="line"/>
      <point x="833" y="0" type="line"/>
      <point x="833" y="652" type="line"/>
      <point x="689" y="652" type="line"/>
      <point x="689" y="124" type="line"/>
      <point x="526" y="124" type="line"/>
      <point x="526" y="652" type="line"/>
      <point x="385" y="652" type="line"/>
      <point x="385" y="124" type="line"/>
      <point x="221" y="124" type="line"/>
      <point x="221" y="652" type="line"/>
      <point x="77" y="652" type="line"/>
    </contour>
  </outline>
</glyph>
<glyph name="Sha.sc" format="1">
  <advance width="823"/>
  <outline>
    <contour>
      <point x="77" y="0" type="line"/>
      <point x="746" y="0" type="line"/>
      <point x="746" y="528" type="line"/>
      <point x="607" y="528" type="line"/>
      <point x="607" y="122" type="line"/>
      <point x="481" y="122" type="line"/>
      <point x="481" y="528" type="line"/>
      <point x="342" y="528" type="line"/>
      <point x="342" y="122" type="line"/>
      <point x="216" y="122" type="line"/>
      <point x="216" y="528" type="line"/>
      <point x="77" y="528" type="line"/>
    </contour>
  </outline>
</glyph>
<glyph name="Shcha" format="1">
  <advance width="926"/>
  <outline>
    <contour>
      <point x="769" y="-188" type="line"/>
      <point x="900" y="-188" type="line"/>
      <point x="913" y="32" type="line"/>
      <point x="913" y="124" type="line"/>
      <point x="741" y="124" type="line"/>
      <point x="741" y="0" type="line"/>
      <point x="769" y="0" type="line"/>
    </contour>
    <component base="Sha"/>
  </outline>
</glyph>
<glyph name="Sigma" format="1">
  <advance width="549"/>
  <outline>
    <contour>
      <point x="38" y="0" type="line"/>
      <point x="515" y="0" type="line"/>
      <point x="515" y="124" type="line"/>
      <point x="222" y="124" type="line"/>
      <point x="387" y="333" type="line"/>
      <point x="225" y="528" type="line"/>
      <point x="488" y="528" type="line"/>
      <point x="488" y="652" type="line"/>
      <point x="41" y="652" type="line"/>
      <point x="41" y="563" type="line"/>
      <point x="240" y="329" type="line"/>
      <point x="38" y="89" type="line"/>
    </contour>
  </outline>
</glyph>
<glyph name="Sigma.sc" format="1">
  <advance width="486"/>
  <outline>
    <contour>
      <point x="38" y="0" type="line"/>
      <point x="448" y="0" type="line"/>
      <point x="448" y="114" type="line"/>
      <point x="213" y="114" type="line"/>
      <point x="349" y="273" type="line"/>
      <point x="221" y="415" type="line"/>
      <point x="435" y="415" type="line"/>
      <point x="435" y="528" type="line"/>
      <point x="41" y="528" type="line"/>
      <point x="41" y="448" type="line"/>
      <point x="204" y="270" type="line"/>
      <point x="38" y="87" type="line"/>
    </contour>
  </outline>
</glyph>
<glyph name="Sha.sc" format="1">
  <advance width="822"/>
  <outline>
    <contour>
      <point x="77" y="0" type="line"/>
      <point x="484" y="0" type="line"/>
      <point x="484" y="527" type="line"/>
      <point x="339" y="527" type="line"/>
      <point x="339" y="121" type="line"/>
      <point x="222" y="121" type="line"/>
      <point x="222" y="527" type="line"/>
      <point x="77" y="527" type="line"/>
    </contour>
    <contour>
      <point x="339" y="0" type="line"/>
      <point x="745" y="0" type="line"/>
      <point x="745" y="527" type="line"/>
      <point x="601" y="527" type="line"/>
      <point x="601" y="121" type="line"/>
      <point x="484" y="121" type="line"/>
      <point x="484" y="527" type="line"/>
      <point x="339" y="527" type="line"/>
    </contour>
  </outline>
</glyph>
<glyph name="Shcha.sc" format="1">
  <advance width="828"/>
  <outline>
    <contour>
      <point x="77" y="0" type="line"/>
      <point x="484" y="0" type="line"/>
      <point x="484" y="527" type="line"/>
      <point x="339" y="527" type="line"/>
      <point x="339" y="121" type="line"/>
      <point x="222" y="121" type="line"/>
      <point x="222" y="527" type="line"/>
      <point x="77" y="527" type="line"/>
    </contour>
    <contour>
      <point x="339" y="0" type="line"/>
      <point x="745" y="0" type="line"/>
      <point x="745" y="527" type="line"/>
      <point x="601" y="527" type="line"/>
      <point x="601" y="121" type="line"/>
      <point x="484" y="121" type="line"/>
      <point x="484" y="527" type="line"/>
      <point x="339" y="527" type="line"/>
    </contour>
    <contour>
      <point x="677" y="-156" type="line"/>
      <point x="800" y="-156" type="line"/>
      <point x="816" y="20" type="line"/>
      <point x="816" y="121" type="line"/>
      <point x="653" y="121" type="line"/>
      <point x="653" y="0" type="line"/>
      <point x="677" y="0" type="line"/>
    </contour>
  </outline>
</glyph>
<glyph name="Sigma.sc" format="1">
  <advance width="486"/>
  <outline>
    <contour>
      <point x="38" y="0" type="line"/>
      <point x="452" y="0" type="line"/>
      <point x="452" y="121" type="line"/>
      <point x="219" y="121" type="line"/>
      <point x="349" y="273" type="line"/>
      <point x="221" y="415" type="line"/>
      <point x="429" y="415" type="line"/>
      <point x="429" y="536" type="line"/>
      <point x="40" y="536" type="line"/>
      <point x="40" y="449" type="line"/>
      <point x="204" y="269" type="line"/>
      <point x="38" y="87" type="line"/>
    </contour>
  </outline>
</glyph>
<glyph name="Soft.sc" format="1">
  <advance width="544"/>
  <outline>
    <contour>
      <point x="77" y="0" type="line"/>
      <point x="287" y="0" type="line" smooth="yes"/>
      <point x="406" y="0"/>
      <point x="509" y="44"/>
      <point x="509" y="178" type="curve" smooth="yes"/>
      <point x="509" y="297"/>
      <point x="403" y="346"/>
      <point x="287" y="346" type="curve" smooth="yes"/>
      <point x="222" y="346" type="line"/>
      <point x="222" y="527" type="line"/>
      <point x="77" y="527" type="line"/>
    </contour>
    <contour>
      <point x="222" y="114" type="line"/>
      <point x="222" y="232" type="line"/>
      <point x="280" y="232" type="line"/>
      <point x="339" y="232"/>
      <point x="367" y="212"/>
      <point x="367" y="176" type="curve" smooth="yes"/>
      <point x="367" y="131"/>
      <point x="336" y="114"/>
      <point x="280" y="114" type="curve" smooth="yes"/>
    </contour>
  </outline>
</glyph>
<glyph name="T" format="1">
  <advance width="556"/>
  <outline>
    <contour>
      <point x="278" y="674" type="move" name="aboveUC"/>
    </contour>
    <contour>
      <point x="278" y="0" type="move" name="baseLC"/>
    </contour>
    <contour>
      <point x="278" y="-22" type="move" name="belowLC"/>
    </contour>
    <contour>
      <point x="204" y="0" type="line"/>
      <point x="352" y="0" type="line"/>
      <point x="352" y="528" type="line"/>
      <point x="531" y="528" type="line"/>
      <point x="531" y="652" type="line"/>
      <point x="25" y="652" type="line"/>
      <point x="25" y="528" type="line"/>
      <point x="204" y="528" type="line"/>
    </contour>
  </outline>
</glyph>
<glyph name="T.sc" format="1">
  <advance width="491"/>
  <outline>
    <contour>
      <point x="245" y="564" type="move" name="aboveUC"/>
    </contour>
    <contour>
      <point x="244" y="0" type="move" name="baseLC"/>
    </contour>
    <contour>
      <point x="245" y="-22" type="move" name="belowLC"/>
    </contour>
    <contour>
      <point x="172" y="0" type="line"/>
      <point x="319" y="0" type="line"/>
      <point x="319" y="408" type="line"/>
      <point x="466" y="408" type="line"/>
      <point x="466" y="528" type="line"/>
      <point x="25" y="528" type="line"/>
      <point x="25" y="408" type="line"/>
      <point x="172" y="408" type="line"/>
    </contour>
  </outline>
</glyph>
<glyph name="T.sups" format="1">
  <advance width="376"/>
  <outline>
    <contour>
      <point x="137" y="262" type="line"/>
      <point x="241" y="262" type="line"/>
      <point x="241" y="608" type="line"/>
      <point x="360" y="608" type="line"/>
      <point x="360" y="694" type="line"/>
      <point x="16" y="694" type="line"/>
      <point x="16" y="608" type="line"/>
      <point x="137" y="608" type="line"/>
    </contour>
  </outline>
</glyph>
<glyph name="Tau.sc" format="1">
  <advance width="491"/>
  <outline>
    <contour>
      <point x="245" y="564" type="move" name="aboveLC"/>
    </contour>
    <contour>
      <point x="244" y="0" type="move" name="baseLC"/>
    </contour>
    <contour>
      <point x="245" y="-22" type="move" name="belowLC"/>
    </contour>
    <component base="T.sc"/>
  </outline>
</glyph>
<glyph name="Tbar" format="1">
  <advance width="556"/>
  <outline>
    <contour>
      <point x="204" y="0" type="line"/>
      <point x="352" y="0" type="line"/>
      <point x="352" y="528" type="line"/>
      <point x="531" y="528" type="line"/>
      <point x="531" y="652" type="line"/>
      <point x="25" y="652" type="line"/>
      <point x="25" y="528" type="line"/>
      <point x="204" y="528" type="line"/>
    </contour>
    <contour>
      <point x="86" y="285" type="line"/>
      <point x="470" y="285" type="line"/>
      <point x="470" y="356" type="line"/>
      <point x="180" y="356" type="line"/>
      <point x="86" y="350" type="line"/>
    </contour>
  </outline>
</glyph>
<glyph name="Theta" format="1">
  <advance width="684"/>
  <outline>
    <contour>
      <point x="244" y="272" type="line"/>
      <point x="440" y="272" type="line"/>
      <point x="440" y="401" type="line"/>
      <point x="244" y="401" type="line"/>
    </contour>
    <component base="O"/>
  </outline>
</glyph>
<glyph name="Theta.sc" format="1">
  <advance width="616"/>
  <outline>
    <contour>
      <point x="231" y="215" type="line"/>
      <point x="386" y="215" type="line"/>
      <point x="386" y="322" type="line"/>
      <point x="231" y="322" type="line"/>
    </contour>
    <contour>
      <point x="309" y="-12" type="curve" smooth="yes"/>
      <point x="463" y="-12"/>
      <point x="570" y="89"/>
      <point x="570" y="267" type="curve" smooth="yes"/>
      <point x="570" y="445"/>
      <point x="463" y="540"/>
      <point x="309" y="540" type="curve" smooth="yes"/>
      <point x="153" y="540"/>
      <point x="46" y="445"/>
      <point x="46" y="267" type="curve" smooth="yes"/>
      <point x="46" y="89"/>
      <point x="153" y="-12"/>
    </contour>
    <contour>
      <point x="309" y="100" type="curve" smooth="yes"/>
      <point x="234" y="100"/>
      <point x="191" y="161"/>
      <point x="191" y="267" type="curve" smooth="yes"/>
      <point x="191" y="372"/>
      <point x="234" y="428"/>
      <point x="309" y="428" type="curve" smooth="yes"/>
      <point x="382" y="428"/>
      <point x="425" y="372"/>
      <point x="425" y="267" type="curve" smooth="yes"/>
      <point x="425" y="161"/>
      <point x="382" y="100"/>
    </contour>
  </outline>
</glyph>
<glyph name="Thorn" format="1">
  <advance width="617"/>
  <outline>
    <contour>
      <point x="77" y="0" type="line"/>
      <point x="224" y="0" type="line"/>
      <point x="224" y="123" type="line"/>
      <point x="315" y="123" type="line" smooth="yes"/>
      <point x="453" y="123"/>
      <point x="570" y="190"/>
      <point x="570" y="344" type="curve" smooth="yes"/>
      <point x="570" y="502"/>
      <point x="456" y="553"/>
      <point x="315" y="553" type="curve" smooth="yes"/>
      <point x="224" y="553" type="line"/>
      <point x="224" y="652" type="line"/>
      <point x="77" y="652" type="line"/>
    </contour>
    <contour>
      <point x="224" y="240" type="line"/>
      <point x="224" y="436" type="line"/>
      <point x="306" y="436" type="line" smooth="yes"/>
      <point x="384" y="436"/>
      <point x="426" y="412"/>
      <point x="426" y="344" type="curve" smooth="yes"/>
      <point x="426" y="276"/>
      <point x="387" y="240"/>
      <point x="306" y="240" type="curve" smooth="yes"/>
    </contour>
  </outline>
</glyph>
